<ttFont>
    <TTGlyph name="A" xMin="19" yMin="0" xMax="584" yMax="690">
      <contour>
        <pt x="466" y="252" on="1"/>
        <pt x="137" y="252" on="1"/>
        <pt x="46" y="0" on="1"/>
        <pt x="19" y="0" on="1"/>
        <pt x="267" y="681" on="1"/>
        <pt x="270" y="690" on="0"/>
        <pt x="280" y="690" on="1"/>
        <pt x="323" y="690" on="1"/>
        <pt x="333" y="690" on="0"/>
        <pt x="336" y="681" on="1"/>
        <pt x="584" y="0" on="1"/>
        <pt x="557" y="0" on="1"/>
      </contour>
      <contour>
        <pt x="458" y="274" on="1"/>
        <pt x="336" y="612" on="1"/>
        <pt x="316" y="668" on="1"/>
        <pt x="287" y="668" on="1"/>
        <pt x="267" y="612" on="1"/>
        <pt x="145" y="274" on="1"/>
      </contour>
    </TTGlyph>
    <TTGlyph name="AE" xMin="11" yMin="0" xMax="847" yMax="690">
      <contour>
        <pt x="847" y="668" on="1"/>
        <pt x="578" y="668" on="1"/>
        <pt x="540" y="668" on="0"/>
        <pt x="496" y="624" on="0"/>
        <pt x="496" y="586" on="1"/>
        <pt x="496" y="380" on="1"/>
        <pt x="804" y="380" on="1"/>
        <pt x="804" y="359" on="1"/>
        <pt x="496" y="359" on="1"/>
        <pt x="496" y="104" on="1"/>
        <pt x="496" y="68" on="0"/>
        <pt x="542" y="22" on="0"/>
        <pt x="578" y="22" on="1"/>
        <pt x="847" y="22" on="1"/>
        <pt x="847" y="4" on="1"/>
        <pt x="755" y="0" on="0"/>
        <pt x="573" y="0" on="1"/>
        <pt x="529" y="0" on="0"/>
        <pt x="471" y="58" on="0"/>
        <pt x="471" y="102" on="1"/>
        <pt x="471" y="272" on="1"/>
        <pt x="220" y="272" on="1"/>
        <pt x="41" y="0" on="1"/>
        <pt x="11" y="0" on="1"/>
        <pt x="410" y="605" on="1"/>
        <pt x="444" y="656" on="0"/>
        <pt x="520" y="690" on="0"/>
        <pt x="575" y="690" on="1"/>
        <pt x="750" y="690" on="0"/>
        <pt x="847" y="686" on="1"/>
      </contour>
      <contour>
        <pt x="471" y="294" on="1"/>
        <pt x="471" y="587" on="1"/>
        <pt x="471" y="610" on="0"/>
        <pt x="496" y="657" on="0"/>
        <pt x="512" y="664" on="1"/>
        <pt x="506" y="664" on="1"/>
        <pt x="466" y="648" on="0"/>
        <pt x="430" y="592" on="1"/>
        <pt x="234" y="294" on="1"/>
      </contour>
    </TTGlyph>
    <TTGlyph name="Aacute" xMin="19" yMin="0" xMax="584" yMax="894">
      <contour>
        <pt x="268" y="736" on="1"/>
        <pt x="254" y="749" on="1"/>
        <pt x="403" y="894" on="1"/>
        <pt x="421" y="877" on="1"/>
      </contour>
      <contour>
        <pt x="466" y="252" on="1"/>
        <pt x="137" y="252" on="1"/>
        <pt x="46" y="0" on="1"/>
        <pt x="19" y="0" on="1"/>
        <pt x="267" y="681" on="1"/>
        <pt x="270" y="690" on="0"/>
        <pt x="280" y="690" on="1"/>
        <pt x="323" y="690" on="1"/>
        <pt x="333" y="690" on="0"/>
        <pt x="336" y="681" on="1"/>
        <pt x="584" y="0" on="1"/>
        <pt x="557" y="0" on="1"/>
      </contour>
      <contour>
        <pt x="458" y="274" on="1"/>
        <pt x="336" y="612" on="1"/>
        <pt x="316" y="668" on="1"/>
        <pt x="287" y="668" on="1"/>
        <pt x="267" y="612" on="1"/>
        <pt x="145" y="274" on="1"/>
      </contour>
    </TTGlyph>
    <TTGlyph name="Abreve" xMin="19" yMin="0" xMax="584" yMax="873">
      <contour>
        <pt x="419" y="873" on="1"/>
        <pt x="437" y="869" on="1"/>
        <pt x="437" y="816" on="0"/>
        <pt x="364" y="755" on="0"/>
        <pt x="302" y="755" on="1"/>
        <pt x="239" y="755" on="0"/>
        <pt x="165" y="816" on="0"/>
        <pt x="165" y="869" on="1"/>
        <pt x="183" y="873" on="1"/>
        <pt x="183" y="828" on="0"/>
        <pt x="247" y="779" on="0"/>
        <pt x="302" y="779" on="1"/>
        <pt x="356" y="779" on="0"/>
        <pt x="419" y="829" on="0"/>
      </contour>
      <contour>
        <pt x="466" y="252" on="1"/>
        <pt x="137" y="252" on="1"/>
        <pt x="46" y="0" on="1"/>
        <pt x="19" y="0" on="1"/>
        <pt x="267" y="681" on="1"/>
        <pt x="270" y="690" on="0"/>
        <pt x="280" y="690" on="1"/>
        <pt x="323" y="690" on="1"/>
        <pt x="333" y="690" on="0"/>
        <pt x="336" y="681" on="1"/>
        <pt x="584" y="0" on="1"/>
        <pt x="557" y="0" on="1"/>
      </contour>
      <contour>
        <pt x="458" y="274" on="1"/>
        <pt x="336" y="612" on="1"/>
        <pt x="316" y="668" on="1"/>
        <pt x="287" y="668" on="1"/>
        <pt x="267" y="612" on="1"/>
        <pt x="145" y="274" on="1"/>
      </contour>
    </TTGlyph>
    <TTGlyph name="Acircumflex" xMin="19" yMin="0" xMax="584" yMax="880">
      <contour>
        <pt x="168" y="751" on="1"/>
        <pt x="156" y="763" on="1"/>
        <pt x="292" y="880" on="1"/>
        <pt x="310" y="880" on="1"/>
        <pt x="446" y="763" on="1"/>
        <pt x="435" y="751" on="1"/>
        <pt x="305" y="853" on="1"/>
        <pt x="297" y="853" on="1"/>
      </contour>
      <contour>
        <pt x="466" y="252" on="1"/>
        <pt x="137" y="252" on="1"/>
        <pt x="46" y="0" on="1"/>
        <pt x="19" y="0" on="1"/>
        <pt x="267" y="681" on="1"/>
        <pt x="270" y="690" on="0"/>
        <pt x="280" y="690" on="1"/>
        <pt x="323" y="690" on="1"/>
        <pt x="333" y="690" on="0"/>
        <pt x="336" y="681" on="1"/>
        <pt x="584" y="0" on="1"/>
        <pt x="557" y="0" on="1"/>
      </contour>
      <contour>
        <pt x="458" y="274" on="1"/>
        <pt x="336" y="612" on="1"/>
        <pt x="316" y="668" on="1"/>
        <pt x="287" y="668" on="1"/>
        <pt x="267" y="612" on="1"/>
        <pt x="145" y="274" on="1"/>
      </contour>
    </TTGlyph>
    <TTGlyph name="Adieresis" xMin="19" yMin="0" xMax="584" yMax="856">
      <contour>
        <pt x="218" y="778" on="1"/>
        <pt x="208" y="778" on="1"/>
        <pt x="198" y="778" on="0"/>
        <pt x="198" y="789" on="1"/>
        <pt x="198" y="845" on="1"/>
        <pt x="198" y="856" on="0"/>
        <pt x="208" y="856" on="1"/>
        <pt x="218" y="856" on="1"/>
        <pt x="228" y="856" on="0"/>
        <pt x="228" y="845" on="1"/>
        <pt x="228" y="789" on="1"/>
        <pt x="228" y="778" on="0"/>
      </contour>
      <contour>
        <pt x="395" y="778" on="1"/>
        <pt x="385" y="778" on="1"/>
        <pt x="375" y="778" on="0"/>
        <pt x="375" y="789" on="1"/>
        <pt x="375" y="845" on="1"/>
        <pt x="375" y="856" on="0"/>
        <pt x="385" y="856" on="1"/>
        <pt x="395" y="856" on="1"/>
        <pt x="405" y="856" on="0"/>
        <pt x="405" y="845" on="1"/>
        <pt x="405" y="789" on="1"/>
        <pt x="405" y="778" on="0"/>
      </contour>
      <contour>
        <pt x="466" y="252" on="1"/>
        <pt x="137" y="252" on="1"/>
        <pt x="46" y="0" on="1"/>
        <pt x="19" y="0" on="1"/>
        <pt x="267" y="681" on="1"/>
        <pt x="270" y="690" on="0"/>
        <pt x="280" y="690" on="1"/>
        <pt x="323" y="690" on="1"/>
        <pt x="333" y="690" on="0"/>
        <pt x="336" y="681" on="1"/>
        <pt x="584" y="0" on="1"/>
        <pt x="557" y="0" on="1"/>
      </contour>
      <contour>
        <pt x="458" y="274" on="1"/>
        <pt x="336" y="612" on="1"/>
        <pt x="316" y="668" on="1"/>
        <pt x="287" y="668" on="1"/>
        <pt x="267" y="612" on="1"/>
        <pt x="145" y="274" on="1"/>
      </contour>
    </TTGlyph>
    <TTGlyph name="Agrave" xMin="19" yMin="0" xMax="584" yMax="894">
      <contour>
        <pt x="327" y="736" on="1"/>
        <pt x="174" y="877" on="1"/>
        <pt x="192" y="894" on="1"/>
        <pt x="341" y="749" on="1"/>
      </contour>
      <contour>
        <pt x="466" y="252" on="1"/>
        <pt x="137" y="252" on="1"/>
        <pt x="46" y="0" on="1"/>
        <pt x="19" y="0" on="1"/>
        <pt x="267" y="681" on="1"/>
        <pt x="270" y="690" on="0"/>
        <pt x="280" y="690" on="1"/>
        <pt x="323" y="690" on="1"/>
        <pt x="333" y="690" on="0"/>
        <pt x="336" y="681" on="1"/>
        <pt x="584" y="0" on="1"/>
        <pt x="557" y="0" on="1"/>
      </contour>
      <contour>
        <pt x="458" y="274" on="1"/>
        <pt x="336" y="612" on="1"/>
        <pt x="316" y="668" on="1"/>
        <pt x="287" y="668" on="1"/>
        <pt x="267" y="612" on="1"/>
        <pt x="145" y="274" on="1"/>
      </contour>
    </TTGlyph>
    <TTGlyph name="Amacron" xMin="19" yMin="0" xMax="584" yMax="827">
      <contour>
        <pt x="432" y="804" on="1"/>
        <pt x="172" y="804" on="1"/>
        <pt x="172" y="827" on="1"/>
        <pt x="432" y="827" on="1"/>
      </contour>
      <contour>
        <pt x="466" y="252" on="1"/>
        <pt x="137" y="252" on="1"/>
        <pt x="46" y="0" on="1"/>
        <pt x="19" y="0" on="1"/>
        <pt x="267" y="681" on="1"/>
        <pt x="270" y="690" on="0"/>
        <pt x="280" y="690" on="1"/>
        <pt x="323" y="690" on="1"/>
        <pt x="333" y="690" on="0"/>
        <pt x="336" y="681" on="1"/>
        <pt x="584" y="0" on="1"/>
        <pt x="557" y="0" on="1"/>
      </contour>
      <contour>
        <pt x="458" y="274" on="1"/>
        <pt x="336" y="612" on="1"/>
        <pt x="316" y="668" on="1"/>
        <pt x="287" y="668" on="1"/>
        <pt x="267" y="612" on="1"/>
        <pt x="145" y="274" on="1"/>
      </contour>
    </TTGlyph>
    <TTGlyph name="Aogonek" xMin="19" yMin="-202" xMax="593" yMax="690">
      <contour>
        <pt x="590" y="-182" on="1"/>
        <pt x="593" y="-194" on="1"/>
        <pt x="517" y="-226" on="0"/>
        <pt x="456" y="-178" on="0"/>
        <pt x="475" y="-124" on="1"/>
        <pt x="497" y="-61" on="0"/>
        <pt x="564" y="0" on="1"/>
        <pt x="557" y="0" on="1"/>
        <pt x="466" y="252" on="1"/>
        <pt x="137" y="252" on="1"/>
        <pt x="46" y="0" on="1"/>
        <pt x="19" y="0" on="1"/>
        <pt x="267" y="681" on="1"/>
        <pt x="270" y="690" on="0"/>
        <pt x="280" y="690" on="1"/>
        <pt x="323" y="690" on="1"/>
        <pt x="333" y="690" on="0"/>
        <pt x="336" y="681" on="1"/>
        <pt x="584" y="0" on="1"/>
        <pt x="519" y="-65" on="0"/>
        <pt x="497" y="-126" on="1"/>
        <pt x="481" y="-172" on="0"/>
        <pt x="533" y="-203" on="0"/>
      </contour>
      <contour>
        <pt x="458" y="274" on="1"/>
        <pt x="336" y="612" on="1"/>
        <pt x="316" y="668" on="1"/>
        <pt x="287" y="668" on="1"/>
        <pt x="267" y="612" on="1"/>
        <pt x="145" y="274" on="1"/>
      </contour>
    </TTGlyph>
    <TTGlyph name="Aring" xMin="19" yMin="0" xMax="584" yMax="909">
      <contour>
        <pt x="342" y="719" on="0"/>
        <pt x="262" y="719" on="0"/>
        <pt x="206" y="774" on="0"/>
        <pt x="206" y="814" on="1"/>
        <pt x="206" y="853" on="0"/>
        <pt x="262" y="909" on="0"/>
        <pt x="342" y="909" on="0"/>
        <pt x="398" y="853" on="0"/>
        <pt x="398" y="814" on="1"/>
        <pt x="398" y="774" on="0"/>
      </contour>
      <contour>
        <pt x="334" y="890" on="0"/>
        <pt x="270" y="890" on="0"/>
        <pt x="227" y="846" on="0"/>
        <pt x="227" y="814" on="1"/>
        <pt x="227" y="781" on="0"/>
        <pt x="270" y="738" on="0"/>
        <pt x="334" y="738" on="0"/>
        <pt x="377" y="781" on="0"/>
        <pt x="377" y="814" on="1"/>
        <pt x="377" y="846" on="0"/>
      </contour>
      <contour>
        <pt x="466" y="252" on="1"/>
        <pt x="137" y="252" on="1"/>
        <pt x="46" y="0" on="1"/>
        <pt x="19" y="0" on="1"/>
        <pt x="267" y="681" on="1"/>
        <pt x="270" y="690" on="0"/>
        <pt x="280" y="690" on="1"/>
        <pt x="323" y="690" on="1"/>
        <pt x="333" y="690" on="0"/>
        <pt x="336" y="681" on="1"/>
        <pt x="584" y="0" on="1"/>
        <pt x="557" y="0" on="1"/>
      </contour>
      <contour>
        <pt x="458" y="274" on="1"/>
        <pt x="336" y="612" on="1"/>
        <pt x="316" y="668" on="1"/>
        <pt x="287" y="668" on="1"/>
        <pt x="267" y="612" on="1"/>
        <pt x="145" y="274" on="1"/>
      </contour>
    </TTGlyph>
    <TTGlyph name="Atilde" xMin="19" yMin="0" xMax="584" yMax="866">
      <contour>
        <pt x="174" y="777" on="1"/>
        <pt x="157" y="777" on="1"/>
        <pt x="156" y="822" on="0"/>
        <pt x="196" y="869" on="0"/>
        <pt x="232" y="866" on="1"/>
        <pt x="262" y="864" on="0"/>
        <pt x="342" y="801" on="0"/>
        <pt x="372" y="798" on="1"/>
        <pt x="403" y="796" on="0"/>
        <pt x="430" y="826" on="0"/>
        <pt x="430" y="861" on="1"/>
        <pt x="447" y="861" on="1"/>
        <pt x="448" y="818" on="0"/>
        <pt x="408" y="773" on="0"/>
        <pt x="336" y="779" on="0"/>
        <pt x="255" y="842" on="0"/>
        <pt x="232" y="844" on="1"/>
        <pt x="202" y="847" on="0"/>
        <pt x="174" y="814" on="0"/>
      </contour>
      <contour>
        <pt x="466" y="252" on="1"/>
        <pt x="137" y="252" on="1"/>
        <pt x="46" y="0" on="1"/>
        <pt x="19" y="0" on="1"/>
        <pt x="267" y="681" on="1"/>
        <pt x="270" y="690" on="0"/>
        <pt x="280" y="690" on="1"/>
        <pt x="323" y="690" on="1"/>
        <pt x="333" y="690" on="0"/>
        <pt x="336" y="681" on="1"/>
        <pt x="584" y="0" on="1"/>
        <pt x="557" y="0" on="1"/>
      </contour>
      <contour>
        <pt x="458" y="274" on="1"/>
        <pt x="336" y="612" on="1"/>
        <pt x="316" y="668" on="1"/>
        <pt x="287" y="668" on="1"/>
        <pt x="267" y="612" on="1"/>
        <pt x="145" y="274" on="1"/>
      </contour>
    </TTGlyph>
    <TTGlyph name="B" xMin="103" yMin="-8" xMax="539" yMax="698">
      <contour>
        <pt x="402" y="360" on="1"/>
        <pt x="402" y="356" on="1"/>
        <pt x="476" y="349" on="0"/>
        <pt x="539" y="258" on="0"/>
        <pt x="539" y="172" on="1"/>
        <pt x="539" y="67" on="0"/>
        <pt x="446" y="-8" on="0"/>
        <pt x="327" y="-8" on="1"/>
        <pt x="184" y="-8" on="0"/>
        <pt x="103" y="0" on="1"/>
        <pt x="103" y="690" on="1"/>
        <pt x="174" y="698" on="0"/>
        <pt x="297" y="698" on="1"/>
        <pt x="422" y="698" on="0"/>
        <pt x="519" y="623" on="0"/>
        <pt x="519" y="518" on="1"/>
        <pt x="519" y="443" on="0"/>
        <pt x="463" y="366" on="0"/>
      </contour>
      <contour>
        <pt x="128" y="368" on="1"/>
        <pt x="317" y="368" on="1"/>
        <pt x="416" y="369" on="0"/>
        <pt x="493" y="430" on="0"/>
        <pt x="493" y="518" on="1"/>
        <pt x="493" y="612" on="0"/>
        <pt x="408" y="675" on="0"/>
        <pt x="297" y="675" on="1"/>
        <pt x="188" y="675" on="0"/>
        <pt x="128" y="673" on="1"/>
      </contour>
      <contour>
        <pt x="128" y="347" on="1"/>
        <pt x="128" y="17" on="1"/>
        <pt x="198" y="15" on="0"/>
        <pt x="327" y="15" on="1"/>
        <pt x="433" y="15" on="0"/>
        <pt x="513" y="78" on="0"/>
        <pt x="513" y="172" on="1"/>
        <pt x="513" y="273" on="0"/>
        <pt x="427" y="345" on="0"/>
        <pt x="317" y="347" on="1"/>
      </contour>
    </TTGlyph>
    <TTGlyph name="C" xMin="76" yMin="-12" xMax="519" yMax="702">
      <contour>
        <pt x="513" y="24" on="1"/>
        <pt x="519" y="6" on="1"/>
        <pt x="440" y="-12" on="0"/>
        <pt x="331" y="-12" on="1"/>
        <pt x="189" y="-12" on="0"/>
        <pt x="76" y="147" on="0"/>
        <pt x="76" y="543" on="0"/>
        <pt x="189" y="702" on="0"/>
        <pt x="331" y="702" on="1"/>
        <pt x="431" y="702" on="0"/>
        <pt x="505" y="685" on="1"/>
        <pt x="499" y="667" on="1"/>
        <pt x="424" y="679" on="0"/>
        <pt x="331" y="679" on="1"/>
        <pt x="203" y="679" on="0"/>
        <pt x="102" y="531" on="0"/>
        <pt x="102" y="159" on="0"/>
        <pt x="203" y="11" on="0"/>
        <pt x="331" y="11" on="1"/>
        <pt x="438" y="11" on="0"/>
      </contour>
    </TTGlyph>
    <TTGlyph name="Cacute" xMin="76" yMin="-12" xMax="519" yMax="894">
      <contour>
        <pt x="441" y="877" on="1"/>
        <pt x="288" y="736" on="1"/>
        <pt x="274" y="749" on="1"/>
        <pt x="423" y="894" on="1"/>
      </contour>
      <contour>
        <pt x="513" y="24" on="1"/>
        <pt x="519" y="6" on="1"/>
        <pt x="440" y="-12" on="0"/>
        <pt x="331" y="-12" on="1"/>
        <pt x="189" y="-12" on="0"/>
        <pt x="76" y="147" on="0"/>
        <pt x="76" y="543" on="0"/>
        <pt x="189" y="702" on="0"/>
        <pt x="331" y="702" on="1"/>
        <pt x="431" y="702" on="0"/>
        <pt x="505" y="685" on="1"/>
        <pt x="499" y="667" on="1"/>
        <pt x="424" y="679" on="0"/>
        <pt x="331" y="679" on="1"/>
        <pt x="203" y="679" on="0"/>
        <pt x="102" y="531" on="0"/>
        <pt x="102" y="159" on="0"/>
        <pt x="203" y="11" on="0"/>
        <pt x="331" y="11" on="1"/>
        <pt x="438" y="11" on="0"/>
      </contour>
    </TTGlyph>
    <TTGlyph name="Ccaron" xMin="76" yMin="-12" xMax="519" yMax="880">
      <contour>
        <pt x="469" y="868" on="1"/>
        <pt x="332" y="751" on="1"/>
        <pt x="314" y="751" on="1"/>
        <pt x="177" y="868" on="1"/>
        <pt x="190" y="880" on="1"/>
        <pt x="319" y="778" on="1"/>
        <pt x="327" y="778" on="1"/>
        <pt x="457" y="880" on="1"/>
      </contour>
      <contour>
        <pt x="513" y="24" on="1"/>
        <pt x="519" y="6" on="1"/>
        <pt x="440" y="-12" on="0"/>
        <pt x="331" y="-12" on="1"/>
        <pt x="189" y="-12" on="0"/>
        <pt x="76" y="147" on="0"/>
        <pt x="76" y="543" on="0"/>
        <pt x="189" y="702" on="0"/>
        <pt x="331" y="702" on="1"/>
        <pt x="431" y="702" on="0"/>
        <pt x="505" y="685" on="1"/>
        <pt x="499" y="667" on="1"/>
        <pt x="424" y="679" on="0"/>
        <pt x="331" y="679" on="1"/>
        <pt x="203" y="679" on="0"/>
        <pt x="102" y="531" on="0"/>
        <pt x="102" y="159" on="0"/>
        <pt x="203" y="11" on="0"/>
        <pt x="331" y="11" on="1"/>
        <pt x="438" y="11" on="0"/>
      </contour>
    </TTGlyph>
    <TTGlyph name="Ccedilla" xMin="76" yMin="-231" xMax="519" yMax="702">
      <contour>
        <pt x="513" y="24" on="1"/>
        <pt x="519" y="6" on="1"/>
        <pt x="440" y="-12" on="0"/>
        <pt x="331" y="-12" on="1"/>
        <pt x="189" y="-12" on="0"/>
        <pt x="76" y="147" on="0"/>
        <pt x="76" y="543" on="0"/>
        <pt x="189" y="702" on="0"/>
        <pt x="331" y="702" on="1"/>
        <pt x="431" y="702" on="0"/>
        <pt x="505" y="685" on="1"/>
        <pt x="499" y="667" on="1"/>
        <pt x="424" y="679" on="0"/>
        <pt x="331" y="679" on="1"/>
        <pt x="203" y="679" on="0"/>
        <pt x="102" y="531" on="0"/>
        <pt x="102" y="159" on="0"/>
        <pt x="203" y="11" on="0"/>
        <pt x="331" y="11" on="1"/>
        <pt x="438" y="11" on="0"/>
      </contour>
      <contour>
        <pt x="299" y="-75" on="1"/>
        <pt x="302" y="-61" on="1"/>
        <pt x="341" y="-59" on="0"/>
        <pt x="381" y="-91" on="0"/>
        <pt x="380" y="-126" on="1"/>
        <pt x="379" y="-178" on="0"/>
        <pt x="303" y="-239" on="0"/>
        <pt x="241" y="-231" on="1"/>
        <pt x="245" y="-216" on="1"/>
        <pt x="296" y="-218" on="0"/>
        <pt x="358" y="-165" on="0"/>
        <pt x="358" y="-126" on="1"/>
        <pt x="358" y="-98" on="0"/>
        <pt x="332" y="-76" on="0"/>
      </contour>
    </TTGlyph>
    <TTGlyph name="Cdotaccent" xMin="76" yMin="-12" xMax="519" yMax="860">
      <contour>
        <pt x="317" y="860" on="1"/>
        <pt x="327" y="860" on="1"/>
        <pt x="339" y="860" on="0"/>
        <pt x="339" y="848" on="1"/>
        <pt x="339" y="786" on="1"/>
        <pt x="339" y="774" on="0"/>
        <pt x="327" y="774" on="1"/>
        <pt x="317" y="774" on="1"/>
        <pt x="305" y="774" on="0"/>
        <pt x="305" y="786" on="1"/>
        <pt x="305" y="848" on="1"/>
        <pt x="305" y="860" on="0"/>
      </contour>
      <contour>
        <pt x="513" y="24" on="1"/>
        <pt x="519" y="6" on="1"/>
        <pt x="440" y="-12" on="0"/>
        <pt x="331" y="-12" on="1"/>
        <pt x="189" y="-12" on="0"/>
        <pt x="76" y="147" on="0"/>
        <pt x="76" y="543" on="0"/>
        <pt x="189" y="702" on="0"/>
        <pt x="331" y="702" on="1"/>
        <pt x="431" y="702" on="0"/>
        <pt x="505" y="685" on="1"/>
        <pt x="499" y="667" on="1"/>
        <pt x="424" y="679" on="0"/>
        <pt x="331" y="679" on="1"/>
        <pt x="203" y="679" on="0"/>
        <pt x="102" y="531" on="0"/>
        <pt x="102" y="159" on="0"/>
        <pt x="203" y="11" on="0"/>
        <pt x="331" y="11" on="1"/>
        <pt x="438" y="11" on="0"/>
      </contour>
    </TTGlyph>
    <TTGlyph name="D" xMin="103" yMin="-9" xMax="583" yMax="699">
      <contour>
        <pt x="103" y="0" on="1"/>
        <pt x="103" y="690" on="1"/>
        <pt x="222" y="699" on="0"/>
        <pt x="332" y="699" on="1"/>
        <pt x="471" y="699" on="0"/>
        <pt x="583" y="540" on="0"/>
        <pt x="583" y="150" on="0"/>
        <pt x="471" y="-9" on="0"/>
        <pt x="332" y="-9" on="1"/>
        <pt x="224" y="-9" on="0"/>
      </contour>
      <contour>
        <pt x="128" y="672" on="1"/>
        <pt x="128" y="17" on="1"/>
        <pt x="308" y="14" on="0"/>
        <pt x="332" y="14" on="1"/>
        <pt x="457" y="14" on="0"/>
        <pt x="557" y="161" on="0"/>
        <pt x="557" y="529" on="0"/>
        <pt x="457" y="676" on="0"/>
        <pt x="332" y="676" on="1"/>
        <pt x="250" y="676" on="0"/>
      </contour>
    </TTGlyph>
    <TTGlyph name="Dcaron" xMin="103" yMin="-9" xMax="583" yMax="880">
      <contour>
        <pt x="316" y="751" on="1"/>
        <pt x="179" y="868" on="1"/>
        <pt x="192" y="880" on="1"/>
        <pt x="321" y="778" on="1"/>
        <pt x="329" y="778" on="1"/>
        <pt x="459" y="880" on="1"/>
        <pt x="471" y="868" on="1"/>
        <pt x="334" y="751" on="1"/>
      </contour>
      <contour>
        <pt x="103" y="0" on="1"/>
        <pt x="103" y="690" on="1"/>
        <pt x="222" y="699" on="0"/>
        <pt x="332" y="699" on="1"/>
        <pt x="471" y="699" on="0"/>
        <pt x="583" y="540" on="0"/>
        <pt x="583" y="150" on="0"/>
        <pt x="471" y="-9" on="0"/>
        <pt x="332" y="-9" on="1"/>
        <pt x="224" y="-9" on="0"/>
      </contour>
      <contour>
        <pt x="128" y="672" on="1"/>
        <pt x="128" y="17" on="1"/>
        <pt x="308" y="14" on="0"/>
        <pt x="332" y="14" on="1"/>
        <pt x="457" y="14" on="0"/>
        <pt x="557" y="161" on="0"/>
        <pt x="557" y="529" on="0"/>
        <pt x="457" y="676" on="0"/>
        <pt x="332" y="676" on="1"/>
        <pt x="250" y="676" on="0"/>
      </contour>
    </TTGlyph>
    <TTGlyph name="Dcroat" xMin="26" yMin="-9" xMax="586" yMax="699">
      <contour>
        <pt x="106" y="381" on="1"/>
        <pt x="106" y="690" on="1"/>
        <pt x="225" y="699" on="0"/>
        <pt x="335" y="699" on="1"/>
        <pt x="474" y="699" on="0"/>
        <pt x="586" y="540" on="0"/>
        <pt x="586" y="150" on="0"/>
        <pt x="474" y="-9" on="0"/>
        <pt x="335" y="-9" on="1"/>
        <pt x="227" y="-9" on="0"/>
        <pt x="106" y="0" on="1"/>
        <pt x="106" y="361" on="1"/>
        <pt x="26" y="361" on="1"/>
        <pt x="26" y="381" on="1"/>
      </contour>
      <contour>
        <pt x="131" y="361" on="1"/>
        <pt x="131" y="17" on="1"/>
        <pt x="311" y="14" on="0"/>
        <pt x="335" y="14" on="1"/>
        <pt x="460" y="14" on="0"/>
        <pt x="560" y="161" on="0"/>
        <pt x="560" y="529" on="0"/>
        <pt x="460" y="676" on="0"/>
        <pt x="335" y="676" on="1"/>
        <pt x="253" y="676" on="0"/>
        <pt x="131" y="672" on="1"/>
        <pt x="131" y="381" on="1"/>
        <pt x="314" y="381" on="1"/>
        <pt x="314" y="361" on="1"/>
      </contour>
    </TTGlyph>
    <TTGlyph name="Delta" xMin="37" yMin="0" xMax="577" yMax="690">
      <contour>
        <pt x="577" y="22" on="1"/>
        <pt x="577" y="0" on="1"/>
        <pt x="37" y="0" on="1"/>
        <pt x="37" y="22" on="1"/>
        <pt x="293" y="690" on="1"/>
        <pt x="321" y="690" on="1"/>
      </contour>
      <contour>
        <pt x="332" y="596" on="1"/>
        <pt x="307" y="663" on="1"/>
        <pt x="303" y="651" on="0"/>
        <pt x="286" y="606" on="0"/>
        <pt x="282" y="595" on="1"/>
        <pt x="63" y="22" on="1"/>
        <pt x="551" y="22" on="1"/>
      </contour>
    </TTGlyph>
    <TTGlyph name="E" xMin="97" yMin="0" xMax="493" yMax="690">
      <contour>
        <pt x="491" y="22" on="1"/>
        <pt x="493" y="4" on="1"/>
        <pt x="395" y="0" on="0"/>
        <pt x="199" y="0" on="1"/>
        <pt x="155" y="0" on="0"/>
        <pt x="97" y="58" on="0"/>
        <pt x="97" y="102" on="1"/>
        <pt x="97" y="588" on="1"/>
        <pt x="97" y="632" on="0"/>
        <pt x="155" y="690" on="0"/>
        <pt x="199" y="690" on="1"/>
        <pt x="395" y="690" on="0"/>
        <pt x="493" y="686" on="1"/>
        <pt x="491" y="668" on="1"/>
        <pt x="204" y="668" on="1"/>
        <pt x="168" y="668" on="0"/>
        <pt x="122" y="622" on="0"/>
        <pt x="122" y="586" on="1"/>
        <pt x="122" y="380" on="1"/>
        <pt x="450" y="380" on="1"/>
        <pt x="450" y="359" on="1"/>
        <pt x="122" y="359" on="1"/>
        <pt x="122" y="104" on="1"/>
        <pt x="122" y="68" on="0"/>
        <pt x="168" y="22" on="0"/>
        <pt x="204" y="22" on="1"/>
      </contour>
    </TTGlyph>
    <TTGlyph name="Eacute" xMin="97" yMin="0" xMax="493" yMax="919">
      <contour>
        <pt x="276" y="761" on="1"/>
        <pt x="262" y="774" on="1"/>
        <pt x="411" y="919" on="1"/>
        <pt x="429" y="902" on="1"/>
      </contour>
      <contour>
        <pt x="491" y="22" on="1"/>
        <pt x="493" y="4" on="1"/>
        <pt x="395" y="0" on="0"/>
        <pt x="199" y="0" on="1"/>
        <pt x="155" y="0" on="0"/>
        <pt x="97" y="58" on="0"/>
        <pt x="97" y="102" on="1"/>
        <pt x="97" y="588" on="1"/>
        <pt x="97" y="632" on="0"/>
        <pt x="155" y="690" on="0"/>
        <pt x="199" y="690" on="1"/>
        <pt x="395" y="690" on="0"/>
        <pt x="493" y="686" on="1"/>
        <pt x="491" y="668" on="1"/>
        <pt x="204" y="668" on="1"/>
        <pt x="168" y="668" on="0"/>
        <pt x="122" y="622" on="0"/>
        <pt x="122" y="586" on="1"/>
        <pt x="122" y="380" on="1"/>
        <pt x="450" y="380" on="1"/>
        <pt x="450" y="359" on="1"/>
        <pt x="122" y="359" on="1"/>
        <pt x="122" y="104" on="1"/>
        <pt x="122" y="68" on="0"/>
        <pt x="168" y="22" on="0"/>
        <pt x="204" y="22" on="1"/>
      </contour>
    </TTGlyph>
    <TTGlyph name="Ecaron" xMin="97" yMin="0" xMax="493" yMax="905">
      <contour>
        <pt x="302" y="776" on="1"/>
        <pt x="165" y="893" on="1"/>
        <pt x="178" y="905" on="1"/>
        <pt x="307" y="803" on="1"/>
        <pt x="315" y="803" on="1"/>
        <pt x="445" y="905" on="1"/>
        <pt x="457" y="893" on="1"/>
        <pt x="320" y="776" on="1"/>
      </contour>
      <contour>
        <pt x="491" y="22" on="1"/>
        <pt x="493" y="4" on="1"/>
        <pt x="395" y="0" on="0"/>
        <pt x="199" y="0" on="1"/>
        <pt x="155" y="0" on="0"/>
        <pt x="97" y="58" on="0"/>
        <pt x="97" y="102" on="1"/>
        <pt x="97" y="588" on="1"/>
        <pt x="97" y="632" on="0"/>
        <pt x="155" y="690" on="0"/>
        <pt x="199" y="690" on="1"/>
        <pt x="395" y="690" on="0"/>
        <pt x="493" y="686" on="1"/>
        <pt x="491" y="668" on="1"/>
        <pt x="204" y="668" on="1"/>
        <pt x="168" y="668" on="0"/>
        <pt x="122" y="622" on="0"/>
        <pt x="122" y="586" on="1"/>
        <pt x="122" y="380" on="1"/>
        <pt x="450" y="380" on="1"/>
        <pt x="450" y="359" on="1"/>
        <pt x="122" y="359" on="1"/>
        <pt x="122" y="104" on="1"/>
        <pt x="122" y="68" on="0"/>
        <pt x="168" y="22" on="0"/>
        <pt x="204" y="22" on="1"/>
      </contour>
    </TTGlyph>
    <TTGlyph name="Ecircumflex" xMin="97" yMin="0" xMax="493" yMax="905">
      <contour>
        <pt x="176" y="776" on="1"/>
        <pt x="164" y="788" on="1"/>
        <pt x="300" y="905" on="1"/>
        <pt x="318" y="905" on="1"/>
        <pt x="454" y="788" on="1"/>
        <pt x="443" y="776" on="1"/>
        <pt x="313" y="878" on="1"/>
        <pt x="305" y="878" on="1"/>
      </contour>
      <contour>
        <pt x="491" y="22" on="1"/>
        <pt x="493" y="4" on="1"/>
        <pt x="395" y="0" on="0"/>
        <pt x="199" y="0" on="1"/>
        <pt x="155" y="0" on="0"/>
        <pt x="97" y="58" on="0"/>
        <pt x="97" y="102" on="1"/>
        <pt x="97" y="588" on="1"/>
        <pt x="97" y="632" on="0"/>
        <pt x="155" y="690" on="0"/>
        <pt x="199" y="690" on="1"/>
        <pt x="395" y="690" on="0"/>
        <pt x="493" y="686" on="1"/>
        <pt x="491" y="668" on="1"/>
        <pt x="204" y="668" on="1"/>
        <pt x="168" y="668" on="0"/>
        <pt x="122" y="622" on="0"/>
        <pt x="122" y="586" on="1"/>
        <pt x="122" y="380" on="1"/>
        <pt x="450" y="380" on="1"/>
        <pt x="450" y="359" on="1"/>
        <pt x="122" y="359" on="1"/>
        <pt x="122" y="104" on="1"/>
        <pt x="122" y="68" on="0"/>
        <pt x="168" y="22" on="0"/>
        <pt x="204" y="22" on="1"/>
      </contour>
    </TTGlyph>
    <TTGlyph name="Edieresis" xMin="97" yMin="0" xMax="493" yMax="881">
      <contour>
        <pt x="226" y="803" on="1"/>
        <pt x="216" y="803" on="1"/>
        <pt x="206" y="803" on="0"/>
        <pt x="206" y="814" on="1"/>
        <pt x="206" y="870" on="1"/>
        <pt x="206" y="881" on="0"/>
        <pt x="216" y="881" on="1"/>
        <pt x="226" y="881" on="1"/>
        <pt x="236" y="881" on="0"/>
        <pt x="236" y="870" on="1"/>
        <pt x="236" y="814" on="1"/>
        <pt x="236" y="803" on="0"/>
      </contour>
      <contour>
        <pt x="403" y="803" on="1"/>
        <pt x="393" y="803" on="1"/>
        <pt x="383" y="803" on="0"/>
        <pt x="383" y="814" on="1"/>
        <pt x="383" y="870" on="1"/>
        <pt x="383" y="881" on="0"/>
        <pt x="393" y="881" on="1"/>
        <pt x="403" y="881" on="1"/>
        <pt x="413" y="881" on="0"/>
        <pt x="413" y="870" on="1"/>
        <pt x="413" y="814" on="1"/>
        <pt x="413" y="803" on="0"/>
      </contour>
      <contour>
        <pt x="491" y="22" on="1"/>
        <pt x="493" y="4" on="1"/>
        <pt x="395" y="0" on="0"/>
        <pt x="199" y="0" on="1"/>
        <pt x="155" y="0" on="0"/>
        <pt x="97" y="58" on="0"/>
        <pt x="97" y="102" on="1"/>
        <pt x="97" y="588" on="1"/>
        <pt x="97" y="632" on="0"/>
        <pt x="155" y="690" on="0"/>
        <pt x="199" y="690" on="1"/>
        <pt x="395" y="690" on="0"/>
        <pt x="493" y="686" on="1"/>
        <pt x="491" y="668" on="1"/>
        <pt x="204" y="668" on="1"/>
        <pt x="168" y="668" on="0"/>
        <pt x="122" y="622" on="0"/>
        <pt x="122" y="586" on="1"/>
        <pt x="122" y="380" on="1"/>
        <pt x="450" y="380" on="1"/>
        <pt x="450" y="359" on="1"/>
        <pt x="122" y="359" on="1"/>
        <pt x="122" y="104" on="1"/>
        <pt x="122" y="68" on="0"/>
        <pt x="168" y="22" on="0"/>
        <pt x="204" y="22" on="1"/>
      </contour>
    </TTGlyph>
    <TTGlyph name="Edotaccent" xMin="97" yMin="0" xMax="493" yMax="885">
      <contour>
        <pt x="315" y="799" on="1"/>
        <pt x="305" y="799" on="1"/>
        <pt x="293" y="799" on="0"/>
        <pt x="293" y="811" on="1"/>
        <pt x="293" y="873" on="1"/>
        <pt x="293" y="885" on="0"/>
        <pt x="305" y="885" on="1"/>
        <pt x="315" y="885" on="1"/>
        <pt x="327" y="885" on="0"/>
        <pt x="327" y="873" on="1"/>
        <pt x="327" y="811" on="1"/>
        <pt x="327" y="799" on="0"/>
      </contour>
      <contour>
        <pt x="491" y="22" on="1"/>
        <pt x="493" y="4" on="1"/>
        <pt x="395" y="0" on="0"/>
        <pt x="199" y="0" on="1"/>
        <pt x="155" y="0" on="0"/>
        <pt x="97" y="58" on="0"/>
        <pt x="97" y="102" on="1"/>
        <pt x="97" y="588" on="1"/>
        <pt x="97" y="632" on="0"/>
        <pt x="155" y="690" on="0"/>
        <pt x="199" y="690" on="1"/>
        <pt x="395" y="690" on="0"/>
        <pt x="493" y="686" on="1"/>
        <pt x="491" y="668" on="1"/>
        <pt x="204" y="668" on="1"/>
        <pt x="168" y="668" on="0"/>
        <pt x="122" y="622" on="0"/>
        <pt x="122" y="586" on="1"/>
        <pt x="122" y="380" on="1"/>
        <pt x="450" y="380" on="1"/>
        <pt x="450" y="359" on="1"/>
        <pt x="122" y="359" on="1"/>
        <pt x="122" y="104" on="1"/>
        <pt x="122" y="68" on="0"/>
        <pt x="168" y="22" on="0"/>
        <pt x="204" y="22" on="1"/>
      </contour>
    </TTGlyph>
    <TTGlyph name="Egrave" xMin="97" yMin="0" xMax="493" yMax="919">
      <contour>
        <pt x="335" y="761" on="1"/>
        <pt x="182" y="902" on="1"/>
        <pt x="200" y="919" on="1"/>
        <pt x="349" y="774" on="1"/>
      </contour>
      <contour>
        <pt x="491" y="22" on="1"/>
        <pt x="493" y="4" on="1"/>
        <pt x="395" y="0" on="0"/>
        <pt x="199" y="0" on="1"/>
        <pt x="155" y="0" on="0"/>
        <pt x="97" y="58" on="0"/>
        <pt x="97" y="102" on="1"/>
        <pt x="97" y="588" on="1"/>
        <pt x="97" y="632" on="0"/>
        <pt x="155" y="690" on="0"/>
        <pt x="199" y="690" on="1"/>
        <pt x="395" y="690" on="0"/>
        <pt x="493" y="686" on="1"/>
        <pt x="491" y="668" on="1"/>
        <pt x="204" y="668" on="1"/>
        <pt x="168" y="668" on="0"/>
        <pt x="122" y="622" on="0"/>
        <pt x="122" y="586" on="1"/>
        <pt x="122" y="380" on="1"/>
        <pt x="450" y="380" on="1"/>
        <pt x="450" y="359" on="1"/>
        <pt x="122" y="359" on="1"/>
        <pt x="122" y="104" on="1"/>
        <pt x="122" y="68" on="0"/>
        <pt x="168" y="22" on="0"/>
        <pt x="204" y="22" on="1"/>
      </contour>
    </TTGlyph>
    <TTGlyph name="Emacron" xMin="97" yMin="0" xMax="493" yMax="852">
      <contour>
        <pt x="440" y="829" on="1"/>
        <pt x="180" y="829" on="1"/>
        <pt x="180" y="852" on="1"/>
        <pt x="440" y="852" on="1"/>
      </contour>
      <contour>
        <pt x="491" y="22" on="1"/>
        <pt x="493" y="4" on="1"/>
        <pt x="395" y="0" on="0"/>
        <pt x="199" y="0" on="1"/>
        <pt x="155" y="0" on="0"/>
        <pt x="97" y="58" on="0"/>
        <pt x="97" y="102" on="1"/>
        <pt x="97" y="588" on="1"/>
        <pt x="97" y="632" on="0"/>
        <pt x="155" y="690" on="0"/>
        <pt x="199" y="690" on="1"/>
        <pt x="395" y="690" on="0"/>
        <pt x="493" y="686" on="1"/>
        <pt x="491" y="668" on="1"/>
        <pt x="204" y="668" on="1"/>
        <pt x="168" y="668" on="0"/>
        <pt x="122" y="622" on="0"/>
        <pt x="122" y="586" on="1"/>
        <pt x="122" y="380" on="1"/>
        <pt x="450" y="380" on="1"/>
        <pt x="450" y="359" on="1"/>
        <pt x="122" y="359" on="1"/>
        <pt x="122" y="104" on="1"/>
        <pt x="122" y="68" on="0"/>
        <pt x="168" y="22" on="0"/>
        <pt x="204" y="22" on="1"/>
      </contour>
    </TTGlyph>
    <TTGlyph name="Eng" xMin="103" yMin="-222" xMax="585" yMax="690">
      <contour>
        <pt x="585" y="690" on="1"/>
        <pt x="585" y="-101" on="1"/>
        <pt x="585" y="-223" on="0"/>
        <pt x="463" y="-222" on="1"/>
        <pt x="435" y="-222" on="0"/>
        <pt x="399" y="-216" on="1"/>
        <pt x="402" y="-200" on="1"/>
        <pt x="460" y="-200" on="1"/>
        <pt x="560" y="-200" on="0"/>
        <pt x="560" y="-100" on="1"/>
        <pt x="560" y="0" on="1"/>
        <pt x="528" y="0" on="1"/>
        <pt x="516" y="0" on="0"/>
        <pt x="510" y="11" on="1"/>
        <pt x="190" y="600" on="1"/>
        <pt x="184" y="611" on="0"/>
        <pt x="159" y="656" on="0"/>
        <pt x="153" y="668" on="1"/>
        <pt x="128" y="668" on="1"/>
        <pt x="128" y="598" on="1"/>
        <pt x="128" y="0" on="1"/>
        <pt x="103" y="0" on="1"/>
        <pt x="103" y="675" on="1"/>
        <pt x="103" y="690" on="0"/>
        <pt x="118" y="690" on="1"/>
        <pt x="157" y="690" on="1"/>
        <pt x="170" y="690" on="0"/>
        <pt x="175" y="679" on="1"/>
        <pt x="488" y="103" on="1"/>
        <pt x="532" y="22" on="1"/>
        <pt x="560" y="22" on="1"/>
        <pt x="560" y="112" on="1"/>
        <pt x="560" y="690" on="1"/>
      </contour>
    </TTGlyph>
    <TTGlyph name="Eogonek" xMin="97" yMin="-198" xMax="502" yMax="690">
      <contour>
        <pt x="499" y="-178" on="1"/>
        <pt x="502" y="-190" on="1"/>
        <pt x="426" y="-222" on="0"/>
        <pt x="365" y="-174" on="0"/>
        <pt x="384" y="-120" on="1"/>
        <pt x="406" y="-58" on="0"/>
        <pt x="472" y="3" on="1"/>
        <pt x="381" y="0" on="0"/>
        <pt x="199" y="0" on="1"/>
        <pt x="155" y="0" on="0"/>
        <pt x="97" y="58" on="0"/>
        <pt x="97" y="102" on="1"/>
        <pt x="97" y="588" on="1"/>
        <pt x="97" y="632" on="0"/>
        <pt x="155" y="690" on="0"/>
        <pt x="199" y="690" on="1"/>
        <pt x="395" y="690" on="0"/>
        <pt x="493" y="686" on="1"/>
        <pt x="491" y="668" on="1"/>
        <pt x="204" y="668" on="1"/>
        <pt x="168" y="668" on="0"/>
        <pt x="122" y="622" on="0"/>
        <pt x="122" y="586" on="1"/>
        <pt x="122" y="380" on="1"/>
        <pt x="450" y="380" on="1"/>
        <pt x="450" y="359" on="1"/>
        <pt x="122" y="359" on="1"/>
        <pt x="122" y="104" on="1"/>
        <pt x="122" y="68" on="0"/>
        <pt x="168" y="22" on="0"/>
        <pt x="204" y="22" on="1"/>
        <pt x="491" y="22" on="1"/>
        <pt x="493" y="4" on="1"/>
        <pt x="428" y="-61" on="0"/>
        <pt x="406" y="-122" on="1"/>
        <pt x="390" y="-168" on="0"/>
        <pt x="442" y="-199" on="0"/>
      </contour>
    </TTGlyph>
    <TTGlyph name="Eth" xMin="26" yMin="-9" xMax="586" yMax="699">
      <contour>
        <pt x="106" y="381" on="1"/>
        <pt x="106" y="690" on="1"/>
        <pt x="225" y="699" on="0"/>
        <pt x="335" y="699" on="1"/>
        <pt x="474" y="699" on="0"/>
        <pt x="586" y="540" on="0"/>
        <pt x="586" y="150" on="0"/>
        <pt x="474" y="-9" on="0"/>
        <pt x="335" y="-9" on="1"/>
        <pt x="227" y="-9" on="0"/>
        <pt x="106" y="0" on="1"/>
        <pt x="106" y="361" on="1"/>
        <pt x="26" y="361" on="1"/>
        <pt x="26" y="381" on="1"/>
      </contour>
      <contour>
        <pt x="131" y="361" on="1"/>
        <pt x="131" y="17" on="1"/>
        <pt x="311" y="14" on="0"/>
        <pt x="335" y="14" on="1"/>
        <pt x="460" y="14" on="0"/>
        <pt x="560" y="161" on="0"/>
        <pt x="560" y="529" on="0"/>
        <pt x="460" y="676" on="0"/>
        <pt x="335" y="676" on="1"/>
        <pt x="253" y="676" on="0"/>
        <pt x="131" y="672" on="1"/>
        <pt x="131" y="381" on="1"/>
        <pt x="314" y="381" on="1"/>
        <pt x="314" y="361" on="1"/>
      </contour>
    </TTGlyph>
    <TTGlyph name="Euro" xMin="68" yMin="-12" xMax="586" yMax="702">
      <contour>
        <pt x="580" y="24" on="1"/>
        <pt x="586" y="6" on="1"/>
        <pt x="516" y="-12" on="0"/>
        <pt x="418" y="-12" on="1"/>
        <pt x="294" y="-12" on="0"/>
        <pt x="175" y="131" on="0"/>
        <pt x="165" y="276" on="1"/>
        <pt x="68" y="276" on="1"/>
        <pt x="68" y="297" on="1"/>
        <pt x="164" y="297" on="1"/>
        <pt x="163" y="312" on="0"/>
        <pt x="163" y="345" on="1"/>
        <pt x="163" y="371" on="0"/>
        <pt x="165" y="415" on="1"/>
        <pt x="68" y="415" on="1"/>
        <pt x="68" y="436" on="1"/>
        <pt x="167" y="436" on="1"/>
        <pt x="180" y="570" on="0"/>
        <pt x="299" y="702" on="0"/>
        <pt x="418" y="702" on="1"/>
        <pt x="509" y="702" on="0"/>
        <pt x="578" y="685" on="1"/>
        <pt x="572" y="667" on="1"/>
        <pt x="501" y="679" on="0"/>
        <pt x="418" y="679" on="1"/>
        <pt x="312" y="679" on="0"/>
        <pt x="205" y="559" on="0"/>
        <pt x="193" y="436" on="1"/>
        <pt x="482" y="436" on="1"/>
        <pt x="474" y="415" on="1"/>
        <pt x="191" y="415" on="1"/>
        <pt x="189" y="371" on="0"/>
        <pt x="189" y="345" on="1"/>
        <pt x="189" y="312" on="0"/>
        <pt x="190" y="297" on="1"/>
        <pt x="429" y="297" on="1"/>
        <pt x="421" y="276" on="1"/>
        <pt x="191" y="276" on="1"/>
        <pt x="201" y="142" on="0"/>
        <pt x="308" y="11" on="0"/>
        <pt x="418" y="11" on="1"/>
        <pt x="514" y="11" on="0"/>
      </contour>
    </TTGlyph>
    <TTGlyph name="F" xMin="100" yMin="0" xMax="489" yMax="690">
      <contour>
        <pt x="487" y="668" on="1"/>
        <pt x="207" y="668" on="1"/>
        <pt x="171" y="668" on="0"/>
        <pt x="125" y="622" on="0"/>
        <pt x="125" y="586" on="1"/>
        <pt x="125" y="376" on="1"/>
        <pt x="446" y="376" on="1"/>
        <pt x="446" y="355" on="1"/>
        <pt x="125" y="355" on="1"/>
        <pt x="125" y="0" on="1"/>
        <pt x="100" y="0" on="1"/>
        <pt x="100" y="588" on="1"/>
        <pt x="100" y="632" on="0"/>
        <pt x="158" y="690" on="0"/>
        <pt x="202" y="690" on="1"/>
        <pt x="393" y="690" on="0"/>
        <pt x="489" y="686" on="1"/>
      </contour>
    </TTGlyph>
    <TTGlyph name="G" xMin="76" yMin="-12" xMax="541" yMax="702">
      <contour>
        <pt x="541" y="400" on="1"/>
        <pt x="541" y="0" on="1"/>
        <pt x="524" y="0" on="1"/>
        <pt x="518" y="89" on="1"/>
        <pt x="424" y="-12" on="0"/>
        <pt x="304" y="-12" on="1"/>
        <pt x="182" y="-12" on="0"/>
        <pt x="76" y="156" on="0"/>
        <pt x="76" y="345" on="1"/>
        <pt x="76" y="543" on="0"/>
        <pt x="191" y="702" on="0"/>
        <pt x="334" y="702" on="1"/>
        <pt x="446" y="702" on="0"/>
        <pt x="530" y="685" on="1"/>
        <pt x="524" y="667" on="1"/>
        <pt x="440" y="679" on="0"/>
        <pt x="334" y="679" on="1"/>
        <pt x="204" y="679" on="0"/>
        <pt x="102" y="531" on="0"/>
        <pt x="102" y="345" on="1"/>
        <pt x="102" y="168" on="0"/>
        <pt x="196" y="11" on="0"/>
        <pt x="306" y="11" on="1"/>
        <pt x="341" y="11" on="0"/>
        <pt x="401" y="27" on="0"/>
        <pt x="458" y="63" on="0"/>
        <pt x="488" y="87" on="0"/>
        <pt x="516" y="112" on="1"/>
        <pt x="516" y="400" on="1"/>
      </contour>
    </TTGlyph>
    <TTGlyph name="Gbreve" xMin="76" yMin="-12" xMax="541" yMax="873">
      <contour>
        <pt x="441" y="873" on="1"/>
        <pt x="459" y="869" on="1"/>
        <pt x="459" y="816" on="0"/>
        <pt x="386" y="755" on="0"/>
        <pt x="324" y="755" on="1"/>
        <pt x="261" y="755" on="0"/>
        <pt x="187" y="816" on="0"/>
        <pt x="187" y="869" on="1"/>
        <pt x="205" y="873" on="1"/>
        <pt x="205" y="828" on="0"/>
        <pt x="269" y="779" on="0"/>
        <pt x="324" y="779" on="1"/>
        <pt x="378" y="779" on="0"/>
        <pt x="441" y="829" on="0"/>
      </contour>
      <contour>
        <pt x="541" y="400" on="1"/>
        <pt x="541" y="0" on="1"/>
        <pt x="524" y="0" on="1"/>
        <pt x="518" y="89" on="1"/>
        <pt x="424" y="-12" on="0"/>
        <pt x="304" y="-12" on="1"/>
        <pt x="182" y="-12" on="0"/>
        <pt x="76" y="156" on="0"/>
        <pt x="76" y="345" on="1"/>
        <pt x="76" y="543" on="0"/>
        <pt x="191" y="702" on="0"/>
        <pt x="334" y="702" on="1"/>
        <pt x="446" y="702" on="0"/>
        <pt x="530" y="685" on="1"/>
        <pt x="524" y="667" on="1"/>
        <pt x="440" y="679" on="0"/>
        <pt x="334" y="679" on="1"/>
        <pt x="204" y="679" on="0"/>
        <pt x="102" y="531" on="0"/>
        <pt x="102" y="345" on="1"/>
        <pt x="102" y="168" on="0"/>
        <pt x="196" y="11" on="0"/>
        <pt x="306" y="11" on="1"/>
        <pt x="341" y="11" on="0"/>
        <pt x="401" y="27" on="0"/>
        <pt x="458" y="63" on="0"/>
        <pt x="488" y="87" on="0"/>
        <pt x="516" y="112" on="1"/>
        <pt x="516" y="400" on="1"/>
      </contour>
    </TTGlyph>
    <TTGlyph name="Gcommaaccent" xMin="76" yMin="-249" xMax="541" yMax="702">
      <contour>
        <pt x="541" y="400" on="1"/>
        <pt x="541" y="0" on="1"/>
        <pt x="524" y="0" on="1"/>
        <pt x="518" y="89" on="1"/>
        <pt x="424" y="-12" on="0"/>
        <pt x="304" y="-12" on="1"/>
        <pt x="182" y="-12" on="0"/>
        <pt x="76" y="156" on="0"/>
        <pt x="76" y="345" on="1"/>
        <pt x="76" y="543" on="0"/>
        <pt x="191" y="702" on="0"/>
        <pt x="334" y="702" on="1"/>
        <pt x="446" y="702" on="0"/>
        <pt x="530" y="685" on="1"/>
        <pt x="524" y="667" on="1"/>
        <pt x="440" y="679" on="0"/>
        <pt x="334" y="679" on="1"/>
        <pt x="204" y="679" on="0"/>
        <pt x="102" y="531" on="0"/>
        <pt x="102" y="345" on="1"/>
        <pt x="102" y="168" on="0"/>
        <pt x="196" y="11" on="0"/>
        <pt x="306" y="11" on="1"/>
        <pt x="341" y="11" on="0"/>
        <pt x="401" y="27" on="0"/>
        <pt x="458" y="63" on="0"/>
        <pt x="488" y="87" on="0"/>
        <pt x="516" y="112" on="1"/>
        <pt x="516" y="400" on="1"/>
      </contour>
      <contour>
        <pt x="318" y="-65" on="1"/>
        <pt x="326" y="-65" on="1"/>
        <pt x="337" y="-65" on="0"/>
        <pt x="337" y="-76" on="1"/>
        <pt x="337" y="-134" on="1"/>
        <pt x="335" y="-200" on="0"/>
        <pt x="321" y="-249" on="1"/>
        <pt x="310" y="-245" on="1"/>
        <pt x="313" y="-190" on="0"/>
        <pt x="313" y="-143" on="1"/>
        <pt x="310" y="-143" on="0"/>
        <pt x="307" y="-137" on="0"/>
        <pt x="308" y="-134" on="1"/>
        <pt x="308" y="-76" on="1"/>
        <pt x="307" y="-65" on="0"/>
      </contour>
    </TTGlyph>
    <TTGlyph name="Gdotaccent" xMin="76" yMin="-12" xMax="541" yMax="860">
      <contour>
        <pt x="329" y="774" on="1"/>
        <pt x="319" y="774" on="1"/>
        <pt x="307" y="774" on="0"/>
        <pt x="307" y="786" on="1"/>
        <pt x="307" y="848" on="1"/>
        <pt x="307" y="860" on="0"/>
        <pt x="319" y="860" on="1"/>
        <pt x="329" y="860" on="1"/>
        <pt x="341" y="860" on="0"/>
        <pt x="341" y="848" on="1"/>
        <pt x="341" y="786" on="1"/>
        <pt x="341" y="774" on="0"/>
      </contour>
      <contour>
        <pt x="541" y="400" on="1"/>
        <pt x="541" y="0" on="1"/>
        <pt x="524" y="0" on="1"/>
        <pt x="518" y="89" on="1"/>
        <pt x="424" y="-12" on="0"/>
        <pt x="304" y="-12" on="1"/>
        <pt x="182" y="-12" on="0"/>
        <pt x="76" y="156" on="0"/>
        <pt x="76" y="345" on="1"/>
        <pt x="76" y="543" on="0"/>
        <pt x="191" y="702" on="0"/>
        <pt x="334" y="702" on="1"/>
        <pt x="446" y="702" on="0"/>
        <pt x="530" y="685" on="1"/>
        <pt x="524" y="667" on="1"/>
        <pt x="440" y="679" on="0"/>
        <pt x="334" y="679" on="1"/>
        <pt x="204" y="679" on="0"/>
        <pt x="102" y="531" on="0"/>
        <pt x="102" y="345" on="1"/>
        <pt x="102" y="168" on="0"/>
        <pt x="196" y="11" on="0"/>
        <pt x="306" y="11" on="1"/>
        <pt x="341" y="11" on="0"/>
        <pt x="401" y="27" on="0"/>
        <pt x="458" y="63" on="0"/>
        <pt x="488" y="87" on="0"/>
        <pt x="516" y="112" on="1"/>
        <pt x="516" y="400" on="1"/>
      </contour>
    </TTGlyph>
    <TTGlyph name="H" xMin="103" yMin="0" xMax="554" yMax="690">
      <contour>
        <pt x="554" y="690" on="1"/>
        <pt x="554" y="0" on="1"/>
        <pt x="529" y="0" on="1"/>
        <pt x="529" y="359" on="1"/>
        <pt x="128" y="359" on="1"/>
        <pt x="128" y="0" on="1"/>
        <pt x="103" y="0" on="1"/>
        <pt x="103" y="690" on="1"/>
        <pt x="128" y="690" on="1"/>
        <pt x="128" y="381" on="1"/>
        <pt x="529" y="381" on="1"/>
        <pt x="529" y="690" on="1"/>
      </contour>
    </TTGlyph>
    <TTGlyph name="Hbar" xMin="27" yMin="0" xMax="638" yMax="690">
      <contour>
        <pt x="638" y="525" on="1"/>
        <pt x="558" y="525" on="1"/>
        <pt x="558" y="0" on="1"/>
        <pt x="533" y="0" on="1"/>
        <pt x="533" y="359" on="1"/>
        <pt x="132" y="359" on="1"/>
        <pt x="132" y="0" on="1"/>
        <pt x="107" y="0" on="1"/>
        <pt x="107" y="525" on="1"/>
        <pt x="27" y="525" on="1"/>
        <pt x="27" y="545" on="1"/>
        <pt x="107" y="545" on="1"/>
        <pt x="107" y="690" on="1"/>
        <pt x="132" y="690" on="1"/>
        <pt x="132" y="545" on="1"/>
        <pt x="533" y="545" on="1"/>
        <pt x="533" y="690" on="1"/>
        <pt x="558" y="690" on="1"/>
        <pt x="558" y="545" on="1"/>
        <pt x="638" y="545" on="1"/>
      </contour>
      <contour>
        <pt x="533" y="525" on="1"/>
        <pt x="132" y="525" on="1"/>
        <pt x="132" y="381" on="1"/>
        <pt x="533" y="381" on="1"/>
      </contour>
    </TTGlyph>
    <TTGlyph name="I" xMin="103" yMin="0" xMax="128" yMax="690">
      <contour>
        <pt x="128" y="0" on="1"/>
        <pt x="103" y="0" on="1"/>
        <pt x="103" y="690" on="1"/>
        <pt x="128" y="690" on="1"/>
      </contour>
    </TTGlyph>
    <TTGlyph name="IJ" xMin="103" yMin="-6" xMax="455" yMax="690">
      <contour>
        <pt x="128" y="0" on="1"/>
        <pt x="103" y="0" on="1"/>
        <pt x="103" y="690" on="1"/>
        <pt x="128" y="690" on="1"/>
      </contour>
      <contour>
        <pt x="455" y="690" on="1"/>
        <pt x="455" y="115" on="1"/>
        <pt x="455" y="-7" on="0"/>
        <pt x="333" y="-6" on="1"/>
        <pt x="305" y="-6" on="0"/>
        <pt x="269" y="0" on="1"/>
        <pt x="272" y="16" on="1"/>
        <pt x="330" y="16" on="1"/>
        <pt x="430" y="16" on="0"/>
        <pt x="430" y="116" on="1"/>
        <pt x="430" y="690" on="1"/>
      </contour>
    </TTGlyph>
    <TTGlyph name="Iacute" xMin="67" yMin="0" xMax="234" yMax="894">
      <contour>
        <pt x="234" y="877" on="1"/>
        <pt x="81" y="736" on="1"/>
        <pt x="67" y="749" on="1"/>
        <pt x="216" y="894" on="1"/>
      </contour>
      <contour>
        <pt x="128" y="0" on="1"/>
        <pt x="103" y="0" on="1"/>
        <pt x="103" y="690" on="1"/>
        <pt x="128" y="690" on="1"/>
      </contour>
    </TTGlyph>
    <TTGlyph name="Icircumflex" xMin="-31" yMin="0" xMax="259" yMax="880">
      <contour>
        <pt x="259" y="763" on="1"/>
        <pt x="248" y="751" on="1"/>
        <pt x="118" y="853" on="1"/>
        <pt x="110" y="853" on="1"/>
        <pt x="-19" y="751" on="1"/>
        <pt x="-31" y="763" on="1"/>
        <pt x="105" y="880" on="1"/>
        <pt x="123" y="880" on="1"/>
      </contour>
      <contour>
        <pt x="128" y="0" on="1"/>
        <pt x="103" y="0" on="1"/>
        <pt x="103" y="690" on="1"/>
        <pt x="128" y="690" on="1"/>
      </contour>
    </TTGlyph>
    <TTGlyph name="Idieresis" xMin="11" yMin="0" xMax="218" yMax="856">
      <contour>
        <pt x="21" y="856" on="1"/>
        <pt x="31" y="856" on="1"/>
        <pt x="41" y="856" on="0"/>
        <pt x="41" y="845" on="1"/>
        <pt x="41" y="789" on="1"/>
        <pt x="41" y="778" on="0"/>
        <pt x="31" y="778" on="1"/>
        <pt x="21" y="778" on="1"/>
        <pt x="11" y="778" on="0"/>
        <pt x="11" y="789" on="1"/>
        <pt x="11" y="845" on="1"/>
        <pt x="11" y="856" on="0"/>
      </contour>
      <contour>
        <pt x="198" y="856" on="1"/>
        <pt x="208" y="856" on="1"/>
        <pt x="218" y="856" on="0"/>
        <pt x="218" y="845" on="1"/>
        <pt x="218" y="789" on="1"/>
        <pt x="218" y="778" on="0"/>
        <pt x="208" y="778" on="1"/>
        <pt x="198" y="778" on="1"/>
        <pt x="188" y="778" on="0"/>
        <pt x="188" y="789" on="1"/>
        <pt x="188" y="845" on="1"/>
        <pt x="188" y="856" on="0"/>
      </contour>
      <contour>
        <pt x="128" y="0" on="1"/>
        <pt x="103" y="0" on="1"/>
        <pt x="103" y="690" on="1"/>
        <pt x="128" y="690" on="1"/>
      </contour>
    </TTGlyph>
    <TTGlyph name="Idotaccent" xMin="98" yMin="0" xMax="132" yMax="860">
      <contour>
        <pt x="110" y="860" on="1"/>
        <pt x="120" y="860" on="1"/>
        <pt x="132" y="860" on="0"/>
        <pt x="132" y="848" on="1"/>
        <pt x="132" y="786" on="1"/>
        <pt x="132" y="774" on="0"/>
        <pt x="120" y="774" on="1"/>
        <pt x="110" y="774" on="1"/>
        <pt x="98" y="774" on="0"/>
        <pt x="98" y="786" on="1"/>
        <pt x="98" y="848" on="1"/>
        <pt x="98" y="860" on="0"/>
      </contour>
      <contour>
        <pt x="128" y="0" on="1"/>
        <pt x="103" y="0" on="1"/>
        <pt x="103" y="690" on="1"/>
        <pt x="128" y="690" on="1"/>
      </contour>
    </TTGlyph>
    <TTGlyph name="Igrave" xMin="-13" yMin="0" xMax="154" yMax="894">
      <contour>
        <pt x="154" y="749" on="1"/>
        <pt x="140" y="736" on="1"/>
        <pt x="-13" y="877" on="1"/>
        <pt x="5" y="894" on="1"/>
      </contour>
      <contour>
        <pt x="128" y="0" on="1"/>
        <pt x="103" y="0" on="1"/>
        <pt x="103" y="690" on="1"/>
        <pt x="128" y="690" on="1"/>
      </contour>
    </TTGlyph>
    <TTGlyph name="Imacron" xMin="-15" yMin="0" xMax="245" yMax="827">
      <contour>
        <pt x="245" y="804" on="1"/>
        <pt x="-15" y="804" on="1"/>
        <pt x="-15" y="827" on="1"/>
        <pt x="245" y="827" on="1"/>
      </contour>
      <contour>
        <pt x="128" y="0" on="1"/>
        <pt x="103" y="0" on="1"/>
        <pt x="103" y="690" on="1"/>
        <pt x="128" y="690" on="1"/>
      </contour>
    </TTGlyph>
    <TTGlyph name="Iogonek" xMin="19" yMin="-202" xMax="137" yMax="690">
      <contour>
        <pt x="134" y="-182" on="1"/>
        <pt x="137" y="-194" on="1"/>
        <pt x="61" y="-226" on="0"/>
        <pt x="0" y="-178" on="0"/>
        <pt x="19" y="-124" on="1"/>
        <pt x="41" y="-61" on="0"/>
        <pt x="108" y="0" on="1"/>
        <pt x="103" y="0" on="1"/>
        <pt x="103" y="690" on="1"/>
        <pt x="128" y="690" on="1"/>
        <pt x="128" y="0" on="1"/>
        <pt x="63" y="-65" on="0"/>
        <pt x="41" y="-126" on="1"/>
        <pt x="25" y="-172" on="0"/>
        <pt x="77" y="-203" on="0"/>
      </contour>
    </TTGlyph>
    <TTGlyph name="J" xMin="38" yMin="-6" xMax="224" yMax="690">
      <contour>
        <pt x="224" y="690" on="1"/>
        <pt x="224" y="115" on="1"/>
        <pt x="224" y="-7" on="0"/>
        <pt x="102" y="-6" on="1"/>
        <pt x="74" y="-6" on="0"/>
        <pt x="38" y="0" on="1"/>
        <pt x="41" y="16" on="1"/>
        <pt x="99" y="16" on="1"/>
        <pt x="199" y="16" on="0"/>
        <pt x="199" y="116" on="1"/>
        <pt x="199" y="690" on="1"/>
      </contour>
    </TTGlyph>
    <TTGlyph name="K" xMin="103" yMin="0" xMax="529" yMax="690">
      <contour>
        <pt x="239" y="349" on="1"/>
        <pt x="125" y="349" on="1"/>
        <pt x="127" y="318" on="0"/>
        <pt x="127" y="263" on="1"/>
        <pt x="127" y="0" on="1"/>
        <pt x="103" y="0" on="1"/>
        <pt x="103" y="690" on="1"/>
        <pt x="127" y="690" on="1"/>
        <pt x="127" y="454" on="1"/>
        <pt x="127" y="431" on="0"/>
        <pt x="125" y="371" on="1"/>
        <pt x="239" y="371" on="1"/>
        <pt x="482" y="690" on="1"/>
        <pt x="512" y="690" on="1"/>
        <pt x="281" y="385" on="1"/>
        <pt x="270" y="370" on="0"/>
        <pt x="259" y="361" on="1"/>
        <pt x="259" y="359" on="1"/>
        <pt x="277" y="341" on="0"/>
        <pt x="281" y="336" on="1"/>
        <pt x="529" y="0" on="1"/>
        <pt x="499" y="0" on="1"/>
      </contour>
    </TTGlyph>
    <TTGlyph name="Kcommaaccent" xMin="103" yMin="-249" xMax="529" yMax="690">
      <contour>
        <pt x="529" y="0" on="1"/>
        <pt x="499" y="0" on="1"/>
        <pt x="239" y="349" on="1"/>
        <pt x="125" y="349" on="1"/>
        <pt x="127" y="318" on="0"/>
        <pt x="127" y="263" on="1"/>
        <pt x="127" y="0" on="1"/>
        <pt x="103" y="0" on="1"/>
        <pt x="103" y="690" on="1"/>
        <pt x="127" y="690" on="1"/>
        <pt x="127" y="454" on="1"/>
        <pt x="127" y="431" on="0"/>
        <pt x="125" y="371" on="1"/>
        <pt x="239" y="371" on="1"/>
        <pt x="482" y="690" on="1"/>
        <pt x="512" y="690" on="1"/>
        <pt x="281" y="385" on="1"/>
        <pt x="270" y="370" on="0"/>
        <pt x="259" y="361" on="1"/>
        <pt x="259" y="359" on="1"/>
        <pt x="277" y="341" on="0"/>
        <pt x="281" y="336" on="1"/>
      </contour>
      <contour>
        <pt x="301" y="-65" on="1"/>
        <pt x="309" y="-65" on="1"/>
        <pt x="320" y="-65" on="0"/>
        <pt x="320" y="-76" on="1"/>
        <pt x="320" y="-134" on="1"/>
        <pt x="318" y="-200" on="0"/>
        <pt x="304" y="-249" on="1"/>
        <pt x="293" y="-245" on="1"/>
        <pt x="296" y="-190" on="0"/>
        <pt x="296" y="-143" on="1"/>
        <pt x="293" y="-143" on="0"/>
        <pt x="290" y="-137" on="0"/>
        <pt x="291" y="-134" on="1"/>
        <pt x="291" y="-76" on="1"/>
        <pt x="290" y="-65" on="0"/>
      </contour>
    </TTGlyph>
    <TTGlyph name="L" xMin="100" yMin="0" xMax="479" yMax="690">
      <contour>
        <pt x="125" y="690" on="1"/>
        <pt x="125" y="104" on="1"/>
        <pt x="125" y="68" on="0"/>
        <pt x="171" y="22" on="0"/>
        <pt x="207" y="22" on="1"/>
        <pt x="479" y="22" on="1"/>
        <pt x="479" y="4" on="1"/>
        <pt x="387" y="0" on="0"/>
        <pt x="202" y="0" on="1"/>
        <pt x="158" y="0" on="0"/>
        <pt x="100" y="58" on="0"/>
        <pt x="100" y="102" on="1"/>
        <pt x="100" y="690" on="1"/>
      </contour>
    </TTGlyph>
    <TTGlyph name="Lacute" xMin="65" yMin="0" xMax="479" yMax="894">
      <contour>
        <pt x="232" y="877" on="1"/>
        <pt x="79" y="736" on="1"/>
        <pt x="65" y="749" on="1"/>
        <pt x="214" y="894" on="1"/>
      </contour>
      <contour>
        <pt x="125" y="690" on="1"/>
        <pt x="125" y="104" on="1"/>
        <pt x="125" y="68" on="0"/>
        <pt x="171" y="22" on="0"/>
        <pt x="207" y="22" on="1"/>
        <pt x="479" y="22" on="1"/>
        <pt x="479" y="4" on="1"/>
        <pt x="387" y="0" on="0"/>
        <pt x="202" y="0" on="1"/>
        <pt x="158" y="0" on="0"/>
        <pt x="100" y="58" on="0"/>
        <pt x="100" y="102" on="1"/>
        <pt x="100" y="690" on="1"/>
      </contour>
    </TTGlyph>
    <TTGlyph name="Lcaron" xMin="100" yMin="0" xMax="479" yMax="690">
      <contour>
        <pt x="285" y="690" on="1"/>
        <pt x="293" y="690" on="1"/>
        <pt x="304" y="690" on="0"/>
        <pt x="304" y="679" on="1"/>
        <pt x="304" y="621" on="1"/>
        <pt x="302" y="555" on="0"/>
        <pt x="288" y="506" on="1"/>
        <pt x="277" y="510" on="1"/>
        <pt x="280" y="565" on="0"/>
        <pt x="280" y="612" on="1"/>
        <pt x="277" y="612" on="0"/>
        <pt x="274" y="618" on="0"/>
        <pt x="275" y="621" on="1"/>
        <pt x="275" y="679" on="1"/>
        <pt x="274" y="690" on="0"/>
      </contour>
      <contour>
        <pt x="125" y="690" on="1"/>
        <pt x="125" y="104" on="1"/>
        <pt x="125" y="68" on="0"/>
        <pt x="171" y="22" on="0"/>
        <pt x="207" y="22" on="1"/>
        <pt x="479" y="22" on="1"/>
        <pt x="479" y="4" on="1"/>
        <pt x="387" y="0" on="0"/>
        <pt x="202" y="0" on="1"/>
        <pt x="158" y="0" on="0"/>
        <pt x="100" y="58" on="0"/>
        <pt x="100" y="102" on="1"/>
        <pt x="100" y="690" on="1"/>
      </contour>
    </TTGlyph>
    <TTGlyph name="Lcommaaccent" xMin="100" yMin="-259" xMax="479" yMax="690">
      <contour>
        <pt x="125" y="690" on="1"/>
        <pt x="125" y="104" on="1"/>
        <pt x="125" y="68" on="0"/>
        <pt x="171" y="22" on="0"/>
        <pt x="207" y="22" on="1"/>
        <pt x="479" y="22" on="1"/>
        <pt x="479" y="4" on="1"/>
        <pt x="387" y="0" on="0"/>
        <pt x="202" y="0" on="1"/>
        <pt x="158" y="0" on="0"/>
        <pt x="100" y="58" on="0"/>
        <pt x="100" y="102" on="1"/>
        <pt x="100" y="690" on="1"/>
      </contour>
      <contour>
        <pt x="297" y="-75" on="1"/>
        <pt x="305" y="-75" on="1"/>
        <pt x="316" y="-75" on="0"/>
        <pt x="316" y="-86" on="1"/>
        <pt x="316" y="-144" on="1"/>
        <pt x="314" y="-210" on="0"/>
        <pt x="300" y="-259" on="1"/>
        <pt x="289" y="-255" on="1"/>
        <pt x="292" y="-199" on="0"/>
        <pt x="292" y="-153" on="1"/>
        <pt x="289" y="-153" on="0"/>
        <pt x="286" y="-147" on="0"/>
        <pt x="287" y="-144" on="1"/>
        <pt x="287" y="-86" on="1"/>
        <pt x="286" y="-75" on="0"/>
      </contour>
    </TTGlyph>
    <TTGlyph name="Ldot" xMin="100" yMin="0" xMax="479" yMax="690">
      <contour>
        <pt x="125" y="690" on="1"/>
        <pt x="125" y="104" on="1"/>
        <pt x="125" y="68" on="0"/>
        <pt x="171" y="22" on="0"/>
        <pt x="207" y="22" on="1"/>
        <pt x="479" y="22" on="1"/>
        <pt x="479" y="4" on="1"/>
        <pt x="387" y="0" on="0"/>
        <pt x="202" y="0" on="1"/>
        <pt x="158" y="0" on="0"/>
        <pt x="100" y="58" on="0"/>
        <pt x="100" y="102" on="1"/>
        <pt x="100" y="690" on="1"/>
      </contour>
      <contour>
        <pt x="373" y="331" on="1"/>
        <pt x="363" y="331" on="1"/>
        <pt x="351" y="331" on="0"/>
        <pt x="351" y="343" on="1"/>
        <pt x="351" y="405" on="1"/>
        <pt x="351" y="417" on="0"/>
        <pt x="363" y="417" on="1"/>
        <pt x="373" y="417" on="1"/>
        <pt x="385" y="417" on="0"/>
        <pt x="385" y="405" on="1"/>
        <pt x="385" y="343" on="1"/>
        <pt x="385" y="331" on="0"/>
      </contour>
    </TTGlyph>
    <TTGlyph name="Lslash" xMin="27" yMin="0" xMax="483" yMax="690">
      <contour>
        <pt x="483" y="22" on="1"/>
        <pt x="483" y="4" on="1"/>
        <pt x="391" y="0" on="0"/>
        <pt x="206" y="0" on="1"/>
        <pt x="162" y="0" on="0"/>
        <pt x="104" y="58" on="0"/>
        <pt x="104" y="102" on="1"/>
        <pt x="104" y="357" on="1"/>
        <pt x="27" y="323" on="1"/>
        <pt x="27" y="344" on="1"/>
        <pt x="104" y="378" on="1"/>
        <pt x="104" y="690" on="1"/>
        <pt x="129" y="690" on="1"/>
        <pt x="129" y="389" on="1"/>
        <pt x="258" y="446" on="1"/>
        <pt x="258" y="425" on="1"/>
        <pt x="129" y="368" on="1"/>
        <pt x="129" y="104" on="1"/>
        <pt x="129" y="68" on="0"/>
        <pt x="175" y="22" on="0"/>
        <pt x="211" y="22" on="1"/>
      </contour>
    </TTGlyph>
    <TTGlyph name="M" xMin="88" yMin="0" xMax="766" yMax="690">
      <contour>
        <pt x="679" y="690" on="1"/>
        <pt x="721" y="690" on="1"/>
        <pt x="736" y="690" on="0"/>
        <pt x="736" y="675" on="1"/>
        <pt x="766" y="0" on="1"/>
        <pt x="741" y="0" on="1"/>
        <pt x="711" y="668" on="1"/>
        <pt x="687" y="668" on="1"/>
        <pt x="461" y="69" on="1"/>
        <pt x="458" y="60" on="0"/>
        <pt x="448" y="60" on="1"/>
        <pt x="406" y="60" on="1"/>
        <pt x="396" y="60" on="0"/>
        <pt x="393" y="69" on="1"/>
        <pt x="167" y="668" on="1"/>
        <pt x="143" y="668" on="1"/>
        <pt x="113" y="0" on="1"/>
        <pt x="88" y="0" on="1"/>
        <pt x="118" y="675" on="1"/>
        <pt x="118" y="690" on="0"/>
        <pt x="133" y="690" on="1"/>
        <pt x="175" y="690" on="1"/>
        <pt x="185" y="690" on="0"/>
        <pt x="188" y="681" on="1"/>
        <pt x="379" y="176" on="1"/>
        <pt x="385" y="160" on="0"/>
        <pt x="408" y="98" on="0"/>
        <pt x="414" y="82" on="1"/>
        <pt x="440" y="82" on="1"/>
        <pt x="476" y="178" on="1"/>
        <pt x="666" y="681" on="1"/>
        <pt x="669" y="690" on="0"/>
      </contour>
    </TTGlyph>
    <TTGlyph name="N" xMin="103" yMin="0" xMax="585" yMax="690">
      <contour>
        <pt x="585" y="690" on="1"/>
        <pt x="585" y="15" on="1"/>
        <pt x="585" y="0" on="0"/>
        <pt x="570" y="0" on="1"/>
        <pt x="528" y="0" on="1"/>
        <pt x="516" y="0" on="0"/>
        <pt x="510" y="11" on="1"/>
        <pt x="190" y="600" on="1"/>
        <pt x="184" y="611" on="0"/>
        <pt x="159" y="656" on="0"/>
        <pt x="153" y="668" on="1"/>
        <pt x="128" y="668" on="1"/>
        <pt x="128" y="599" on="1"/>
        <pt x="128" y="0" on="1"/>
        <pt x="103" y="0" on="1"/>
        <pt x="103" y="675" on="1"/>
        <pt x="103" y="690" on="0"/>
        <pt x="118" y="690" on="1"/>
        <pt x="157" y="690" on="1"/>
        <pt x="170" y="690" on="0"/>
        <pt x="175" y="679" on="1"/>
        <pt x="488" y="103" on="1"/>
        <pt x="532" y="22" on="1"/>
        <pt x="560" y="22" on="1"/>
        <pt x="560" y="112" on="1"/>
        <pt x="560" y="690" on="1"/>
      </contour>
    </TTGlyph>
    <TTGlyph name="Nacute" xMin="103" yMin="0" xMax="585" yMax="894">
      <contour>
        <pt x="477" y="877" on="1"/>
        <pt x="324" y="736" on="1"/>
        <pt x="310" y="749" on="1"/>
        <pt x="459" y="894" on="1"/>
      </contour>
      <contour>
        <pt x="585" y="690" on="1"/>
        <pt x="585" y="15" on="1"/>
        <pt x="585" y="0" on="0"/>
        <pt x="570" y="0" on="1"/>
        <pt x="528" y="0" on="1"/>
        <pt x="516" y="0" on="0"/>
        <pt x="510" y="11" on="1"/>
        <pt x="190" y="600" on="1"/>
        <pt x="184" y="611" on="0"/>
        <pt x="159" y="656" on="0"/>
        <pt x="153" y="668" on="1"/>
        <pt x="128" y="668" on="1"/>
        <pt x="128" y="599" on="1"/>
        <pt x="128" y="0" on="1"/>
        <pt x="103" y="0" on="1"/>
        <pt x="103" y="675" on="1"/>
        <pt x="103" y="690" on="0"/>
        <pt x="118" y="690" on="1"/>
        <pt x="157" y="690" on="1"/>
        <pt x="170" y="690" on="0"/>
        <pt x="175" y="679" on="1"/>
        <pt x="488" y="103" on="1"/>
        <pt x="532" y="22" on="1"/>
        <pt x="560" y="22" on="1"/>
        <pt x="560" y="112" on="1"/>
        <pt x="560" y="690" on="1"/>
      </contour>
    </TTGlyph>
    <TTGlyph name="Ncaron" xMin="103" yMin="0" xMax="585" yMax="880">
      <contour>
        <pt x="505" y="868" on="1"/>
        <pt x="368" y="751" on="1"/>
        <pt x="350" y="751" on="1"/>
        <pt x="213" y="868" on="1"/>
        <pt x="226" y="880" on="1"/>
        <pt x="355" y="778" on="1"/>
        <pt x="363" y="778" on="1"/>
        <pt x="493" y="880" on="1"/>
      </contour>
      <contour>
        <pt x="585" y="690" on="1"/>
        <pt x="585" y="15" on="1"/>
        <pt x="585" y="0" on="0"/>
        <pt x="570" y="0" on="1"/>
        <pt x="528" y="0" on="1"/>
        <pt x="516" y="0" on="0"/>
        <pt x="510" y="11" on="1"/>
        <pt x="190" y="600" on="1"/>
        <pt x="184" y="611" on="0"/>
        <pt x="159" y="656" on="0"/>
        <pt x="153" y="668" on="1"/>
        <pt x="128" y="668" on="1"/>
        <pt x="128" y="599" on="1"/>
        <pt x="128" y="0" on="1"/>
        <pt x="103" y="0" on="1"/>
        <pt x="103" y="675" on="1"/>
        <pt x="103" y="690" on="0"/>
        <pt x="118" y="690" on="1"/>
        <pt x="157" y="690" on="1"/>
        <pt x="170" y="690" on="0"/>
        <pt x="175" y="679" on="1"/>
        <pt x="488" y="103" on="1"/>
        <pt x="532" y="22" on="1"/>
        <pt x="560" y="22" on="1"/>
        <pt x="560" y="112" on="1"/>
        <pt x="560" y="690" on="1"/>
      </contour>
    </TTGlyph>
    <TTGlyph name="Ncommaaccent" xMin="103" yMin="-249" xMax="585" yMax="690">
      <contour>
        <pt x="585" y="690" on="1"/>
        <pt x="585" y="15" on="1"/>
        <pt x="585" y="0" on="0"/>
        <pt x="570" y="0" on="1"/>
        <pt x="528" y="0" on="1"/>
        <pt x="516" y="0" on="0"/>
        <pt x="510" y="11" on="1"/>
        <pt x="190" y="600" on="1"/>
        <pt x="184" y="611" on="0"/>
        <pt x="159" y="656" on="0"/>
        <pt x="153" y="668" on="1"/>
        <pt x="128" y="668" on="1"/>
        <pt x="128" y="599" on="1"/>
        <pt x="128" y="0" on="1"/>
        <pt x="103" y="0" on="1"/>
        <pt x="103" y="675" on="1"/>
        <pt x="103" y="690" on="0"/>
        <pt x="118" y="690" on="1"/>
        <pt x="157" y="690" on="1"/>
        <pt x="170" y="690" on="0"/>
        <pt x="175" y="679" on="1"/>
        <pt x="488" y="103" on="1"/>
        <pt x="532" y="22" on="1"/>
        <pt x="560" y="22" on="1"/>
        <pt x="560" y="112" on="1"/>
        <pt x="560" y="690" on="1"/>
      </contour>
      <contour>
        <pt x="326" y="-65" on="1"/>
        <pt x="334" y="-65" on="1"/>
        <pt x="345" y="-65" on="0"/>
        <pt x="345" y="-76" on="1"/>
        <pt x="345" y="-134" on="1"/>
        <pt x="343" y="-200" on="0"/>
        <pt x="329" y="-249" on="1"/>
        <pt x="318" y="-245" on="1"/>
        <pt x="321" y="-190" on="0"/>
        <pt x="321" y="-143" on="1"/>
        <pt x="318" y="-143" on="0"/>
        <pt x="315" y="-137" on="0"/>
        <pt x="316" y="-134" on="1"/>
        <pt x="316" y="-76" on="1"/>
        <pt x="315" y="-65" on="0"/>
      </contour>
    </TTGlyph>
    <TTGlyph name="Ntilde" xMin="103" yMin="0" xMax="585" yMax="866">
      <contour>
        <pt x="230" y="777" on="1"/>
        <pt x="213" y="777" on="1"/>
        <pt x="212" y="822" on="0"/>
        <pt x="252" y="869" on="0"/>
        <pt x="288" y="866" on="1"/>
        <pt x="313" y="864" on="0"/>
        <pt x="358" y="832" on="0"/>
        <pt x="403" y="800" on="0"/>
        <pt x="428" y="798" on="1"/>
        <pt x="459" y="796" on="0"/>
        <pt x="486" y="826" on="0"/>
        <pt x="486" y="861" on="1"/>
        <pt x="503" y="861" on="1"/>
        <pt x="504" y="818" on="0"/>
        <pt x="464" y="773" on="0"/>
        <pt x="392" y="779" on="0"/>
        <pt x="311" y="842" on="0"/>
        <pt x="288" y="844" on="1"/>
        <pt x="258" y="847" on="0"/>
        <pt x="230" y="814" on="0"/>
      </contour>
      <contour>
        <pt x="585" y="690" on="1"/>
        <pt x="585" y="15" on="1"/>
        <pt x="585" y="0" on="0"/>
        <pt x="570" y="0" on="1"/>
        <pt x="528" y="0" on="1"/>
        <pt x="516" y="0" on="0"/>
        <pt x="510" y="11" on="1"/>
        <pt x="190" y="600" on="1"/>
        <pt x="184" y="611" on="0"/>
        <pt x="159" y="656" on="0"/>
        <pt x="153" y="668" on="1"/>
        <pt x="128" y="668" on="1"/>
        <pt x="128" y="599" on="1"/>
        <pt x="128" y="0" on="1"/>
        <pt x="103" y="0" on="1"/>
        <pt x="103" y="675" on="1"/>
        <pt x="103" y="690" on="0"/>
        <pt x="118" y="690" on="1"/>
        <pt x="157" y="690" on="1"/>
        <pt x="170" y="690" on="0"/>
        <pt x="175" y="679" on="1"/>
        <pt x="488" y="103" on="1"/>
        <pt x="532" y="22" on="1"/>
        <pt x="560" y="22" on="1"/>
        <pt x="560" y="112" on="1"/>
        <pt x="560" y="690" on="1"/>
      </contour>
    </TTGlyph>
    <TTGlyph name="O" xMin="76" yMin="-12" xMax="586" yMax="702">
      <contour>
        <pt x="189" y="702" on="0"/>
        <pt x="473" y="702" on="0"/>
        <pt x="586" y="543" on="0"/>
        <pt x="586" y="147" on="0"/>
        <pt x="473" y="-12" on="0"/>
        <pt x="189" y="-12" on="0"/>
        <pt x="76" y="147" on="0"/>
        <pt x="76" y="543" on="0"/>
      </contour>
      <contour>
        <pt x="459" y="679" on="0"/>
        <pt x="203" y="679" on="0"/>
        <pt x="102" y="531" on="0"/>
        <pt x="102" y="159" on="0"/>
        <pt x="203" y="11" on="0"/>
        <pt x="459" y="11" on="0"/>
        <pt x="560" y="159" on="0"/>
        <pt x="560" y="531" on="0"/>
      </contour>
    </TTGlyph>
    <TTGlyph name="OE" xMin="76" yMin="-12" xMax="831" yMax="702">
      <contour>
        <pt x="831" y="668" on="1"/>
        <pt x="562" y="668" on="1"/>
        <pt x="526" y="668" on="0"/>
        <pt x="480" y="622" on="0"/>
        <pt x="480" y="586" on="1"/>
        <pt x="480" y="380" on="1"/>
        <pt x="788" y="380" on="1"/>
        <pt x="788" y="359" on="1"/>
        <pt x="480" y="359" on="1"/>
        <pt x="480" y="104" on="1"/>
        <pt x="480" y="68" on="0"/>
        <pt x="526" y="22" on="0"/>
        <pt x="562" y="22" on="1"/>
        <pt x="831" y="22" on="1"/>
        <pt x="831" y="4" on="1"/>
        <pt x="739" y="0" on="0"/>
        <pt x="557" y="0" on="1"/>
        <pt x="521" y="0" on="0"/>
        <pt x="492" y="21" on="1"/>
        <pt x="418" y="-12" on="0"/>
        <pt x="331" y="-12" on="1"/>
        <pt x="189" y="-12" on="0"/>
        <pt x="76" y="147" on="0"/>
        <pt x="76" y="543" on="0"/>
        <pt x="189" y="702" on="0"/>
        <pt x="331" y="702" on="1"/>
        <pt x="382" y="702" on="0"/>
        <pt x="448" y="688" on="0"/>
        <pt x="492" y="669" on="1"/>
        <pt x="519" y="690" on="0"/>
        <pt x="557" y="690" on="1"/>
        <pt x="739" y="690" on="0"/>
        <pt x="831" y="686" on="1"/>
      </contour>
      <contour>
        <pt x="455" y="102" on="1"/>
        <pt x="455" y="588" on="1"/>
        <pt x="455" y="625" on="0"/>
        <pt x="475" y="651" on="1"/>
        <pt x="408" y="679" on="0"/>
        <pt x="331" y="679" on="1"/>
        <pt x="203" y="679" on="0"/>
        <pt x="102" y="533" on="0"/>
        <pt x="102" y="345" on="1"/>
        <pt x="102" y="159" on="0"/>
        <pt x="203" y="11" on="0"/>
        <pt x="331" y="11" on="1"/>
        <pt x="408" y="11" on="0"/>
        <pt x="475" y="39" on="1"/>
        <pt x="455" y="65" on="0"/>
      </contour>
    </TTGlyph>
    <TTGlyph name="Oacute" xMin="76" yMin="-12" xMax="586" yMax="894">
      <contour>
        <pt x="451" y="877" on="1"/>
        <pt x="298" y="736" on="1"/>
        <pt x="284" y="749" on="1"/>
        <pt x="433" y="894" on="1"/>
      </contour>
      <contour>
        <pt x="189" y="702" on="0"/>
        <pt x="473" y="702" on="0"/>
        <pt x="586" y="543" on="0"/>
        <pt x="586" y="147" on="0"/>
        <pt x="473" y="-12" on="0"/>
        <pt x="189" y="-12" on="0"/>
        <pt x="76" y="147" on="0"/>
        <pt x="76" y="543" on="0"/>
      </contour>
      <contour>
        <pt x="459" y="679" on="0"/>
        <pt x="203" y="679" on="0"/>
        <pt x="102" y="531" on="0"/>
        <pt x="102" y="159" on="0"/>
        <pt x="203" y="11" on="0"/>
        <pt x="459" y="11" on="0"/>
        <pt x="560" y="159" on="0"/>
        <pt x="560" y="531" on="0"/>
      </contour>
    </TTGlyph>
    <TTGlyph name="Ocircumflex" xMin="76" yMin="-12" xMax="586" yMax="880">
      <contour>
        <pt x="476" y="763" on="1"/>
        <pt x="465" y="751" on="1"/>
        <pt x="335" y="853" on="1"/>
        <pt x="327" y="853" on="1"/>
        <pt x="198" y="751" on="1"/>
        <pt x="186" y="763" on="1"/>
        <pt x="322" y="880" on="1"/>
        <pt x="340" y="880" on="1"/>
      </contour>
      <contour>
        <pt x="189" y="702" on="0"/>
        <pt x="473" y="702" on="0"/>
        <pt x="586" y="543" on="0"/>
        <pt x="586" y="147" on="0"/>
        <pt x="473" y="-12" on="0"/>
        <pt x="189" y="-12" on="0"/>
        <pt x="76" y="147" on="0"/>
        <pt x="76" y="543" on="0"/>
      </contour>
      <contour>
        <pt x="459" y="679" on="0"/>
        <pt x="203" y="679" on="0"/>
        <pt x="102" y="531" on="0"/>
        <pt x="102" y="159" on="0"/>
        <pt x="203" y="11" on="0"/>
        <pt x="459" y="11" on="0"/>
        <pt x="560" y="159" on="0"/>
        <pt x="560" y="531" on="0"/>
      </contour>
    </TTGlyph>
    <TTGlyph name="Odieresis" xMin="76" yMin="-12" xMax="586" yMax="856">
      <contour>
        <pt x="238" y="856" on="1"/>
        <pt x="248" y="856" on="1"/>
        <pt x="258" y="856" on="0"/>
        <pt x="258" y="845" on="1"/>
        <pt x="258" y="789" on="1"/>
        <pt x="258" y="778" on="0"/>
        <pt x="248" y="778" on="1"/>
        <pt x="238" y="778" on="1"/>
        <pt x="228" y="778" on="0"/>
        <pt x="228" y="789" on="1"/>
        <pt x="228" y="845" on="1"/>
        <pt x="228" y="856" on="0"/>
      </contour>
      <contour>
        <pt x="415" y="856" on="1"/>
        <pt x="425" y="856" on="1"/>
        <pt x="435" y="856" on="0"/>
        <pt x="435" y="845" on="1"/>
        <pt x="435" y="789" on="1"/>
        <pt x="435" y="778" on="0"/>
        <pt x="425" y="778" on="1"/>
        <pt x="415" y="778" on="1"/>
        <pt x="405" y="778" on="0"/>
        <pt x="405" y="789" on="1"/>
        <pt x="405" y="845" on="1"/>
        <pt x="405" y="856" on="0"/>
      </contour>
      <contour>
        <pt x="189" y="702" on="0"/>
        <pt x="473" y="702" on="0"/>
        <pt x="586" y="543" on="0"/>
        <pt x="586" y="147" on="0"/>
        <pt x="473" y="-12" on="0"/>
        <pt x="189" y="-12" on="0"/>
        <pt x="76" y="147" on="0"/>
        <pt x="76" y="543" on="0"/>
      </contour>
      <contour>
        <pt x="459" y="679" on="0"/>
        <pt x="203" y="679" on="0"/>
        <pt x="102" y="531" on="0"/>
        <pt x="102" y="159" on="0"/>
        <pt x="203" y="11" on="0"/>
        <pt x="459" y="11" on="0"/>
        <pt x="560" y="159" on="0"/>
        <pt x="560" y="531" on="0"/>
      </contour>
    </TTGlyph>
    <TTGlyph name="Ograve" xMin="76" yMin="-12" xMax="586" yMax="894">
      <contour>
        <pt x="371" y="749" on="1"/>
        <pt x="357" y="736" on="1"/>
        <pt x="204" y="877" on="1"/>
        <pt x="222" y="894" on="1"/>
      </contour>
      <contour>
        <pt x="189" y="702" on="0"/>
        <pt x="473" y="702" on="0"/>
        <pt x="586" y="543" on="0"/>
        <pt x="586" y="147" on="0"/>
        <pt x="473" y="-12" on="0"/>
        <pt x="189" y="-12" on="0"/>
        <pt x="76" y="147" on="0"/>
        <pt x="76" y="543" on="0"/>
      </contour>
      <contour>
        <pt x="459" y="679" on="0"/>
        <pt x="203" y="679" on="0"/>
        <pt x="102" y="531" on="0"/>
        <pt x="102" y="159" on="0"/>
        <pt x="203" y="11" on="0"/>
        <pt x="459" y="11" on="0"/>
        <pt x="560" y="159" on="0"/>
        <pt x="560" y="531" on="0"/>
      </contour>
    </TTGlyph>
    <TTGlyph name="Ohungarumlaut" xMin="76" yMin="-12" xMax="586" yMax="901">
      <contour>
        <pt x="368" y="886" on="1"/>
        <pt x="251" y="734" on="1"/>
        <pt x="235" y="744" on="1"/>
        <pt x="346" y="901" on="1"/>
      </contour>
      <contour>
        <pt x="508" y="886" on="1"/>
        <pt x="391" y="734" on="1"/>
        <pt x="375" y="744" on="1"/>
        <pt x="486" y="901" on="1"/>
      </contour>
      <contour>
        <pt x="189" y="702" on="0"/>
        <pt x="473" y="702" on="0"/>
        <pt x="586" y="543" on="0"/>
        <pt x="586" y="147" on="0"/>
        <pt x="473" y="-12" on="0"/>
        <pt x="189" y="-12" on="0"/>
        <pt x="76" y="147" on="0"/>
        <pt x="76" y="543" on="0"/>
      </contour>
      <contour>
        <pt x="459" y="679" on="0"/>
        <pt x="203" y="679" on="0"/>
        <pt x="102" y="531" on="0"/>
        <pt x="102" y="159" on="0"/>
        <pt x="203" y="11" on="0"/>
        <pt x="459" y="11" on="0"/>
        <pt x="560" y="159" on="0"/>
        <pt x="560" y="531" on="0"/>
      </contour>
    </TTGlyph>
    <TTGlyph name="Omacron" xMin="76" yMin="-12" xMax="586" yMax="827">
      <contour>
        <pt x="462" y="804" on="1"/>
        <pt x="202" y="804" on="1"/>
        <pt x="202" y="827" on="1"/>
        <pt x="462" y="827" on="1"/>
      </contour>
      <contour>
        <pt x="189" y="702" on="0"/>
        <pt x="473" y="702" on="0"/>
        <pt x="586" y="543" on="0"/>
        <pt x="586" y="147" on="0"/>
        <pt x="473" y="-12" on="0"/>
        <pt x="189" y="-12" on="0"/>
        <pt x="76" y="147" on="0"/>
        <pt x="76" y="543" on="0"/>
      </contour>
      <contour>
        <pt x="459" y="679" on="0"/>
        <pt x="203" y="679" on="0"/>
        <pt x="102" y="531" on="0"/>
        <pt x="102" y="159" on="0"/>
        <pt x="203" y="11" on="0"/>
        <pt x="459" y="11" on="0"/>
        <pt x="560" y="159" on="0"/>
        <pt x="560" y="531" on="0"/>
      </contour>
    </TTGlyph>
    <TTGlyph name="Omega" xMin="55" yMin="0" xMax="663" yMax="702">
      <contour>
        <pt x="190" y="22" on="1"/>
        <pt x="252" y="22" on="1"/>
        <pt x="166" y="79" on="0"/>
        <pt x="90" y="236" on="0"/>
        <pt x="90" y="357" on="1"/>
        <pt x="90" y="531" on="0"/>
        <pt x="218" y="702" on="0"/>
        <pt x="359" y="702" on="1"/>
        <pt x="497" y="702" on="0"/>
        <pt x="628" y="530" on="0"/>
        <pt x="628" y="357" on="1"/>
        <pt x="628" y="234" on="0"/>
        <pt x="551" y="80" on="0"/>
        <pt x="466" y="22" on="1"/>
        <pt x="528" y="22" on="1"/>
        <pt x="663" y="22" on="1"/>
        <pt x="663" y="0" on="1"/>
        <pt x="435" y="0" on="1"/>
        <pt x="435" y="22" on="1"/>
        <pt x="527" y="82" on="0"/>
        <pt x="602" y="236" on="0"/>
        <pt x="602" y="355" on="1"/>
        <pt x="602" y="521" on="0"/>
        <pt x="485" y="679" on="0"/>
        <pt x="359" y="679" on="1"/>
        <pt x="230" y="679" on="0"/>
        <pt x="116" y="522" on="0"/>
        <pt x="116" y="354" on="1"/>
        <pt x="116" y="230" on="0"/>
        <pt x="193" y="86" on="0"/>
        <pt x="283" y="22" on="1"/>
        <pt x="283" y="0" on="1"/>
        <pt x="55" y="0" on="1"/>
        <pt x="55" y="22" on="1"/>
      </contour>
    </TTGlyph>
    <TTGlyph name="Oslash" xMin="76" yMin="-51" xMax="586" yMax="741">
      <contour>
        <pt x="516" y="731" on="1"/>
        <pt x="485" y="665" on="1"/>
        <pt x="539" y="630" on="0"/>
        <pt x="586" y="476" on="0"/>
        <pt x="586" y="345" on="1"/>
        <pt x="586" y="147" on="0"/>
        <pt x="473" y="-12" on="0"/>
        <pt x="331" y="-12" on="1"/>
        <pt x="236" y="-12" on="0"/>
        <pt x="183" y="21" on="1"/>
        <pt x="149" y="-51" on="1"/>
        <pt x="128" y="-41" on="1"/>
        <pt x="163" y="35" on="1"/>
        <pt x="76" y="107" on="0"/>
        <pt x="76" y="345" on="1"/>
        <pt x="76" y="543" on="0"/>
        <pt x="189" y="702" on="0"/>
        <pt x="331" y="702" on="1"/>
        <pt x="414" y="702" on="0"/>
        <pt x="465" y="677" on="1"/>
        <pt x="495" y="741" on="1"/>
      </contour>
      <contour>
        <pt x="175" y="59" on="1"/>
        <pt x="454" y="654" on="1"/>
        <pt x="407" y="679" on="0"/>
        <pt x="331" y="679" on="1"/>
        <pt x="203" y="679" on="0"/>
        <pt x="102" y="531" on="0"/>
        <pt x="102" y="345" on="1"/>
        <pt x="102" y="128" on="0"/>
      </contour>
      <contour>
        <pt x="474" y="642" on="1"/>
        <pt x="194" y="44" on="1"/>
        <pt x="243" y="11" on="0"/>
        <pt x="331" y="11" on="1"/>
        <pt x="459" y="11" on="0"/>
        <pt x="560" y="159" on="0"/>
        <pt x="560" y="345" on="1"/>
        <pt x="560" y="465" on="0"/>
        <pt x="520" y="608" on="0"/>
      </contour>
    </TTGlyph>
    <TTGlyph name="Otilde" xMin="76" yMin="-12" xMax="586" yMax="866">
      <contour>
        <pt x="204" y="777" on="1"/>
        <pt x="187" y="777" on="1"/>
        <pt x="186" y="822" on="0"/>
        <pt x="226" y="869" on="0"/>
        <pt x="262" y="866" on="1"/>
        <pt x="292" y="864" on="0"/>
        <pt x="372" y="801" on="0"/>
        <pt x="402" y="798" on="1"/>
        <pt x="433" y="796" on="0"/>
        <pt x="460" y="826" on="0"/>
        <pt x="460" y="861" on="1"/>
        <pt x="477" y="861" on="1"/>
        <pt x="478" y="818" on="0"/>
        <pt x="438" y="773" on="0"/>
        <pt x="366" y="779" on="0"/>
        <pt x="285" y="842" on="0"/>
        <pt x="262" y="844" on="1"/>
        <pt x="232" y="847" on="0"/>
        <pt x="204" y="814" on="0"/>
      </contour>
      <contour>
        <pt x="189" y="702" on="0"/>
        <pt x="473" y="702" on="0"/>
        <pt x="586" y="543" on="0"/>
        <pt x="586" y="147" on="0"/>
        <pt x="473" y="-12" on="0"/>
        <pt x="189" y="-12" on="0"/>
        <pt x="76" y="147" on="0"/>
        <pt x="76" y="543" on="0"/>
      </contour>
      <contour>
        <pt x="459" y="679" on="0"/>
        <pt x="203" y="679" on="0"/>
        <pt x="102" y="531" on="0"/>
        <pt x="102" y="159" on="0"/>
        <pt x="203" y="11" on="0"/>
        <pt x="459" y="11" on="0"/>
        <pt x="560" y="159" on="0"/>
        <pt x="560" y="531" on="0"/>
      </contour>
    </TTGlyph>
    <TTGlyph name="P" xMin="103" yMin="0" xMax="523" yMax="698">
      <contour>
        <pt x="103" y="0" on="1"/>
        <pt x="103" y="690" on="1"/>
        <pt x="183" y="698" on="0"/>
        <pt x="324" y="698" on="1"/>
        <pt x="435" y="698" on="0"/>
        <pt x="523" y="612" on="0"/>
        <pt x="523" y="495" on="1"/>
        <pt x="523" y="377" on="0"/>
        <pt x="436" y="292" on="0"/>
        <pt x="324" y="292" on="1"/>
        <pt x="196" y="292" on="0"/>
        <pt x="128" y="296" on="1"/>
        <pt x="128" y="0" on="1"/>
      </contour>
      <contour>
        <pt x="128" y="315" on="1"/>
        <pt x="324" y="315" on="1"/>
        <pt x="422" y="317" on="0"/>
        <pt x="497" y="390" on="0"/>
        <pt x="497" y="600" on="0"/>
        <pt x="421" y="675" on="0"/>
        <pt x="324" y="675" on="1"/>
        <pt x="196" y="675" on="0"/>
        <pt x="128" y="673" on="1"/>
      </contour>
    </TTGlyph>
    <TTGlyph name="Q" xMin="76" yMin="-161" xMax="586" yMax="702">
      <contour>
        <pt x="189" y="702" on="0"/>
        <pt x="473" y="702" on="0"/>
        <pt x="586" y="543" on="0"/>
        <pt x="586" y="147" on="0"/>
        <pt x="473" y="-12" on="0"/>
        <pt x="189" y="-12" on="0"/>
        <pt x="76" y="147" on="0"/>
        <pt x="76" y="543" on="0"/>
      </contour>
      <contour>
        <pt x="459" y="679" on="0"/>
        <pt x="203" y="679" on="0"/>
        <pt x="102" y="531" on="0"/>
        <pt x="102" y="159" on="0"/>
        <pt x="203" y="11" on="0"/>
        <pt x="459" y="11" on="0"/>
        <pt x="560" y="159" on="0"/>
        <pt x="560" y="531" on="0"/>
      </contour>
      <contour>
        <pt x="286" y="-65" on="1"/>
        <pt x="298" y="-51" on="1"/>
        <pt x="387" y="-114" on="0"/>
        <pt x="522" y="-136" on="1"/>
        <pt x="515" y="-161" on="1"/>
        <pt x="379" y="-142" on="0"/>
      </contour>
    </TTGlyph>
    <TTGlyph name="R" xMin="103" yMin="0" xMax="548" yMax="698">
      <contour>
        <pt x="548" y="0" on="1"/>
        <pt x="520" y="0" on="1"/>
        <pt x="446" y="218" on="1"/>
        <pt x="414" y="310" on="0"/>
        <pt x="333" y="310" on="1"/>
        <pt x="196" y="310" on="0"/>
        <pt x="128" y="314" on="1"/>
        <pt x="128" y="0" on="1"/>
        <pt x="103" y="0" on="1"/>
        <pt x="103" y="690" on="1"/>
        <pt x="183" y="698" on="0"/>
        <pt x="324" y="698" on="1"/>
        <pt x="436" y="698" on="0"/>
        <pt x="523" y="617" on="0"/>
        <pt x="523" y="504" on="1"/>
        <pt x="523" y="412" on="0"/>
        <pt x="464" y="330" on="0"/>
        <pt x="396" y="320" on="1"/>
        <pt x="396" y="316" on="1"/>
        <pt x="444" y="301" on="0"/>
        <pt x="472" y="221" on="1"/>
      </contour>
      <contour>
        <pt x="128" y="333" on="1"/>
        <pt x="324" y="333" on="1"/>
        <pt x="421" y="335" on="0"/>
        <pt x="497" y="406" on="0"/>
        <pt x="497" y="504" on="1"/>
        <pt x="497" y="604" on="0"/>
        <pt x="421" y="675" on="0"/>
        <pt x="324" y="675" on="1"/>
        <pt x="196" y="675" on="0"/>
        <pt x="128" y="673" on="1"/>
      </contour>
    </TTGlyph>
    <TTGlyph name="Racute" xMin="103" yMin="0" xMax="548" yMax="894">
      <contour>
        <pt x="269" y="736" on="1"/>
        <pt x="255" y="749" on="1"/>
        <pt x="404" y="894" on="1"/>
        <pt x="422" y="877" on="1"/>
      </contour>
      <contour>
        <pt x="548" y="0" on="1"/>
        <pt x="520" y="0" on="1"/>
        <pt x="446" y="218" on="1"/>
        <pt x="414" y="310" on="0"/>
        <pt x="333" y="310" on="1"/>
        <pt x="196" y="310" on="0"/>
        <pt x="128" y="314" on="1"/>
        <pt x="128" y="0" on="1"/>
        <pt x="103" y="0" on="1"/>
        <pt x="103" y="690" on="1"/>
        <pt x="183" y="698" on="0"/>
        <pt x="324" y="698" on="1"/>
        <pt x="436" y="698" on="0"/>
        <pt x="523" y="617" on="0"/>
        <pt x="523" y="504" on="1"/>
        <pt x="523" y="412" on="0"/>
        <pt x="464" y="330" on="0"/>
        <pt x="396" y="320" on="1"/>
        <pt x="396" y="316" on="1"/>
        <pt x="444" y="301" on="0"/>
        <pt x="472" y="221" on="1"/>
      </contour>
      <contour>
        <pt x="128" y="333" on="1"/>
        <pt x="324" y="333" on="1"/>
        <pt x="421" y="335" on="0"/>
        <pt x="497" y="406" on="0"/>
        <pt x="497" y="504" on="1"/>
        <pt x="497" y="604" on="0"/>
        <pt x="421" y="675" on="0"/>
        <pt x="324" y="675" on="1"/>
        <pt x="196" y="675" on="0"/>
        <pt x="128" y="673" on="1"/>
      </contour>
    </TTGlyph>
    <TTGlyph name="Rcaron" xMin="103" yMin="0" xMax="548" yMax="880">
      <contour>
        <pt x="295" y="751" on="1"/>
        <pt x="158" y="868" on="1"/>
        <pt x="171" y="880" on="1"/>
        <pt x="300" y="778" on="1"/>
        <pt x="308" y="778" on="1"/>
        <pt x="438" y="880" on="1"/>
        <pt x="450" y="868" on="1"/>
        <pt x="313" y="751" on="1"/>
      </contour>
      <contour>
        <pt x="548" y="0" on="1"/>
        <pt x="520" y="0" on="1"/>
        <pt x="446" y="218" on="1"/>
        <pt x="414" y="310" on="0"/>
        <pt x="333" y="310" on="1"/>
        <pt x="196" y="310" on="0"/>
        <pt x="128" y="314" on="1"/>
        <pt x="128" y="0" on="1"/>
        <pt x="103" y="0" on="1"/>
        <pt x="103" y="690" on="1"/>
        <pt x="183" y="698" on="0"/>
        <pt x="324" y="698" on="1"/>
        <pt x="436" y="698" on="0"/>
        <pt x="523" y="617" on="0"/>
        <pt x="523" y="504" on="1"/>
        <pt x="523" y="412" on="0"/>
        <pt x="464" y="330" on="0"/>
        <pt x="396" y="320" on="1"/>
        <pt x="396" y="316" on="1"/>
        <pt x="444" y="301" on="0"/>
        <pt x="472" y="221" on="1"/>
      </contour>
      <contour>
        <pt x="128" y="333" on="1"/>
        <pt x="324" y="333" on="1"/>
        <pt x="421" y="335" on="0"/>
        <pt x="497" y="406" on="0"/>
        <pt x="497" y="504" on="1"/>
        <pt x="497" y="604" on="0"/>
        <pt x="421" y="675" on="0"/>
        <pt x="324" y="675" on="1"/>
        <pt x="196" y="675" on="0"/>
        <pt x="128" y="673" on="1"/>
      </contour>
    </TTGlyph>
    <TTGlyph name="Rcommaaccent" xMin="103" yMin="-249" xMax="548" yMax="698">
      <contour>
        <pt x="548" y="0" on="1"/>
        <pt x="520" y="0" on="1"/>
        <pt x="446" y="218" on="1"/>
        <pt x="414" y="310" on="0"/>
        <pt x="333" y="310" on="1"/>
        <pt x="196" y="310" on="0"/>
        <pt x="128" y="314" on="1"/>
        <pt x="128" y="0" on="1"/>
        <pt x="103" y="0" on="1"/>
        <pt x="103" y="690" on="1"/>
        <pt x="183" y="698" on="0"/>
        <pt x="324" y="698" on="1"/>
        <pt x="436" y="698" on="0"/>
        <pt x="523" y="617" on="0"/>
        <pt x="523" y="504" on="1"/>
        <pt x="523" y="412" on="0"/>
        <pt x="464" y="330" on="0"/>
        <pt x="396" y="320" on="1"/>
        <pt x="396" y="316" on="1"/>
        <pt x="444" y="301" on="0"/>
        <pt x="472" y="221" on="1"/>
      </contour>
      <contour>
        <pt x="128" y="333" on="1"/>
        <pt x="324" y="333" on="1"/>
        <pt x="421" y="335" on="0"/>
        <pt x="497" y="406" on="0"/>
        <pt x="497" y="504" on="1"/>
        <pt x="497" y="604" on="0"/>
        <pt x="421" y="675" on="0"/>
        <pt x="324" y="675" on="1"/>
        <pt x="196" y="675" on="0"/>
        <pt x="128" y="673" on="1"/>
      </contour>
      <contour>
        <pt x="324" y="-65" on="1"/>
        <pt x="332" y="-65" on="1"/>
        <pt x="343" y="-65" on="0"/>
        <pt x="343" y="-76" on="1"/>
        <pt x="343" y="-134" on="1"/>
        <pt x="341" y="-200" on="0"/>
        <pt x="327" y="-249" on="1"/>
        <pt x="316" y="-245" on="1"/>
        <pt x="319" y="-190" on="0"/>
        <pt x="319" y="-143" on="1"/>
        <pt x="316" y="-143" on="0"/>
        <pt x="313" y="-137" on="0"/>
        <pt x="314" y="-134" on="1"/>
        <pt x="314" y="-76" on="1"/>
        <pt x="313" y="-65" on="0"/>
      </contour>
    </TTGlyph>
    <TTGlyph name="S" xMin="66" yMin="-11" xMax="492" yMax="701">
      <contour>
        <pt x="353" y="326" on="1"/>
        <pt x="200" y="347" on="1"/>
        <pt x="128" y="355" on="0"/>
        <pt x="66" y="439" on="0"/>
        <pt x="66" y="524" on="1"/>
        <pt x="66" y="585" on="0"/>
        <pt x="89" y="658" on="0"/>
        <pt x="148" y="693" on="0"/>
        <pt x="214" y="702" on="0"/>
        <pt x="274" y="701" on="1"/>
        <pt x="371" y="699" on="0"/>
        <pt x="461" y="689" on="1"/>
        <pt x="458" y="670" on="1"/>
        <pt x="338" y="678" on="0"/>
        <pt x="274" y="678" on="1"/>
        <pt x="235" y="678" on="0"/>
        <pt x="196" y="676" on="0"/>
        <pt x="145" y="667" on="0"/>
        <pt x="122" y="648" on="0"/>
        <pt x="99" y="614" on="0"/>
        <pt x="91" y="562" on="0"/>
        <pt x="91" y="524" on="1"/>
        <pt x="91" y="448" on="0"/>
        <pt x="141" y="379" on="0"/>
        <pt x="200" y="371" on="1"/>
        <pt x="353" y="350" on="1"/>
        <pt x="429" y="341" on="0"/>
        <pt x="492" y="259" on="0"/>
        <pt x="492" y="169" on="1"/>
        <pt x="492" y="121" on="0"/>
        <pt x="473" y="54" on="0"/>
        <pt x="442" y="15" on="0"/>
        <pt x="385" y="-5" on="0"/>
        <pt x="328" y="-11" on="0"/>
        <pt x="282" y="-11" on="1"/>
        <pt x="172" y="-11" on="0"/>
        <pt x="78" y="0" on="1"/>
        <pt x="81" y="19" on="1"/>
        <pt x="185" y="11" on="0"/>
        <pt x="283" y="12" on="1"/>
        <pt x="338" y="13" on="0"/>
        <pt x="400" y="23" on="0"/>
        <pt x="448" y="56" on="0"/>
        <pt x="467" y="118" on="0"/>
        <pt x="467" y="169" on="1"/>
        <pt x="467" y="250" on="0"/>
        <pt x="416" y="318" on="0"/>
      </contour>
    </TTGlyph>
    <TTGlyph name="Sacute" xMin="66" yMin="-11" xMax="492" yMax="894">
      <contour>
        <pt x="399" y="877" on="1"/>
        <pt x="246" y="736" on="1"/>
        <pt x="232" y="749" on="1"/>
        <pt x="381" y="894" on="1"/>
      </contour>
      <contour>
        <pt x="353" y="326" on="1"/>
        <pt x="200" y="347" on="1"/>
        <pt x="128" y="355" on="0"/>
        <pt x="66" y="439" on="0"/>
        <pt x="66" y="524" on="1"/>
        <pt x="66" y="585" on="0"/>
        <pt x="89" y="658" on="0"/>
        <pt x="148" y="693" on="0"/>
        <pt x="214" y="702" on="0"/>
        <pt x="274" y="701" on="1"/>
        <pt x="371" y="699" on="0"/>
        <pt x="461" y="689" on="1"/>
        <pt x="458" y="670" on="1"/>
        <pt x="338" y="678" on="0"/>
        <pt x="274" y="678" on="1"/>
        <pt x="235" y="678" on="0"/>
        <pt x="196" y="676" on="0"/>
        <pt x="145" y="667" on="0"/>
        <pt x="122" y="648" on="0"/>
        <pt x="99" y="614" on="0"/>
        <pt x="91" y="562" on="0"/>
        <pt x="91" y="524" on="1"/>
        <pt x="91" y="448" on="0"/>
        <pt x="141" y="379" on="0"/>
        <pt x="200" y="371" on="1"/>
        <pt x="353" y="350" on="1"/>
        <pt x="429" y="341" on="0"/>
        <pt x="492" y="259" on="0"/>
        <pt x="492" y="169" on="1"/>
        <pt x="492" y="121" on="0"/>
        <pt x="473" y="54" on="0"/>
        <pt x="442" y="15" on="0"/>
        <pt x="385" y="-5" on="0"/>
        <pt x="328" y="-11" on="0"/>
        <pt x="282" y="-11" on="1"/>
        <pt x="172" y="-11" on="0"/>
        <pt x="78" y="0" on="1"/>
        <pt x="81" y="19" on="1"/>
        <pt x="185" y="11" on="0"/>
        <pt x="283" y="12" on="1"/>
        <pt x="338" y="13" on="0"/>
        <pt x="400" y="23" on="0"/>
        <pt x="448" y="56" on="0"/>
        <pt x="467" y="118" on="0"/>
        <pt x="467" y="169" on="1"/>
        <pt x="467" y="250" on="0"/>
        <pt x="416" y="318" on="0"/>
      </contour>
    </TTGlyph>
    <TTGlyph name="Scaron" xMin="66" yMin="-11" xMax="492" yMax="880">
      <contour>
        <pt x="427" y="868" on="1"/>
        <pt x="290" y="751" on="1"/>
        <pt x="272" y="751" on="1"/>
        <pt x="135" y="868" on="1"/>
        <pt x="148" y="880" on="1"/>
        <pt x="277" y="778" on="1"/>
        <pt x="285" y="778" on="1"/>
        <pt x="415" y="880" on="1"/>
      </contour>
      <contour>
        <pt x="353" y="326" on="1"/>
        <pt x="200" y="347" on="1"/>
        <pt x="128" y="355" on="0"/>
        <pt x="66" y="439" on="0"/>
        <pt x="66" y="524" on="1"/>
        <pt x="66" y="585" on="0"/>
        <pt x="89" y="658" on="0"/>
        <pt x="148" y="693" on="0"/>
        <pt x="214" y="702" on="0"/>
        <pt x="274" y="701" on="1"/>
        <pt x="371" y="699" on="0"/>
        <pt x="461" y="689" on="1"/>
        <pt x="458" y="670" on="1"/>
        <pt x="338" y="678" on="0"/>
        <pt x="274" y="678" on="1"/>
        <pt x="235" y="678" on="0"/>
        <pt x="196" y="676" on="0"/>
        <pt x="145" y="667" on="0"/>
        <pt x="122" y="648" on="0"/>
        <pt x="99" y="614" on="0"/>
        <pt x="91" y="562" on="0"/>
        <pt x="91" y="524" on="1"/>
        <pt x="91" y="448" on="0"/>
        <pt x="141" y="379" on="0"/>
        <pt x="200" y="371" on="1"/>
        <pt x="353" y="350" on="1"/>
        <pt x="429" y="341" on="0"/>
        <pt x="492" y="259" on="0"/>
        <pt x="492" y="169" on="1"/>
        <pt x="492" y="121" on="0"/>
        <pt x="473" y="54" on="0"/>
        <pt x="442" y="15" on="0"/>
        <pt x="385" y="-5" on="0"/>
        <pt x="328" y="-11" on="0"/>
        <pt x="282" y="-11" on="1"/>
        <pt x="172" y="-11" on="0"/>
        <pt x="78" y="0" on="1"/>
        <pt x="81" y="19" on="1"/>
        <pt x="185" y="11" on="0"/>
        <pt x="283" y="12" on="1"/>
        <pt x="338" y="13" on="0"/>
        <pt x="400" y="23" on="0"/>
        <pt x="448" y="56" on="0"/>
        <pt x="467" y="118" on="0"/>
        <pt x="467" y="169" on="1"/>
        <pt x="467" y="250" on="0"/>
        <pt x="416" y="318" on="0"/>
      </contour>
    </TTGlyph>
    <TTGlyph name="Scedilla" xMin="66" yMin="-230" xMax="492" yMax="701">
      <contour>
        <pt x="353" y="326" on="1"/>
        <pt x="200" y="347" on="1"/>
        <pt x="128" y="355" on="0"/>
        <pt x="66" y="439" on="0"/>
        <pt x="66" y="524" on="1"/>
        <pt x="66" y="585" on="0"/>
        <pt x="89" y="658" on="0"/>
        <pt x="148" y="693" on="0"/>
        <pt x="214" y="702" on="0"/>
        <pt x="274" y="701" on="1"/>
        <pt x="371" y="699" on="0"/>
        <pt x="461" y="689" on="1"/>
        <pt x="458" y="670" on="1"/>
        <pt x="338" y="678" on="0"/>
        <pt x="274" y="678" on="1"/>
        <pt x="235" y="678" on="0"/>
        <pt x="196" y="676" on="0"/>
        <pt x="145" y="667" on="0"/>
        <pt x="122" y="648" on="0"/>
        <pt x="99" y="614" on="0"/>
        <pt x="91" y="562" on="0"/>
        <pt x="91" y="524" on="1"/>
        <pt x="91" y="448" on="0"/>
        <pt x="141" y="379" on="0"/>
        <pt x="200" y="371" on="1"/>
        <pt x="353" y="350" on="1"/>
        <pt x="429" y="341" on="0"/>
        <pt x="492" y="259" on="0"/>
        <pt x="492" y="169" on="1"/>
        <pt x="492" y="121" on="0"/>
        <pt x="473" y="54" on="0"/>
        <pt x="442" y="15" on="0"/>
        <pt x="385" y="-5" on="0"/>
        <pt x="328" y="-11" on="0"/>
        <pt x="282" y="-11" on="1"/>
        <pt x="172" y="-11" on="0"/>
        <pt x="78" y="0" on="1"/>
        <pt x="81" y="19" on="1"/>
        <pt x="185" y="11" on="0"/>
        <pt x="283" y="12" on="1"/>
        <pt x="338" y="13" on="0"/>
        <pt x="400" y="23" on="0"/>
        <pt x="448" y="56" on="0"/>
        <pt x="467" y="118" on="0"/>
        <pt x="467" y="169" on="1"/>
        <pt x="467" y="250" on="0"/>
        <pt x="416" y="318" on="0"/>
      </contour>
      <contour>
        <pt x="250" y="-74" on="1"/>
        <pt x="253" y="-60" on="1"/>
        <pt x="292" y="-58" on="0"/>
        <pt x="332" y="-90" on="0"/>
        <pt x="331" y="-125" on="1"/>
        <pt x="330" y="-177" on="0"/>
        <pt x="254" y="-238" on="0"/>
        <pt x="192" y="-230" on="1"/>
        <pt x="196" y="-215" on="1"/>
        <pt x="247" y="-217" on="0"/>
        <pt x="309" y="-164" on="0"/>
        <pt x="309" y="-125" on="1"/>
        <pt x="309" y="-97" on="0"/>
        <pt x="283" y="-75" on="0"/>
      </contour>
    </TTGlyph>
    <TTGlyph name="Scommaaccent" xMin="66" yMin="-249" xMax="492" yMax="701">
      <contour>
        <pt x="353" y="326" on="1"/>
        <pt x="200" y="347" on="1"/>
        <pt x="128" y="355" on="0"/>
        <pt x="66" y="439" on="0"/>
        <pt x="66" y="524" on="1"/>
        <pt x="66" y="585" on="0"/>
        <pt x="89" y="658" on="0"/>
        <pt x="148" y="693" on="0"/>
        <pt x="214" y="702" on="0"/>
        <pt x="274" y="701" on="1"/>
        <pt x="371" y="699" on="0"/>
        <pt x="461" y="689" on="1"/>
        <pt x="458" y="670" on="1"/>
        <pt x="338" y="678" on="0"/>
        <pt x="274" y="678" on="1"/>
        <pt x="235" y="678" on="0"/>
        <pt x="196" y="676" on="0"/>
        <pt x="145" y="667" on="0"/>
        <pt x="122" y="648" on="0"/>
        <pt x="99" y="614" on="0"/>
        <pt x="91" y="562" on="0"/>
        <pt x="91" y="524" on="1"/>
        <pt x="91" y="448" on="0"/>
        <pt x="141" y="379" on="0"/>
        <pt x="200" y="371" on="1"/>
        <pt x="353" y="350" on="1"/>
        <pt x="429" y="341" on="0"/>
        <pt x="492" y="259" on="0"/>
        <pt x="492" y="169" on="1"/>
        <pt x="492" y="121" on="0"/>
        <pt x="473" y="54" on="0"/>
        <pt x="442" y="15" on="0"/>
        <pt x="385" y="-5" on="0"/>
        <pt x="328" y="-11" on="0"/>
        <pt x="282" y="-11" on="1"/>
        <pt x="172" y="-11" on="0"/>
        <pt x="78" y="0" on="1"/>
        <pt x="81" y="19" on="1"/>
        <pt x="185" y="11" on="0"/>
        <pt x="283" y="12" on="1"/>
        <pt x="338" y="13" on="0"/>
        <pt x="400" y="23" on="0"/>
        <pt x="448" y="56" on="0"/>
        <pt x="467" y="118" on="0"/>
        <pt x="467" y="169" on="1"/>
        <pt x="467" y="250" on="0"/>
        <pt x="416" y="318" on="0"/>
      </contour>
      <contour>
        <pt x="288" y="-65" on="1"/>
        <pt x="296" y="-65" on="1"/>
        <pt x="307" y="-65" on="0"/>
        <pt x="307" y="-76" on="1"/>
        <pt x="307" y="-134" on="1"/>
        <pt x="305" y="-200" on="0"/>
        <pt x="291" y="-249" on="1"/>
        <pt x="280" y="-245" on="1"/>
        <pt x="283" y="-190" on="0"/>
        <pt x="283" y="-143" on="1"/>
        <pt x="280" y="-143" on="0"/>
        <pt x="277" y="-137" on="0"/>
        <pt x="278" y="-134" on="1"/>
        <pt x="278" y="-76" on="1"/>
        <pt x="277" y="-65" on="0"/>
      </contour>
    </TTGlyph>
    <TTGlyph name="T" xMin="27" yMin="0" xMax="537" yMax="690">
      <contour>
        <pt x="537" y="668" on="1"/>
        <pt x="294" y="668" on="1"/>
        <pt x="294" y="0" on="1"/>
        <pt x="269" y="0" on="1"/>
        <pt x="269" y="668" on="1"/>
        <pt x="27" y="668" on="1"/>
        <pt x="27" y="690" on="1"/>
        <pt x="537" y="690" on="1"/>
      </contour>
    </TTGlyph>
    <TTGlyph name="Tbar" xMin="27" yMin="0" xMax="537" yMax="690">
      <contour>
        <pt x="294" y="668" on="1"/>
        <pt x="294" y="425" on="1"/>
        <pt x="443" y="425" on="1"/>
        <pt x="443" y="405" on="1"/>
        <pt x="294" y="405" on="1"/>
        <pt x="294" y="0" on="1"/>
        <pt x="269" y="0" on="1"/>
        <pt x="269" y="405" on="1"/>
        <pt x="114" y="405" on="1"/>
        <pt x="114" y="425" on="1"/>
        <pt x="269" y="425" on="1"/>
        <pt x="269" y="668" on="1"/>
        <pt x="27" y="668" on="1"/>
        <pt x="27" y="690" on="1"/>
        <pt x="537" y="690" on="1"/>
        <pt x="537" y="668" on="1"/>
      </contour>
    </TTGlyph>
    <TTGlyph name="Tcaron" xMin="27" yMin="0" xMax="537" yMax="880">
      <contour>
        <pt x="275" y="751" on="1"/>
        <pt x="138" y="868" on="1"/>
        <pt x="151" y="880" on="1"/>
        <pt x="280" y="778" on="1"/>
        <pt x="288" y="778" on="1"/>
        <pt x="418" y="880" on="1"/>
        <pt x="430" y="868" on="1"/>
        <pt x="293" y="751" on="1"/>
      </contour>
      <contour>
        <pt x="537" y="668" on="1"/>
        <pt x="294" y="668" on="1"/>
        <pt x="294" y="0" on="1"/>
        <pt x="269" y="0" on="1"/>
        <pt x="269" y="668" on="1"/>
        <pt x="27" y="668" on="1"/>
        <pt x="27" y="690" on="1"/>
        <pt x="537" y="690" on="1"/>
      </contour>
    </TTGlyph>
    <TTGlyph name="Tcedilla" xMin="27" yMin="-219" xMax="537" yMax="690">
      <contour>
        <pt x="537" y="690" on="1"/>
        <pt x="537" y="668" on="1"/>
        <pt x="294" y="668" on="1"/>
        <pt x="294" y="0" on="1"/>
        <pt x="269" y="0" on="1"/>
        <pt x="269" y="668" on="1"/>
        <pt x="27" y="668" on="1"/>
        <pt x="27" y="690" on="1"/>
      </contour>
      <contour>
        <pt x="250" y="-63" on="1"/>
        <pt x="253" y="-49" on="1"/>
        <pt x="292" y="-47" on="0"/>
        <pt x="332" y="-79" on="0"/>
        <pt x="331" y="-114" on="1"/>
        <pt x="330" y="-166" on="0"/>
        <pt x="254" y="-227" on="0"/>
        <pt x="192" y="-219" on="1"/>
        <pt x="196" y="-204" on="1"/>
        <pt x="247" y="-206" on="0"/>
        <pt x="309" y="-153" on="0"/>
        <pt x="309" y="-114" on="1"/>
        <pt x="309" y="-86" on="0"/>
        <pt x="283" y="-64" on="0"/>
      </contour>
    </TTGlyph>
    <TTGlyph name="Thorn" xMin="103" yMin="0" xMax="523" yMax="690">
      <contour>
        <pt x="128" y="690" on="1"/>
        <pt x="128" y="549" on="1"/>
        <pt x="198" y="555" on="0"/>
        <pt x="324" y="555" on="1"/>
        <pt x="435" y="555" on="0"/>
        <pt x="523" y="469" on="0"/>
        <pt x="523" y="352" on="1"/>
        <pt x="523" y="234" on="0"/>
        <pt x="436" y="149" on="0"/>
        <pt x="324" y="149" on="1"/>
        <pt x="196" y="149" on="0"/>
        <pt x="128" y="153" on="1"/>
        <pt x="128" y="0" on="1"/>
        <pt x="103" y="0" on="1"/>
        <pt x="103" y="690" on="1"/>
      </contour>
      <contour>
        <pt x="128" y="172" on="1"/>
        <pt x="324" y="172" on="1"/>
        <pt x="422" y="174" on="0"/>
        <pt x="497" y="247" on="0"/>
        <pt x="497" y="457" on="0"/>
        <pt x="421" y="532" on="0"/>
        <pt x="324" y="532" on="1"/>
        <pt x="196" y="532" on="0"/>
        <pt x="128" y="530" on="1"/>
      </contour>
    </TTGlyph>
    <TTGlyph name="U" xMin="98" yMin="-12" xMax="569" yMax="690">
      <contour>
        <pt x="569" y="690" on="1"/>
        <pt x="569" y="255" on="1"/>
        <pt x="569" y="110" on="0"/>
        <pt x="462" y="-12" on="0"/>
        <pt x="334" y="-12" on="1"/>
        <pt x="205" y="-12" on="0"/>
        <pt x="98" y="110" on="0"/>
        <pt x="98" y="255" on="1"/>
        <pt x="98" y="690" on="1"/>
        <pt x="123" y="690" on="1"/>
        <pt x="123" y="255" on="1"/>
        <pt x="123" y="121" on="0"/>
        <pt x="218" y="11" on="0"/>
        <pt x="334" y="11" on="1"/>
        <pt x="449" y="11" on="0"/>
        <pt x="544" y="121" on="0"/>
        <pt x="544" y="255" on="1"/>
        <pt x="544" y="690" on="1"/>
      </contour>
    </TTGlyph>
    <TTGlyph name="Uacute" xMin="98" yMin="-12" xMax="569" yMax="894">
      <contour>
        <pt x="454" y="877" on="1"/>
        <pt x="301" y="736" on="1"/>
        <pt x="287" y="749" on="1"/>
        <pt x="436" y="894" on="1"/>
      </contour>
      <contour>
        <pt x="569" y="690" on="1"/>
        <pt x="569" y="255" on="1"/>
        <pt x="569" y="110" on="0"/>
        <pt x="462" y="-12" on="0"/>
        <pt x="334" y="-12" on="1"/>
        <pt x="205" y="-12" on="0"/>
        <pt x="98" y="110" on="0"/>
        <pt x="98" y="255" on="1"/>
        <pt x="98" y="690" on="1"/>
        <pt x="123" y="690" on="1"/>
        <pt x="123" y="255" on="1"/>
        <pt x="123" y="121" on="0"/>
        <pt x="218" y="11" on="0"/>
        <pt x="334" y="11" on="1"/>
        <pt x="449" y="11" on="0"/>
        <pt x="544" y="121" on="0"/>
        <pt x="544" y="255" on="1"/>
        <pt x="544" y="690" on="1"/>
      </contour>
    </TTGlyph>
    <TTGlyph name="Ucircumflex" xMin="98" yMin="-12" xMax="569" yMax="880">
      <contour>
        <pt x="479" y="763" on="1"/>
        <pt x="468" y="751" on="1"/>
        <pt x="338" y="853" on="1"/>
        <pt x="330" y="853" on="1"/>
        <pt x="201" y="751" on="1"/>
        <pt x="189" y="763" on="1"/>
        <pt x="325" y="880" on="1"/>
        <pt x="343" y="880" on="1"/>
      </contour>
      <contour>
        <pt x="569" y="690" on="1"/>
        <pt x="569" y="255" on="1"/>
        <pt x="569" y="110" on="0"/>
        <pt x="462" y="-12" on="0"/>
        <pt x="334" y="-12" on="1"/>
        <pt x="205" y="-12" on="0"/>
        <pt x="98" y="110" on="0"/>
        <pt x="98" y="255" on="1"/>
        <pt x="98" y="690" on="1"/>
        <pt x="123" y="690" on="1"/>
        <pt x="123" y="255" on="1"/>
        <pt x="123" y="121" on="0"/>
        <pt x="218" y="11" on="0"/>
        <pt x="334" y="11" on="1"/>
        <pt x="449" y="11" on="0"/>
        <pt x="544" y="121" on="0"/>
        <pt x="544" y="255" on="1"/>
        <pt x="544" y="690" on="1"/>
      </contour>
    </TTGlyph>
    <TTGlyph name="Udieresis" xMin="98" yMin="-12" xMax="569" yMax="856">
      <contour>
        <pt x="241" y="856" on="1"/>
        <pt x="251" y="856" on="1"/>
        <pt x="261" y="856" on="0"/>
        <pt x="261" y="845" on="1"/>
        <pt x="261" y="789" on="1"/>
        <pt x="261" y="778" on="0"/>
        <pt x="251" y="778" on="1"/>
        <pt x="241" y="778" on="1"/>
        <pt x="231" y="778" on="0"/>
        <pt x="231" y="789" on="1"/>
        <pt x="231" y="845" on="1"/>
        <pt x="231" y="856" on="0"/>
      </contour>
      <contour>
        <pt x="418" y="856" on="1"/>
        <pt x="428" y="856" on="1"/>
        <pt x="438" y="856" on="0"/>
        <pt x="438" y="845" on="1"/>
        <pt x="438" y="789" on="1"/>
        <pt x="438" y="778" on="0"/>
        <pt x="428" y="778" on="1"/>
        <pt x="418" y="778" on="1"/>
        <pt x="408" y="778" on="0"/>
        <pt x="408" y="789" on="1"/>
        <pt x="408" y="845" on="1"/>
        <pt x="408" y="856" on="0"/>
      </contour>
      <contour>
        <pt x="569" y="690" on="1"/>
        <pt x="569" y="255" on="1"/>
        <pt x="569" y="110" on="0"/>
        <pt x="462" y="-12" on="0"/>
        <pt x="334" y="-12" on="1"/>
        <pt x="205" y="-12" on="0"/>
        <pt x="98" y="110" on="0"/>
        <pt x="98" y="255" on="1"/>
        <pt x="98" y="690" on="1"/>
        <pt x="123" y="690" on="1"/>
        <pt x="123" y="255" on="1"/>
        <pt x="123" y="121" on="0"/>
        <pt x="218" y="11" on="0"/>
        <pt x="334" y="11" on="1"/>
        <pt x="449" y="11" on="0"/>
        <pt x="544" y="121" on="0"/>
        <pt x="544" y="255" on="1"/>
        <pt x="544" y="690" on="1"/>
      </contour>
    </TTGlyph>
    <TTGlyph name="Ugrave" xMin="98" yMin="-12" xMax="569" yMax="894">
      <contour>
        <pt x="374" y="749" on="1"/>
        <pt x="360" y="736" on="1"/>
        <pt x="207" y="877" on="1"/>
        <pt x="225" y="894" on="1"/>
      </contour>
      <contour>
        <pt x="569" y="690" on="1"/>
        <pt x="569" y="255" on="1"/>
        <pt x="569" y="110" on="0"/>
        <pt x="462" y="-12" on="0"/>
        <pt x="334" y="-12" on="1"/>
        <pt x="205" y="-12" on="0"/>
        <pt x="98" y="110" on="0"/>
        <pt x="98" y="255" on="1"/>
        <pt x="98" y="690" on="1"/>
        <pt x="123" y="690" on="1"/>
        <pt x="123" y="255" on="1"/>
        <pt x="123" y="121" on="0"/>
        <pt x="218" y="11" on="0"/>
        <pt x="334" y="11" on="1"/>
        <pt x="449" y="11" on="0"/>
        <pt x="544" y="121" on="0"/>
        <pt x="544" y="255" on="1"/>
        <pt x="544" y="690" on="1"/>
      </contour>
    </TTGlyph>
    <TTGlyph name="Uhungarumlaut" xMin="98" yMin="-12" xMax="569" yMax="901">
      <contour>
        <pt x="371" y="886" on="1"/>
        <pt x="254" y="734" on="1"/>
        <pt x="238" y="744" on="1"/>
        <pt x="349" y="901" on="1"/>
      </contour>
      <contour>
        <pt x="511" y="886" on="1"/>
        <pt x="394" y="734" on="1"/>
        <pt x="378" y="744" on="1"/>
        <pt x="489" y="901" on="1"/>
      </contour>
      <contour>
        <pt x="569" y="690" on="1"/>
        <pt x="569" y="255" on="1"/>
        <pt x="569" y="110" on="0"/>
        <pt x="462" y="-12" on="0"/>
        <pt x="334" y="-12" on="1"/>
        <pt x="205" y="-12" on="0"/>
        <pt x="98" y="110" on="0"/>
        <pt x="98" y="255" on="1"/>
        <pt x="98" y="690" on="1"/>
        <pt x="123" y="690" on="1"/>
        <pt x="123" y="255" on="1"/>
        <pt x="123" y="121" on="0"/>
        <pt x="218" y="11" on="0"/>
        <pt x="334" y="11" on="1"/>
        <pt x="449" y="11" on="0"/>
        <pt x="544" y="121" on="0"/>
        <pt x="544" y="255" on="1"/>
        <pt x="544" y="690" on="1"/>
      </contour>
    </TTGlyph>
    <TTGlyph name="Umacron" xMin="98" yMin="-12" xMax="569" yMax="827">
      <contour>
        <pt x="465" y="804" on="1"/>
        <pt x="205" y="804" on="1"/>
        <pt x="205" y="827" on="1"/>
        <pt x="465" y="827" on="1"/>
      </contour>
      <contour>
        <pt x="569" y="690" on="1"/>
        <pt x="569" y="255" on="1"/>
        <pt x="569" y="110" on="0"/>
        <pt x="462" y="-12" on="0"/>
        <pt x="334" y="-12" on="1"/>
        <pt x="205" y="-12" on="0"/>
        <pt x="98" y="110" on="0"/>
        <pt x="98" y="255" on="1"/>
        <pt x="98" y="690" on="1"/>
        <pt x="123" y="690" on="1"/>
        <pt x="123" y="255" on="1"/>
        <pt x="123" y="121" on="0"/>
        <pt x="218" y="11" on="0"/>
        <pt x="334" y="11" on="1"/>
        <pt x="449" y="11" on="0"/>
        <pt x="544" y="121" on="0"/>
        <pt x="544" y="255" on="1"/>
        <pt x="544" y="690" on="1"/>
      </contour>
    </TTGlyph>
    <TTGlyph name="Uogonek" xMin="98" yMin="-211" xMax="569" yMax="690">
      <contour>
        <pt x="569" y="690" on="1"/>
        <pt x="569" y="255" on="1"/>
        <pt x="569" y="121" on="0"/>
        <pt x="478" y="-3" on="0"/>
        <pt x="372" y="-11" on="1"/>
        <pt x="310" y="-73" on="0"/>
        <pt x="287" y="-135" on="1"/>
        <pt x="271" y="-181" on="0"/>
        <pt x="323" y="-212" on="0"/>
        <pt x="380" y="-191" on="1"/>
        <pt x="383" y="-203" on="1"/>
        <pt x="307" y="-235" on="0"/>
        <pt x="246" y="-187" on="0"/>
        <pt x="265" y="-133" on="1"/>
        <pt x="287" y="-71" on="0"/>
        <pt x="351" y="-12" on="1"/>
        <pt x="334" y="-12" on="1"/>
        <pt x="205" y="-12" on="0"/>
        <pt x="98" y="110" on="0"/>
        <pt x="98" y="255" on="1"/>
        <pt x="98" y="690" on="1"/>
        <pt x="123" y="690" on="1"/>
        <pt x="123" y="255" on="1"/>
        <pt x="123" y="121" on="0"/>
        <pt x="218" y="11" on="0"/>
        <pt x="334" y="11" on="1"/>
        <pt x="449" y="11" on="0"/>
        <pt x="544" y="121" on="0"/>
        <pt x="544" y="255" on="1"/>
        <pt x="544" y="690" on="1"/>
      </contour>
    </TTGlyph>
    <TTGlyph name="Uring" xMin="98" yMin="-12" xMax="569" yMax="909">
      <contour>
        <pt x="295" y="909" on="0"/>
        <pt x="375" y="909" on="0"/>
        <pt x="431" y="853" on="0"/>
        <pt x="431" y="814" on="1"/>
        <pt x="431" y="774" on="0"/>
        <pt x="375" y="719" on="0"/>
        <pt x="295" y="719" on="0"/>
        <pt x="239" y="774" on="0"/>
        <pt x="239" y="814" on="1"/>
        <pt x="239" y="853" on="0"/>
      </contour>
      <contour>
        <pt x="367" y="890" on="0"/>
        <pt x="303" y="890" on="0"/>
        <pt x="260" y="846" on="0"/>
        <pt x="260" y="814" on="1"/>
        <pt x="260" y="781" on="0"/>
        <pt x="303" y="738" on="0"/>
        <pt x="367" y="738" on="0"/>
        <pt x="410" y="781" on="0"/>
        <pt x="410" y="814" on="1"/>
        <pt x="410" y="846" on="0"/>
      </contour>
      <contour>
        <pt x="569" y="690" on="1"/>
        <pt x="569" y="255" on="1"/>
        <pt x="569" y="110" on="0"/>
        <pt x="462" y="-12" on="0"/>
        <pt x="334" y="-12" on="1"/>
        <pt x="205" y="-12" on="0"/>
        <pt x="98" y="110" on="0"/>
        <pt x="98" y="255" on="1"/>
        <pt x="98" y="690" on="1"/>
        <pt x="123" y="690" on="1"/>
        <pt x="123" y="255" on="1"/>
        <pt x="123" y="121" on="0"/>
        <pt x="218" y="11" on="0"/>
        <pt x="334" y="11" on="1"/>
        <pt x="449" y="11" on="0"/>
        <pt x="544" y="121" on="0"/>
        <pt x="544" y="255" on="1"/>
        <pt x="544" y="690" on="1"/>
      </contour>
    </TTGlyph>
    <TTGlyph name="V" xMin="26" yMin="0" xMax="566" yMax="690">
      <contour>
        <pt x="566" y="690" on="1"/>
        <pt x="330" y="9" on="1"/>
        <pt x="326" y="0" on="0"/>
        <pt x="317" y="0" on="1"/>
        <pt x="275" y="0" on="1"/>
        <pt x="266" y="0" on="0"/>
        <pt x="262" y="9" on="1"/>
        <pt x="26" y="690" on="1"/>
        <pt x="53" y="690" on="1"/>
        <pt x="257" y="96" on="1"/>
        <pt x="269" y="63" on="0"/>
        <pt x="282" y="22" on="1"/>
        <pt x="310" y="22" on="1"/>
        <pt x="326" y="72" on="0"/>
        <pt x="335" y="97" on="1"/>
        <pt x="539" y="690" on="1"/>
      </contour>
    </TTGlyph>
    <TTGlyph name="W" xMin="33" yMin="0" xMax="897" yMax="690">
      <contour>
        <pt x="897" y="690" on="1"/>
        <pt x="714" y="10" on="1"/>
        <pt x="711" y="0" on="0"/>
        <pt x="700" y="0" on="1"/>
        <pt x="658" y="0" on="1"/>
        <pt x="647" y="0" on="0"/>
        <pt x="644" y="11" on="1"/>
        <pt x="497" y="591" on="1"/>
        <pt x="477" y="668" on="1"/>
        <pt x="453" y="668" on="1"/>
        <pt x="433" y="591" on="1"/>
        <pt x="286" y="11" on="1"/>
        <pt x="283" y="0" on="0"/>
        <pt x="272" y="0" on="1"/>
        <pt x="230" y="0" on="1"/>
        <pt x="219" y="0" on="0"/>
        <pt x="216" y="10" on="1"/>
        <pt x="33" y="690" on="1"/>
        <pt x="59" y="690" on="1"/>
        <pt x="219" y="91" on="1"/>
        <pt x="237" y="22" on="1"/>
        <pt x="265" y="22" on="1"/>
        <pt x="282" y="90" on="1"/>
        <pt x="432" y="679" on="1"/>
        <pt x="435" y="690" on="0"/>
        <pt x="446" y="690" on="1"/>
        <pt x="484" y="690" on="1"/>
        <pt x="495" y="690" on="0"/>
        <pt x="498" y="679" on="1"/>
        <pt x="648" y="91" on="1"/>
        <pt x="651" y="80" on="0"/>
        <pt x="662" y="34" on="0"/>
        <pt x="665" y="22" on="1"/>
        <pt x="693" y="22" on="1"/>
        <pt x="711" y="90" on="1"/>
        <pt x="871" y="690" on="1"/>
      </contour>
    </TTGlyph>
    <TTGlyph name="Wacute" xMin="33" yMin="0" xMax="897" yMax="894">
      <contour>
        <pt x="585" y="877" on="1"/>
        <pt x="432" y="736" on="1"/>
        <pt x="418" y="749" on="1"/>
        <pt x="567" y="894" on="1"/>
      </contour>
      <contour>
        <pt x="897" y="690" on="1"/>
        <pt x="714" y="10" on="1"/>
        <pt x="711" y="0" on="0"/>
        <pt x="700" y="0" on="1"/>
        <pt x="658" y="0" on="1"/>
        <pt x="647" y="0" on="0"/>
        <pt x="644" y="11" on="1"/>
        <pt x="497" y="591" on="1"/>
        <pt x="477" y="668" on="1"/>
        <pt x="453" y="668" on="1"/>
        <pt x="433" y="591" on="1"/>
        <pt x="286" y="11" on="1"/>
        <pt x="283" y="0" on="0"/>
        <pt x="272" y="0" on="1"/>
        <pt x="230" y="0" on="1"/>
        <pt x="219" y="0" on="0"/>
        <pt x="216" y="10" on="1"/>
        <pt x="33" y="690" on="1"/>
        <pt x="59" y="690" on="1"/>
        <pt x="219" y="91" on="1"/>
        <pt x="237" y="22" on="1"/>
        <pt x="265" y="22" on="1"/>
        <pt x="282" y="90" on="1"/>
        <pt x="432" y="679" on="1"/>
        <pt x="435" y="690" on="0"/>
        <pt x="446" y="690" on="1"/>
        <pt x="484" y="690" on="1"/>
        <pt x="495" y="690" on="0"/>
        <pt x="498" y="679" on="1"/>
        <pt x="648" y="91" on="1"/>
        <pt x="651" y="80" on="0"/>
        <pt x="662" y="34" on="0"/>
        <pt x="665" y="22" on="1"/>
        <pt x="693" y="22" on="1"/>
        <pt x="711" y="90" on="1"/>
        <pt x="871" y="690" on="1"/>
      </contour>
    </TTGlyph>
    <TTGlyph name="Wcircumflex" xMin="33" yMin="0" xMax="897" yMax="880">
      <contour>
        <pt x="610" y="763" on="1"/>
        <pt x="599" y="751" on="1"/>
        <pt x="469" y="853" on="1"/>
        <pt x="461" y="853" on="1"/>
        <pt x="332" y="751" on="1"/>
        <pt x="320" y="763" on="1"/>
        <pt x="456" y="880" on="1"/>
        <pt x="474" y="880" on="1"/>
      </contour>
      <contour>
        <pt x="897" y="690" on="1"/>
        <pt x="714" y="10" on="1"/>
        <pt x="711" y="0" on="0"/>
        <pt x="700" y="0" on="1"/>
        <pt x="658" y="0" on="1"/>
        <pt x="647" y="0" on="0"/>
        <pt x="644" y="11" on="1"/>
        <pt x="497" y="591" on="1"/>
        <pt x="477" y="668" on="1"/>
        <pt x="453" y="668" on="1"/>
        <pt x="433" y="591" on="1"/>
        <pt x="286" y="11" on="1"/>
        <pt x="283" y="0" on="0"/>
        <pt x="272" y="0" on="1"/>
        <pt x="230" y="0" on="1"/>
        <pt x="219" y="0" on="0"/>
        <pt x="216" y="10" on="1"/>
        <pt x="33" y="690" on="1"/>
        <pt x="59" y="690" on="1"/>
        <pt x="219" y="91" on="1"/>
        <pt x="237" y="22" on="1"/>
        <pt x="265" y="22" on="1"/>
        <pt x="282" y="90" on="1"/>
        <pt x="432" y="679" on="1"/>
        <pt x="435" y="690" on="0"/>
        <pt x="446" y="690" on="1"/>
        <pt x="484" y="690" on="1"/>
        <pt x="495" y="690" on="0"/>
        <pt x="498" y="679" on="1"/>
        <pt x="648" y="91" on="1"/>
        <pt x="651" y="80" on="0"/>
        <pt x="662" y="34" on="0"/>
        <pt x="665" y="22" on="1"/>
        <pt x="693" y="22" on="1"/>
        <pt x="711" y="90" on="1"/>
        <pt x="871" y="690" on="1"/>
      </contour>
    </TTGlyph>
    <TTGlyph name="Wdieresis" xMin="33" yMin="0" xMax="897" yMax="856">
      <contour>
        <pt x="372" y="856" on="1"/>
        <pt x="382" y="856" on="1"/>
        <pt x="392" y="856" on="0"/>
        <pt x="392" y="845" on="1"/>
        <pt x="392" y="789" on="1"/>
        <pt x="392" y="778" on="0"/>
        <pt x="382" y="778" on="1"/>
        <pt x="372" y="778" on="1"/>
        <pt x="362" y="778" on="0"/>
        <pt x="362" y="789" on="1"/>
        <pt x="362" y="845" on="1"/>
        <pt x="362" y="856" on="0"/>
      </contour>
      <contour>
        <pt x="549" y="856" on="1"/>
        <pt x="559" y="856" on="1"/>
        <pt x="569" y="856" on="0"/>
        <pt x="569" y="845" on="1"/>
        <pt x="569" y="789" on="1"/>
        <pt x="569" y="778" on="0"/>
        <pt x="559" y="778" on="1"/>
        <pt x="549" y="778" on="1"/>
        <pt x="539" y="778" on="0"/>
        <pt x="539" y="789" on="1"/>
        <pt x="539" y="845" on="1"/>
        <pt x="539" y="856" on="0"/>
      </contour>
      <contour>
        <pt x="897" y="690" on="1"/>
        <pt x="714" y="10" on="1"/>
        <pt x="711" y="0" on="0"/>
        <pt x="700" y="0" on="1"/>
        <pt x="658" y="0" on="1"/>
        <pt x="647" y="0" on="0"/>
        <pt x="644" y="11" on="1"/>
        <pt x="497" y="591" on="1"/>
        <pt x="477" y="668" on="1"/>
        <pt x="453" y="668" on="1"/>
        <pt x="433" y="591" on="1"/>
        <pt x="286" y="11" on="1"/>
        <pt x="283" y="0" on="0"/>
        <pt x="272" y="0" on="1"/>
        <pt x="230" y="0" on="1"/>
        <pt x="219" y="0" on="0"/>
        <pt x="216" y="10" on="1"/>
        <pt x="33" y="690" on="1"/>
        <pt x="59" y="690" on="1"/>
        <pt x="219" y="91" on="1"/>
        <pt x="237" y="22" on="1"/>
        <pt x="265" y="22" on="1"/>
        <pt x="282" y="90" on="1"/>
        <pt x="432" y="679" on="1"/>
        <pt x="435" y="690" on="0"/>
        <pt x="446" y="690" on="1"/>
        <pt x="484" y="690" on="1"/>
        <pt x="495" y="690" on="0"/>
        <pt x="498" y="679" on="1"/>
        <pt x="648" y="91" on="1"/>
        <pt x="651" y="80" on="0"/>
        <pt x="662" y="34" on="0"/>
        <pt x="665" y="22" on="1"/>
        <pt x="693" y="22" on="1"/>
        <pt x="711" y="90" on="1"/>
        <pt x="871" y="690" on="1"/>
      </contour>
    </TTGlyph>
    <TTGlyph name="Wgrave" xMin="33" yMin="0" xMax="897" yMax="894">
      <contour>
        <pt x="505" y="749" on="1"/>
        <pt x="491" y="736" on="1"/>
        <pt x="338" y="877" on="1"/>
        <pt x="356" y="894" on="1"/>
      </contour>
      <contour>
        <pt x="897" y="690" on="1"/>
        <pt x="714" y="10" on="1"/>
        <pt x="711" y="0" on="0"/>
        <pt x="700" y="0" on="1"/>
        <pt x="658" y="0" on="1"/>
        <pt x="647" y="0" on="0"/>
        <pt x="644" y="11" on="1"/>
        <pt x="497" y="591" on="1"/>
        <pt x="477" y="668" on="1"/>
        <pt x="453" y="668" on="1"/>
        <pt x="433" y="591" on="1"/>
        <pt x="286" y="11" on="1"/>
        <pt x="283" y="0" on="0"/>
        <pt x="272" y="0" on="1"/>
        <pt x="230" y="0" on="1"/>
        <pt x="219" y="0" on="0"/>
        <pt x="216" y="10" on="1"/>
        <pt x="33" y="690" on="1"/>
        <pt x="59" y="690" on="1"/>
        <pt x="219" y="91" on="1"/>
        <pt x="237" y="22" on="1"/>
        <pt x="265" y="22" on="1"/>
        <pt x="282" y="90" on="1"/>
        <pt x="432" y="679" on="1"/>
        <pt x="435" y="690" on="0"/>
        <pt x="446" y="690" on="1"/>
        <pt x="484" y="690" on="1"/>
        <pt x="495" y="690" on="0"/>
        <pt x="498" y="679" on="1"/>
        <pt x="648" y="91" on="1"/>
        <pt x="651" y="80" on="0"/>
        <pt x="662" y="34" on="0"/>
        <pt x="665" y="22" on="1"/>
        <pt x="693" y="22" on="1"/>
        <pt x="711" y="90" on="1"/>
        <pt x="871" y="690" on="1"/>
      </contour>
    </TTGlyph>
    <TTGlyph name="X" xMin="38" yMin="0" xMax="555" yMax="690">
      <contour>
        <pt x="312" y="350" on="1"/>
        <pt x="281" y="350" on="1"/>
        <pt x="68" y="0" on="1"/>
        <pt x="38" y="0" on="1"/>
        <pt x="257" y="360" on="1"/>
        <pt x="51" y="690" on="1"/>
        <pt x="81" y="690" on="1"/>
        <pt x="280" y="372" on="1"/>
        <pt x="313" y="372" on="1"/>
        <pt x="512" y="690" on="1"/>
        <pt x="542" y="690" on="1"/>
        <pt x="336" y="360" on="1"/>
        <pt x="555" y="0" on="1"/>
        <pt x="525" y="0" on="1"/>
      </contour>
    </TTGlyph>
    <TTGlyph name="Y" xMin="22" yMin="0" xMax="518" yMax="690">
      <contour>
        <pt x="283" y="257" on="1"/>
        <pt x="283" y="0" on="1"/>
        <pt x="258" y="0" on="1"/>
        <pt x="258" y="257" on="1"/>
        <pt x="22" y="690" on="1"/>
        <pt x="50" y="690" on="1"/>
        <pt x="230" y="357" on="1"/>
        <pt x="256" y="309" on="0"/>
        <pt x="268" y="289" on="1"/>
        <pt x="273" y="289" on="1"/>
        <pt x="277" y="296" on="0"/>
        <pt x="304" y="344" on="0"/>
        <pt x="310" y="356" on="1"/>
        <pt x="490" y="690" on="1"/>
        <pt x="518" y="690" on="1"/>
      </contour>
    </TTGlyph>
    <TTGlyph name="Yacute" xMin="22" yMin="0" xMax="518" yMax="894">
      <contour>
        <pt x="237" y="736" on="1"/>
        <pt x="223" y="749" on="1"/>
        <pt x="372" y="894" on="1"/>
        <pt x="390" y="877" on="1"/>
      </contour>
      <contour>
        <pt x="283" y="257" on="1"/>
        <pt x="283" y="0" on="1"/>
        <pt x="258" y="0" on="1"/>
        <pt x="258" y="257" on="1"/>
        <pt x="22" y="690" on="1"/>
        <pt x="50" y="690" on="1"/>
        <pt x="230" y="357" on="1"/>
        <pt x="256" y="309" on="0"/>
        <pt x="268" y="289" on="1"/>
        <pt x="273" y="289" on="1"/>
        <pt x="277" y="296" on="0"/>
        <pt x="304" y="344" on="0"/>
        <pt x="310" y="356" on="1"/>
        <pt x="490" y="690" on="1"/>
        <pt x="518" y="690" on="1"/>
      </contour>
    </TTGlyph>
    <TTGlyph name="Ycircumflex" xMin="22" yMin="0" xMax="518" yMax="880">
      <contour>
        <pt x="137" y="751" on="1"/>
        <pt x="125" y="763" on="1"/>
        <pt x="261" y="880" on="1"/>
        <pt x="279" y="880" on="1"/>
        <pt x="415" y="763" on="1"/>
        <pt x="404" y="751" on="1"/>
        <pt x="274" y="853" on="1"/>
        <pt x="266" y="853" on="1"/>
      </contour>
      <contour>
        <pt x="283" y="257" on="1"/>
        <pt x="283" y="0" on="1"/>
        <pt x="258" y="0" on="1"/>
        <pt x="258" y="257" on="1"/>
        <pt x="22" y="690" on="1"/>
        <pt x="50" y="690" on="1"/>
        <pt x="230" y="357" on="1"/>
        <pt x="256" y="309" on="0"/>
        <pt x="268" y="289" on="1"/>
        <pt x="273" y="289" on="1"/>
        <pt x="277" y="296" on="0"/>
        <pt x="304" y="344" on="0"/>
        <pt x="310" y="356" on="1"/>
        <pt x="490" y="690" on="1"/>
        <pt x="518" y="690" on="1"/>
      </contour>
    </TTGlyph>
    <TTGlyph name="Ydieresis" xMin="22" yMin="0" xMax="518" yMax="856">
      <contour>
        <pt x="187" y="778" on="1"/>
        <pt x="177" y="778" on="1"/>
        <pt x="167" y="778" on="0"/>
        <pt x="167" y="789" on="1"/>
        <pt x="167" y="845" on="1"/>
        <pt x="167" y="856" on="0"/>
        <pt x="177" y="856" on="1"/>
        <pt x="187" y="856" on="1"/>
        <pt x="197" y="856" on="0"/>
        <pt x="197" y="845" on="1"/>
        <pt x="197" y="789" on="1"/>
        <pt x="197" y="778" on="0"/>
      </contour>
      <contour>
        <pt x="364" y="778" on="1"/>
        <pt x="354" y="778" on="1"/>
        <pt x="344" y="778" on="0"/>
        <pt x="344" y="789" on="1"/>
        <pt x="344" y="845" on="1"/>
        <pt x="344" y="856" on="0"/>
        <pt x="354" y="856" on="1"/>
        <pt x="364" y="856" on="1"/>
        <pt x="374" y="856" on="0"/>
        <pt x="374" y="845" on="1"/>
        <pt x="374" y="789" on="1"/>
        <pt x="374" y="778" on="0"/>
      </contour>
      <contour>
        <pt x="283" y="257" on="1"/>
        <pt x="283" y="0" on="1"/>
        <pt x="258" y="0" on="1"/>
        <pt x="258" y="257" on="1"/>
        <pt x="22" y="690" on="1"/>
        <pt x="50" y="690" on="1"/>
        <pt x="230" y="357" on="1"/>
        <pt x="256" y="309" on="0"/>
        <pt x="268" y="289" on="1"/>
        <pt x="273" y="289" on="1"/>
        <pt x="277" y="296" on="0"/>
        <pt x="304" y="344" on="0"/>
        <pt x="310" y="356" on="1"/>
        <pt x="490" y="690" on="1"/>
        <pt x="518" y="690" on="1"/>
      </contour>
    </TTGlyph>
    <TTGlyph name="Ygrave" xMin="22" yMin="0" xMax="518" yMax="894">
      <contour>
        <pt x="296" y="736" on="1"/>
        <pt x="143" y="877" on="1"/>
        <pt x="161" y="894" on="1"/>
        <pt x="310" y="749" on="1"/>
      </contour>
      <contour>
        <pt x="283" y="257" on="1"/>
        <pt x="283" y="0" on="1"/>
        <pt x="258" y="0" on="1"/>
        <pt x="258" y="257" on="1"/>
        <pt x="22" y="690" on="1"/>
        <pt x="50" y="690" on="1"/>
        <pt x="230" y="357" on="1"/>
        <pt x="256" y="309" on="0"/>
        <pt x="268" y="289" on="1"/>
        <pt x="273" y="289" on="1"/>
        <pt x="277" y="296" on="0"/>
        <pt x="304" y="344" on="0"/>
        <pt x="310" y="356" on="1"/>
        <pt x="490" y="690" on="1"/>
        <pt x="518" y="690" on="1"/>
      </contour>
    </TTGlyph>
    <TTGlyph name="Z" xMin="52" yMin="0" xMax="507" yMax="690">
      <contour>
        <pt x="507" y="23" on="1"/>
        <pt x="507" y="0" on="1"/>
        <pt x="52" y="0" on="1"/>
        <pt x="52" y="23" on="1"/>
        <pt x="473" y="667" on="1"/>
        <pt x="55" y="667" on="1"/>
        <pt x="55" y="690" on="1"/>
        <pt x="502" y="690" on="1"/>
        <pt x="502" y="667" on="1"/>
        <pt x="81" y="23" on="1"/>
      </contour>
    </TTGlyph>
    <TTGlyph name="Zacute" xMin="52" yMin="0" xMax="507" yMax="894">
      <contour>
        <pt x="245" y="736" on="1"/>
        <pt x="231" y="749" on="1"/>
        <pt x="380" y="894" on="1"/>
        <pt x="398" y="877" on="1"/>
      </contour>
      <contour>
        <pt x="507" y="23" on="1"/>
        <pt x="507" y="0" on="1"/>
        <pt x="52" y="0" on="1"/>
        <pt x="52" y="23" on="1"/>
        <pt x="473" y="667" on="1"/>
        <pt x="55" y="667" on="1"/>
        <pt x="55" y="690" on="1"/>
        <pt x="502" y="690" on="1"/>
        <pt x="502" y="667" on="1"/>
        <pt x="81" y="23" on="1"/>
      </contour>
    </TTGlyph>
    <TTGlyph name="Zcaron" xMin="52" yMin="0" xMax="507" yMax="880">
      <contour>
        <pt x="271" y="751" on="1"/>
        <pt x="134" y="868" on="1"/>
        <pt x="147" y="880" on="1"/>
        <pt x="276" y="778" on="1"/>
        <pt x="284" y="778" on="1"/>
        <pt x="414" y="880" on="1"/>
        <pt x="426" y="868" on="1"/>
        <pt x="289" y="751" on="1"/>
      </contour>
      <contour>
        <pt x="507" y="23" on="1"/>
        <pt x="507" y="0" on="1"/>
        <pt x="52" y="0" on="1"/>
        <pt x="52" y="23" on="1"/>
        <pt x="473" y="667" on="1"/>
        <pt x="55" y="667" on="1"/>
        <pt x="55" y="690" on="1"/>
        <pt x="502" y="690" on="1"/>
        <pt x="502" y="667" on="1"/>
        <pt x="81" y="23" on="1"/>
      </contour>
    </TTGlyph>
    <TTGlyph name="Zdotaccent" xMin="52" yMin="0" xMax="507" yMax="860">
      <contour>
        <pt x="284" y="774" on="1"/>
        <pt x="274" y="774" on="1"/>
        <pt x="262" y="774" on="0"/>
        <pt x="262" y="786" on="1"/>
        <pt x="262" y="848" on="1"/>
        <pt x="262" y="860" on="0"/>
        <pt x="274" y="860" on="1"/>
        <pt x="284" y="860" on="1"/>
        <pt x="296" y="860" on="0"/>
        <pt x="296" y="848" on="1"/>
        <pt x="296" y="786" on="1"/>
        <pt x="296" y="774" on="0"/>
      </contour>
      <contour>
        <pt x="507" y="23" on="1"/>
        <pt x="507" y="0" on="1"/>
        <pt x="52" y="0" on="1"/>
        <pt x="52" y="23" on="1"/>
        <pt x="473" y="667" on="1"/>
        <pt x="55" y="667" on="1"/>
        <pt x="55" y="690" on="1"/>
        <pt x="502" y="690" on="1"/>
        <pt x="502" y="667" on="1"/>
        <pt x="81" y="23" on="1"/>
      </contour>
    </TTGlyph>
    <TTGlyph name="a" xMin="66" yMin="-6" xMax="447" yMax="492">
      <contour>
        <pt x="88" y="453" on="1"/>
        <pt x="85" y="471" on="1"/>
        <pt x="234" y="492" on="0"/>
        <pt x="314" y="492" on="1"/>
        <pt x="447" y="492" on="0"/>
        <pt x="447" y="358" on="1"/>
        <pt x="447" y="0" on="1"/>
        <pt x="429" y="0" on="1"/>
        <pt x="424" y="93" on="1"/>
        <pt x="389" y="57" on="0"/>
        <pt x="255" y="-6" on="0"/>
        <pt x="191" y="-6" on="1"/>
        <pt x="131" y="-6" on="0"/>
        <pt x="66" y="57" on="0"/>
        <pt x="66" y="115" on="1"/>
        <pt x="66" y="177" on="1"/>
        <pt x="66" y="231" on="0"/>
        <pt x="126" y="290" on="0"/>
        <pt x="181" y="290" on="1"/>
        <pt x="423" y="290" on="1"/>
        <pt x="423" y="358" on="1"/>
        <pt x="423" y="469" on="0"/>
        <pt x="313" y="469" on="1"/>
        <pt x="214" y="469" on="0"/>
      </contour>
      <contour>
        <pt x="91" y="177" on="1"/>
        <pt x="91" y="115" on="1"/>
        <pt x="91" y="20" on="0"/>
        <pt x="191" y="18" on="1"/>
        <pt x="246" y="17" on="0"/>
        <pt x="380" y="76" on="0"/>
        <pt x="423" y="117" on="1"/>
        <pt x="423" y="270" on="1"/>
        <pt x="181" y="266" on="1"/>
        <pt x="91" y="264" on="0"/>
      </contour>
    </TTGlyph>
    <TTGlyph name="aacute" xMin="66" yMin="-6" xMax="447" yMax="712">
      <contour>
        <pt x="233" y="554" on="1"/>
        <pt x="219" y="567" on="1"/>
        <pt x="368" y="712" on="1"/>
        <pt x="386" y="695" on="1"/>
      </contour>
      <contour>
        <pt x="88" y="453" on="1"/>
        <pt x="85" y="471" on="1"/>
        <pt x="234" y="492" on="0"/>
        <pt x="314" y="492" on="1"/>
        <pt x="447" y="492" on="0"/>
        <pt x="447" y="358" on="1"/>
        <pt x="447" y="0" on="1"/>
        <pt x="429" y="0" on="1"/>
        <pt x="424" y="93" on="1"/>
        <pt x="389" y="57" on="0"/>
        <pt x="255" y="-6" on="0"/>
        <pt x="191" y="-6" on="1"/>
        <pt x="131" y="-6" on="0"/>
        <pt x="66" y="57" on="0"/>
        <pt x="66" y="115" on="1"/>
        <pt x="66" y="177" on="1"/>
        <pt x="66" y="231" on="0"/>
        <pt x="126" y="290" on="0"/>
        <pt x="181" y="290" on="1"/>
        <pt x="423" y="290" on="1"/>
        <pt x="423" y="358" on="1"/>
        <pt x="423" y="469" on="0"/>
        <pt x="313" y="469" on="1"/>
        <pt x="214" y="469" on="0"/>
      </contour>
      <contour>
        <pt x="91" y="177" on="1"/>
        <pt x="91" y="115" on="1"/>
        <pt x="91" y="20" on="0"/>
        <pt x="191" y="18" on="1"/>
        <pt x="246" y="17" on="0"/>
        <pt x="380" y="76" on="0"/>
        <pt x="423" y="117" on="1"/>
        <pt x="423" y="270" on="1"/>
        <pt x="181" y="266" on="1"/>
        <pt x="91" y="264" on="0"/>
      </contour>
    </TTGlyph>
    <TTGlyph name="abreve" xMin="66" yMin="-6" xMax="447" yMax="691">
      <contour>
        <pt x="384" y="691" on="1"/>
        <pt x="402" y="687" on="1"/>
        <pt x="402" y="634" on="0"/>
        <pt x="329" y="573" on="0"/>
        <pt x="267" y="573" on="1"/>
        <pt x="204" y="573" on="0"/>
        <pt x="130" y="634" on="0"/>
        <pt x="130" y="687" on="1"/>
        <pt x="148" y="691" on="1"/>
        <pt x="148" y="646" on="0"/>
        <pt x="212" y="597" on="0"/>
        <pt x="267" y="597" on="1"/>
        <pt x="321" y="597" on="0"/>
        <pt x="384" y="647" on="0"/>
      </contour>
      <contour>
        <pt x="88" y="453" on="1"/>
        <pt x="85" y="471" on="1"/>
        <pt x="234" y="492" on="0"/>
        <pt x="314" y="492" on="1"/>
        <pt x="447" y="492" on="0"/>
        <pt x="447" y="358" on="1"/>
        <pt x="447" y="0" on="1"/>
        <pt x="429" y="0" on="1"/>
        <pt x="424" y="93" on="1"/>
        <pt x="389" y="57" on="0"/>
        <pt x="255" y="-6" on="0"/>
        <pt x="191" y="-6" on="1"/>
        <pt x="131" y="-6" on="0"/>
        <pt x="66" y="57" on="0"/>
        <pt x="66" y="115" on="1"/>
        <pt x="66" y="177" on="1"/>
        <pt x="66" y="231" on="0"/>
        <pt x="126" y="290" on="0"/>
        <pt x="181" y="290" on="1"/>
        <pt x="423" y="290" on="1"/>
        <pt x="423" y="358" on="1"/>
        <pt x="423" y="469" on="0"/>
        <pt x="313" y="469" on="1"/>
        <pt x="214" y="469" on="0"/>
      </contour>
      <contour>
        <pt x="91" y="177" on="1"/>
        <pt x="91" y="115" on="1"/>
        <pt x="91" y="20" on="0"/>
        <pt x="191" y="18" on="1"/>
        <pt x="246" y="17" on="0"/>
        <pt x="380" y="76" on="0"/>
        <pt x="423" y="117" on="1"/>
        <pt x="423" y="270" on="1"/>
        <pt x="181" y="266" on="1"/>
        <pt x="91" y="264" on="0"/>
      </contour>
    </TTGlyph>
    <TTGlyph name="acircumflex" xMin="66" yMin="-6" xMax="447" yMax="698">
      <contour>
        <pt x="133" y="569" on="1"/>
        <pt x="121" y="581" on="1"/>
        <pt x="257" y="698" on="1"/>
        <pt x="275" y="698" on="1"/>
        <pt x="411" y="581" on="1"/>
        <pt x="400" y="569" on="1"/>
        <pt x="270" y="671" on="1"/>
        <pt x="262" y="671" on="1"/>
      </contour>
      <contour>
        <pt x="88" y="453" on="1"/>
        <pt x="85" y="471" on="1"/>
        <pt x="234" y="492" on="0"/>
        <pt x="314" y="492" on="1"/>
        <pt x="447" y="492" on="0"/>
        <pt x="447" y="358" on="1"/>
        <pt x="447" y="0" on="1"/>
        <pt x="429" y="0" on="1"/>
        <pt x="424" y="93" on="1"/>
        <pt x="389" y="57" on="0"/>
        <pt x="255" y="-6" on="0"/>
        <pt x="191" y="-6" on="1"/>
        <pt x="131" y="-6" on="0"/>
        <pt x="66" y="57" on="0"/>
        <pt x="66" y="115" on="1"/>
        <pt x="66" y="177" on="1"/>
        <pt x="66" y="231" on="0"/>
        <pt x="126" y="290" on="0"/>
        <pt x="181" y="290" on="1"/>
        <pt x="423" y="290" on="1"/>
        <pt x="423" y="358" on="1"/>
        <pt x="423" y="469" on="0"/>
        <pt x="313" y="469" on="1"/>
        <pt x="214" y="469" on="0"/>
      </contour>
      <contour>
        <pt x="91" y="177" on="1"/>
        <pt x="91" y="115" on="1"/>
        <pt x="91" y="20" on="0"/>
        <pt x="191" y="18" on="1"/>
        <pt x="246" y="17" on="0"/>
        <pt x="380" y="76" on="0"/>
        <pt x="423" y="117" on="1"/>
        <pt x="423" y="270" on="1"/>
        <pt x="181" y="266" on="1"/>
        <pt x="91" y="264" on="0"/>
      </contour>
    </TTGlyph>
    <TTGlyph name="acute" xMin="60" yMin="550" xMax="227" yMax="708">
      <contour>
        <pt x="227" y="691" on="1"/>
        <pt x="74" y="550" on="1"/>
        <pt x="60" y="563" on="1"/>
        <pt x="209" y="708" on="1"/>
      </contour>
    </TTGlyph>
    <TTGlyph name="adieresis" xMin="66" yMin="-6" xMax="447" yMax="674">
      <contour>
        <pt x="183" y="596" on="1"/>
        <pt x="173" y="596" on="1"/>
        <pt x="163" y="596" on="0"/>
        <pt x="163" y="607" on="1"/>
        <pt x="163" y="663" on="1"/>
        <pt x="163" y="674" on="0"/>
        <pt x="173" y="674" on="1"/>
        <pt x="183" y="674" on="1"/>
        <pt x="193" y="674" on="0"/>
        <pt x="193" y="663" on="1"/>
        <pt x="193" y="607" on="1"/>
        <pt x="193" y="596" on="0"/>
      </contour>
      <contour>
        <pt x="360" y="596" on="1"/>
        <pt x="350" y="596" on="1"/>
        <pt x="340" y="596" on="0"/>
        <pt x="340" y="607" on="1"/>
        <pt x="340" y="663" on="1"/>
        <pt x="340" y="674" on="0"/>
        <pt x="350" y="674" on="1"/>
        <pt x="360" y="674" on="1"/>
        <pt x="370" y="674" on="0"/>
        <pt x="370" y="663" on="1"/>
        <pt x="370" y="607" on="1"/>
        <pt x="370" y="596" on="0"/>
      </contour>
      <contour>
        <pt x="88" y="453" on="1"/>
        <pt x="85" y="471" on="1"/>
        <pt x="234" y="492" on="0"/>
        <pt x="314" y="492" on="1"/>
        <pt x="447" y="492" on="0"/>
        <pt x="447" y="358" on="1"/>
        <pt x="447" y="0" on="1"/>
        <pt x="429" y="0" on="1"/>
        <pt x="424" y="93" on="1"/>
        <pt x="389" y="57" on="0"/>
        <pt x="255" y="-6" on="0"/>
        <pt x="191" y="-6" on="1"/>
        <pt x="131" y="-6" on="0"/>
        <pt x="66" y="57" on="0"/>
        <pt x="66" y="115" on="1"/>
        <pt x="66" y="177" on="1"/>
        <pt x="66" y="231" on="0"/>
        <pt x="126" y="290" on="0"/>
        <pt x="181" y="290" on="1"/>
        <pt x="423" y="290" on="1"/>
        <pt x="423" y="358" on="1"/>
        <pt x="423" y="469" on="0"/>
        <pt x="313" y="469" on="1"/>
        <pt x="214" y="469" on="0"/>
      </contour>
      <contour>
        <pt x="91" y="177" on="1"/>
        <pt x="91" y="115" on="1"/>
        <pt x="91" y="20" on="0"/>
        <pt x="191" y="18" on="1"/>
        <pt x="246" y="17" on="0"/>
        <pt x="380" y="76" on="0"/>
        <pt x="423" y="117" on="1"/>
        <pt x="423" y="270" on="1"/>
        <pt x="181" y="266" on="1"/>
        <pt x="91" y="264" on="0"/>
      </contour>
    </TTGlyph>
    <TTGlyph name="ae" xMin="66" yMin="-12" xMax="818" yMax="492">
      <contour>
        <pt x="675" y="227" on="1"/>
        <pt x="448" y="227" on="1"/>
        <pt x="451" y="108" on="0"/>
        <pt x="541" y="11" on="0"/>
        <pt x="640" y="11" on="1"/>
        <pt x="723" y="11" on="0"/>
        <pt x="803" y="24" on="1"/>
        <pt x="807" y="6" on="1"/>
        <pt x="749" y="-12" on="0"/>
        <pt x="637" y="-12" on="1"/>
        <pt x="558" y="-12" on="0"/>
        <pt x="463" y="42" on="0"/>
        <pt x="442" y="101" on="1"/>
        <pt x="403" y="62" on="0"/>
        <pt x="260" y="-6" on="0"/>
        <pt x="191" y="-6" on="1"/>
        <pt x="131" y="-6" on="0"/>
        <pt x="66" y="57" on="0"/>
        <pt x="66" y="115" on="1"/>
        <pt x="66" y="177" on="1"/>
        <pt x="66" y="231" on="0"/>
        <pt x="126" y="290" on="0"/>
        <pt x="181" y="290" on="1"/>
        <pt x="423" y="290" on="1"/>
        <pt x="423" y="358" on="1"/>
        <pt x="423" y="469" on="0"/>
        <pt x="313" y="469" on="1"/>
        <pt x="214" y="469" on="0"/>
        <pt x="88" y="453" on="1"/>
        <pt x="85" y="471" on="1"/>
        <pt x="234" y="492" on="0"/>
        <pt x="314" y="492" on="1"/>
        <pt x="430" y="492" on="0"/>
        <pt x="445" y="391" on="1"/>
        <pt x="484" y="492" on="0"/>
        <pt x="629" y="492" on="1"/>
        <pt x="815" y="492" on="0"/>
        <pt x="818" y="356" on="1"/>
        <pt x="819" y="285" on="0"/>
        <pt x="754" y="227" on="0"/>
      </contour>
      <contour>
        <pt x="448" y="249" on="1"/>
        <pt x="675" y="249" on="1"/>
        <pt x="741" y="249" on="0"/>
        <pt x="794" y="296" on="0"/>
        <pt x="793" y="354" on="1"/>
        <pt x="790" y="469" on="0"/>
        <pt x="630" y="469" on="1"/>
        <pt x="531" y="469" on="0"/>
        <pt x="449" y="370" on="0"/>
      </contour>
      <contour>
        <pt x="91" y="177" on="1"/>
        <pt x="91" y="115" on="1"/>
        <pt x="91" y="20" on="0"/>
        <pt x="191" y="18" on="1"/>
        <pt x="248" y="17" on="0"/>
        <pt x="388" y="77" on="0"/>
        <pt x="436" y="121" on="1"/>
        <pt x="425" y="163" on="0"/>
        <pt x="423" y="224" on="1"/>
        <pt x="423" y="270" on="1"/>
        <pt x="181" y="266" on="1"/>
        <pt x="91" y="264" on="0"/>
      </contour>
    </TTGlyph>
    <TTGlyph name="agrave" xMin="66" yMin="-6" xMax="447" yMax="712">
      <contour>
        <pt x="292" y="554" on="1"/>
        <pt x="139" y="695" on="1"/>
        <pt x="157" y="712" on="1"/>
        <pt x="306" y="567" on="1"/>
      </contour>
      <contour>
        <pt x="88" y="453" on="1"/>
        <pt x="85" y="471" on="1"/>
        <pt x="234" y="492" on="0"/>
        <pt x="314" y="492" on="1"/>
        <pt x="447" y="492" on="0"/>
        <pt x="447" y="358" on="1"/>
        <pt x="447" y="0" on="1"/>
        <pt x="429" y="0" on="1"/>
        <pt x="424" y="93" on="1"/>
        <pt x="389" y="57" on="0"/>
        <pt x="255" y="-6" on="0"/>
        <pt x="191" y="-6" on="1"/>
        <pt x="131" y="-6" on="0"/>
        <pt x="66" y="57" on="0"/>
        <pt x="66" y="115" on="1"/>
        <pt x="66" y="177" on="1"/>
        <pt x="66" y="231" on="0"/>
        <pt x="126" y="290" on="0"/>
        <pt x="181" y="290" on="1"/>
        <pt x="423" y="290" on="1"/>
        <pt x="423" y="358" on="1"/>
        <pt x="423" y="469" on="0"/>
        <pt x="313" y="469" on="1"/>
        <pt x="214" y="469" on="0"/>
      </contour>
      <contour>
        <pt x="91" y="177" on="1"/>
        <pt x="91" y="115" on="1"/>
        <pt x="91" y="20" on="0"/>
        <pt x="191" y="18" on="1"/>
        <pt x="246" y="17" on="0"/>
        <pt x="380" y="76" on="0"/>
        <pt x="423" y="117" on="1"/>
        <pt x="423" y="270" on="1"/>
        <pt x="181" y="266" on="1"/>
        <pt x="91" y="264" on="0"/>
      </contour>
    </TTGlyph>
    <TTGlyph name="amacron" xMin="66" yMin="-6" xMax="447" yMax="645">
      <contour>
        <pt x="397" y="622" on="1"/>
        <pt x="137" y="622" on="1"/>
        <pt x="137" y="645" on="1"/>
        <pt x="397" y="645" on="1"/>
      </contour>
      <contour>
        <pt x="88" y="453" on="1"/>
        <pt x="85" y="471" on="1"/>
        <pt x="234" y="492" on="0"/>
        <pt x="314" y="492" on="1"/>
        <pt x="447" y="492" on="0"/>
        <pt x="447" y="358" on="1"/>
        <pt x="447" y="0" on="1"/>
        <pt x="429" y="0" on="1"/>
        <pt x="424" y="93" on="1"/>
        <pt x="389" y="57" on="0"/>
        <pt x="255" y="-6" on="0"/>
        <pt x="191" y="-6" on="1"/>
        <pt x="131" y="-6" on="0"/>
        <pt x="66" y="57" on="0"/>
        <pt x="66" y="115" on="1"/>
        <pt x="66" y="177" on="1"/>
        <pt x="66" y="231" on="0"/>
        <pt x="126" y="290" on="0"/>
        <pt x="181" y="290" on="1"/>
        <pt x="423" y="290" on="1"/>
        <pt x="423" y="358" on="1"/>
        <pt x="423" y="469" on="0"/>
        <pt x="313" y="469" on="1"/>
        <pt x="214" y="469" on="0"/>
      </contour>
      <contour>
        <pt x="91" y="177" on="1"/>
        <pt x="91" y="115" on="1"/>
        <pt x="91" y="20" on="0"/>
        <pt x="191" y="18" on="1"/>
        <pt x="246" y="17" on="0"/>
        <pt x="380" y="76" on="0"/>
        <pt x="423" y="117" on="1"/>
        <pt x="423" y="270" on="1"/>
        <pt x="181" y="266" on="1"/>
        <pt x="91" y="264" on="0"/>
      </contour>
    </TTGlyph>
    <TTGlyph name="ampersand" xMin="80" yMin="-8" xMax="726" yMax="698">
      <contour>
        <pt x="723" y="16" on="1"/>
        <pt x="726" y="0" on="1"/>
        <pt x="686" y="-6" on="0"/>
        <pt x="641" y="-6" on="1"/>
        <pt x="531" y="-6" on="0"/>
        <pt x="531" y="95" on="1"/>
        <pt x="531" y="96" on="1"/>
        <pt x="483" y="39" on="0"/>
        <pt x="365" y="-8" on="0"/>
        <pt x="279" y="-8" on="1"/>
        <pt x="170" y="-8" on="0"/>
        <pt x="80" y="71" on="0"/>
        <pt x="80" y="174" on="1"/>
        <pt x="80" y="258" on="0"/>
        <pt x="142" y="350" on="0"/>
        <pt x="217" y="356" on="1"/>
        <pt x="217" y="360" on="1"/>
        <pt x="154" y="365" on="0"/>
        <pt x="100" y="445" on="0"/>
        <pt x="100" y="521" on="1"/>
        <pt x="100" y="569" on="0"/>
        <pt x="121" y="633" on="0"/>
        <pt x="157" y="672" on="0"/>
        <pt x="225" y="692" on="0"/>
        <pt x="298" y="698" on="0"/>
        <pt x="357" y="698" on="1"/>
        <pt x="445" y="698" on="0"/>
        <pt x="516" y="690" on="1"/>
        <pt x="512" y="672" on="1"/>
        <pt x="483" y="675" on="0"/>
        <pt x="356" y="675" on="1"/>
        <pt x="220" y="675" on="0"/>
        <pt x="126" y="618" on="0"/>
        <pt x="126" y="520" on="1"/>
        <pt x="126" y="430" on="0"/>
        <pt x="202" y="368" on="0"/>
        <pt x="302" y="368" on="1"/>
        <pt x="531" y="368" on="1"/>
        <pt x="537" y="524" on="1"/>
        <pt x="555" y="524" on="1"/>
        <pt x="555" y="368" on="1"/>
        <pt x="696" y="368" on="1"/>
        <pt x="693" y="347" on="1"/>
        <pt x="555" y="347" on="1"/>
        <pt x="555" y="96" on="1"/>
        <pt x="555" y="16" on="0"/>
        <pt x="635" y="16" on="1"/>
      </contour>
      <contour>
        <pt x="531" y="347" on="1"/>
        <pt x="302" y="347" on="1"/>
        <pt x="193" y="347" on="0"/>
        <pt x="106" y="273" on="0"/>
        <pt x="106" y="174" on="1"/>
        <pt x="106" y="84" on="0"/>
        <pt x="181" y="15" on="0"/>
        <pt x="277" y="15" on="1"/>
        <pt x="367" y="15" on="0"/>
        <pt x="484" y="69" on="0"/>
        <pt x="531" y="130" on="1"/>
      </contour>
    </TTGlyph>
    <TTGlyph name="aogonek" xMin="66" yMin="-202" xMax="456" yMax="492">
      <contour>
        <pt x="453" y="-182" on="1"/>
        <pt x="456" y="-194" on="1"/>
        <pt x="380" y="-226" on="0"/>
        <pt x="319" y="-178" on="0"/>
        <pt x="338" y="-124" on="1"/>
        <pt x="360" y="-61" on="0"/>
        <pt x="429" y="2" on="1"/>
        <pt x="424" y="93" on="1"/>
        <pt x="389" y="57" on="0"/>
        <pt x="255" y="-6" on="0"/>
        <pt x="191" y="-6" on="1"/>
        <pt x="131" y="-6" on="0"/>
        <pt x="66" y="57" on="0"/>
        <pt x="66" y="115" on="1"/>
        <pt x="66" y="177" on="1"/>
        <pt x="66" y="231" on="0"/>
        <pt x="126" y="290" on="0"/>
        <pt x="181" y="290" on="1"/>
        <pt x="423" y="290" on="1"/>
        <pt x="423" y="358" on="1"/>
        <pt x="423" y="469" on="0"/>
        <pt x="313" y="469" on="1"/>
        <pt x="214" y="469" on="0"/>
        <pt x="88" y="453" on="1"/>
        <pt x="85" y="471" on="1"/>
        <pt x="234" y="492" on="0"/>
        <pt x="314" y="492" on="1"/>
        <pt x="447" y="492" on="0"/>
        <pt x="447" y="358" on="1"/>
        <pt x="447" y="0" on="1"/>
        <pt x="382" y="-65" on="0"/>
        <pt x="360" y="-126" on="1"/>
        <pt x="344" y="-172" on="0"/>
        <pt x="396" y="-203" on="0"/>
      </contour>
      <contour>
        <pt x="91" y="177" on="1"/>
        <pt x="91" y="115" on="1"/>
        <pt x="91" y="20" on="0"/>
        <pt x="191" y="18" on="1"/>
        <pt x="246" y="17" on="0"/>
        <pt x="380" y="76" on="0"/>
        <pt x="423" y="117" on="1"/>
        <pt x="423" y="270" on="1"/>
        <pt x="181" y="266" on="1"/>
        <pt x="91" y="264" on="0"/>
      </contour>
    </TTGlyph>
    <TTGlyph name="approxequal" xMin="87" yMin="153" xMax="507" yMax="433">
      <contour>
        <pt x="107" y="344" on="1"/>
        <pt x="87" y="344" on="1"/>
        <pt x="86" y="393" on="0"/>
        <pt x="126" y="433" on="0"/>
        <pt x="164" y="433" on="1"/>
        <pt x="207" y="433" on="0"/>
        <pt x="385" y="367" on="0"/>
        <pt x="432" y="366" on="1"/>
        <pt x="460" y="366" on="0"/>
        <pt x="487" y="390" on="0"/>
        <pt x="487" y="428" on="1"/>
        <pt x="507" y="428" on="1"/>
        <pt x="507" y="383" on="0"/>
        <pt x="471" y="343" on="0"/>
        <pt x="427" y="343" on="1"/>
        <pt x="378" y="343" on="0"/>
        <pt x="202" y="410" on="0"/>
        <pt x="162" y="410" on="1"/>
        <pt x="134" y="410" on="0"/>
        <pt x="107" y="383" on="0"/>
      </contour>
      <contour>
        <pt x="107" y="154" on="1"/>
        <pt x="87" y="154" on="1"/>
        <pt x="86" y="203" on="0"/>
        <pt x="126" y="243" on="0"/>
        <pt x="164" y="243" on="1"/>
        <pt x="207" y="243" on="0"/>
        <pt x="385" y="177" on="0"/>
        <pt x="432" y="176" on="1"/>
        <pt x="460" y="176" on="0"/>
        <pt x="487" y="200" on="0"/>
        <pt x="487" y="238" on="1"/>
        <pt x="507" y="238" on="1"/>
        <pt x="507" y="193" on="0"/>
        <pt x="471" y="153" on="0"/>
        <pt x="427" y="153" on="1"/>
        <pt x="378" y="153" on="0"/>
        <pt x="202" y="220" on="0"/>
        <pt x="162" y="220" on="1"/>
        <pt x="134" y="220" on="0"/>
        <pt x="107" y="193" on="0"/>
      </contour>
    </TTGlyph>
    <TTGlyph name="aring" xMin="66" yMin="-6" xMax="447" yMax="727">
      <contour>
        <pt x="307" y="537" on="0"/>
        <pt x="227" y="537" on="0"/>
        <pt x="171" y="592" on="0"/>
        <pt x="171" y="632" on="1"/>
        <pt x="171" y="671" on="0"/>
        <pt x="227" y="727" on="0"/>
        <pt x="307" y="727" on="0"/>
        <pt x="363" y="671" on="0"/>
        <pt x="363" y="632" on="1"/>
        <pt x="363" y="592" on="0"/>
      </contour>
      <contour>
        <pt x="299" y="708" on="0"/>
        <pt x="235" y="708" on="0"/>
        <pt x="192" y="664" on="0"/>
        <pt x="192" y="632" on="1"/>
        <pt x="192" y="599" on="0"/>
        <pt x="235" y="556" on="0"/>
        <pt x="299" y="556" on="0"/>
        <pt x="342" y="599" on="0"/>
        <pt x="342" y="632" on="1"/>
        <pt x="342" y="664" on="0"/>
      </contour>
      <contour>
        <pt x="88" y="453" on="1"/>
        <pt x="85" y="471" on="1"/>
        <pt x="234" y="492" on="0"/>
        <pt x="314" y="492" on="1"/>
        <pt x="447" y="492" on="0"/>
        <pt x="447" y="358" on="1"/>
        <pt x="447" y="0" on="1"/>
        <pt x="429" y="0" on="1"/>
        <pt x="424" y="93" on="1"/>
        <pt x="389" y="57" on="0"/>
        <pt x="255" y="-6" on="0"/>
        <pt x="191" y="-6" on="1"/>
        <pt x="131" y="-6" on="0"/>
        <pt x="66" y="57" on="0"/>
        <pt x="66" y="115" on="1"/>
        <pt x="66" y="177" on="1"/>
        <pt x="66" y="231" on="0"/>
        <pt x="126" y="290" on="0"/>
        <pt x="181" y="290" on="1"/>
        <pt x="423" y="290" on="1"/>
        <pt x="423" y="358" on="1"/>
        <pt x="423" y="469" on="0"/>
        <pt x="313" y="469" on="1"/>
        <pt x="214" y="469" on="0"/>
      </contour>
      <contour>
        <pt x="91" y="177" on="1"/>
        <pt x="91" y="115" on="1"/>
        <pt x="91" y="20" on="0"/>
        <pt x="191" y="18" on="1"/>
        <pt x="246" y="17" on="0"/>
        <pt x="380" y="76" on="0"/>
        <pt x="423" y="117" on="1"/>
        <pt x="423" y="270" on="1"/>
        <pt x="181" y="266" on="1"/>
        <pt x="91" y="264" on="0"/>
      </contour>
    </TTGlyph>
    <TTGlyph name="asciicircum" xMin="30" yMin="366" xMax="362" yMax="575">
      <contour>
        <pt x="362" y="378" on="1"/>
        <pt x="350" y="366" on="1"/>
        <pt x="200" y="548" on="1"/>
        <pt x="192" y="548" on="1"/>
        <pt x="43" y="366" on="1"/>
        <pt x="30" y="378" on="1"/>
        <pt x="187" y="575" on="1"/>
        <pt x="205" y="575" on="1"/>
      </contour>
    </TTGlyph>
    <TTGlyph name="asciitilde" xMin="87" yMin="240" xMax="447" yMax="330">
      <contour>
        <pt x="104" y="241" on="1"/>
        <pt x="87" y="241" on="1"/>
        <pt x="86" y="286" on="0"/>
        <pt x="126" y="333" on="0"/>
        <pt x="162" y="330" on="1"/>
        <pt x="206" y="328" on="0"/>
        <pt x="328" y="264" on="0"/>
        <pt x="372" y="262" on="1"/>
        <pt x="403" y="260" on="0"/>
        <pt x="430" y="290" on="0"/>
        <pt x="430" y="325" on="1"/>
        <pt x="447" y="325" on="1"/>
        <pt x="448" y="282" on="0"/>
        <pt x="408" y="237" on="0"/>
        <pt x="372" y="240" on="1"/>
        <pt x="318" y="243" on="0"/>
        <pt x="198" y="306" on="0"/>
        <pt x="162" y="308" on="1"/>
        <pt x="132" y="311" on="0"/>
        <pt x="104" y="278" on="0"/>
      </contour>
    </TTGlyph>
    <TTGlyph name="asterisk" xMin="72" yMin="395" xMax="382" yMax="690">
      <contour>
        <pt x="234" y="537" on="1"/>
        <pt x="328" y="408" on="1"/>
        <pt x="310" y="395" on="1"/>
        <pt x="226" y="520" on="1"/>
        <pt x="143" y="396" on="1"/>
        <pt x="124" y="409" on="1"/>
        <pt x="218" y="537" on="1"/>
        <pt x="215" y="690" on="1"/>
        <pt x="239" y="690" on="1"/>
      </contour>
      <contour>
        <pt x="202" y="548" on="1"/>
        <pt x="201" y="539" on="1"/>
        <pt x="197" y="531" on="1"/>
        <pt x="72" y="570" on="1"/>
        <pt x="80" y="592" on="1"/>
      </contour>
      <contour>
        <pt x="382" y="568" on="1"/>
        <pt x="255" y="531" on="1"/>
        <pt x="251" y="539" on="1"/>
        <pt x="251" y="548" on="1"/>
        <pt x="374" y="590" on="1"/>
      </contour>
    </TTGlyph>
    <TTGlyph name="at" xMin="94" yMin="-47" xMax="608" yMax="567">
      <contour>
        <pt x="337" y="567" on="1"/>
        <pt x="477" y="567" on="1"/>
        <pt x="608" y="567" on="0"/>
        <pt x="608" y="450" on="1"/>
        <pt x="608" y="129" on="1"/>
        <pt x="591" y="129" on="1"/>
        <pt x="586" y="210" on="1"/>
        <pt x="550" y="179" on="0"/>
        <pt x="418" y="124" on="0"/>
        <pt x="355" y="124" on="1"/>
        <pt x="296" y="124" on="0"/>
        <pt x="231" y="179" on="0"/>
        <pt x="231" y="229" on="1"/>
        <pt x="231" y="283" on="1"/>
        <pt x="231" y="330" on="0"/>
        <pt x="291" y="381" on="0"/>
        <pt x="345" y="381" on="1"/>
        <pt x="586" y="381" on="1"/>
        <pt x="586" y="450" on="1"/>
        <pt x="586" y="546" on="0"/>
        <pt x="476" y="545" on="1"/>
        <pt x="338" y="545" on="1"/>
        <pt x="283" y="545" on="0"/>
        <pt x="224" y="541" on="0"/>
        <pt x="167" y="520" on="0"/>
        <pt x="143" y="489" on="0"/>
        <pt x="122" y="420" on="0"/>
        <pt x="118" y="335" on="0"/>
        <pt x="118" y="265" on="1"/>
        <pt x="118" y="210" on="0"/>
        <pt x="120" y="138" on="0"/>
        <pt x="131" y="72" on="0"/>
        <pt x="143" y="34" on="0"/>
        <pt x="173" y="2" on="0"/>
        <pt x="203" y="-13" on="0"/>
        <pt x="261" y="-23" on="0"/>
        <pt x="316" y="-25" on="0"/>
        <pt x="362" y="-25" on="1"/>
        <pt x="603" y="-25" on="1"/>
        <pt x="603" y="-44" on="1"/>
        <pt x="483" y="-47" on="0"/>
        <pt x="363" y="-47" on="1"/>
        <pt x="298" y="-48" on="0"/>
        <pt x="219" y="-43" on="0"/>
        <pt x="153" y="-17" on="0"/>
        <pt x="121" y="20" on="0"/>
        <pt x="99" y="98" on="0"/>
        <pt x="94" y="188" on="0"/>
        <pt x="94" y="264" on="1"/>
        <pt x="94" y="337" on="0"/>
        <pt x="99" y="424" on="0"/>
        <pt x="119" y="499" on="0"/>
        <pt x="147" y="534" on="0"/>
        <pt x="207" y="560" on="0"/>
        <pt x="278" y="566" on="0"/>
      </contour>
      <contour>
        <pt x="586" y="364" on="1"/>
        <pt x="345" y="360" on="1"/>
        <pt x="255" y="357" on="0"/>
        <pt x="255" y="283" on="1"/>
        <pt x="255" y="230" on="1"/>
        <pt x="255" y="148" on="0"/>
        <pt x="354" y="146" on="1"/>
        <pt x="409" y="145" on="0"/>
        <pt x="542" y="195" on="0"/>
        <pt x="586" y="231" on="1"/>
      </contour>
    </TTGlyph>
    <TTGlyph name="atilde" xMin="66" yMin="-6" xMax="447" yMax="684">
      <contour>
        <pt x="139" y="595" on="1"/>
        <pt x="122" y="595" on="1"/>
        <pt x="121" y="640" on="0"/>
        <pt x="161" y="687" on="0"/>
        <pt x="197" y="684" on="1"/>
        <pt x="226" y="682" on="0"/>
        <pt x="308" y="618" on="0"/>
        <pt x="337" y="616" on="1"/>
        <pt x="368" y="614" on="0"/>
        <pt x="395" y="644" on="0"/>
        <pt x="395" y="679" on="1"/>
        <pt x="412" y="679" on="1"/>
        <pt x="413" y="636" on="0"/>
        <pt x="373" y="591" on="0"/>
        <pt x="301" y="597" on="0"/>
        <pt x="220" y="660" on="0"/>
        <pt x="197" y="662" on="1"/>
        <pt x="167" y="665" on="0"/>
        <pt x="139" y="632" on="0"/>
      </contour>
      <contour>
        <pt x="88" y="453" on="1"/>
        <pt x="85" y="471" on="1"/>
        <pt x="234" y="492" on="0"/>
        <pt x="314" y="492" on="1"/>
        <pt x="447" y="492" on="0"/>
        <pt x="447" y="358" on="1"/>
        <pt x="447" y="0" on="1"/>
        <pt x="429" y="0" on="1"/>
        <pt x="424" y="93" on="1"/>
        <pt x="389" y="57" on="0"/>
        <pt x="255" y="-6" on="0"/>
        <pt x="191" y="-6" on="1"/>
        <pt x="131" y="-6" on="0"/>
        <pt x="66" y="57" on="0"/>
        <pt x="66" y="115" on="1"/>
        <pt x="66" y="177" on="1"/>
        <pt x="66" y="231" on="0"/>
        <pt x="126" y="290" on="0"/>
        <pt x="181" y="290" on="1"/>
        <pt x="423" y="290" on="1"/>
        <pt x="423" y="358" on="1"/>
        <pt x="423" y="469" on="0"/>
        <pt x="313" y="469" on="1"/>
        <pt x="214" y="469" on="0"/>
      </contour>
      <contour>
        <pt x="91" y="177" on="1"/>
        <pt x="91" y="115" on="1"/>
        <pt x="91" y="20" on="0"/>
        <pt x="191" y="18" on="1"/>
        <pt x="246" y="17" on="0"/>
        <pt x="380" y="76" on="0"/>
        <pt x="423" y="117" on="1"/>
        <pt x="423" y="270" on="1"/>
        <pt x="181" y="266" on="1"/>
        <pt x="91" y="264" on="0"/>
      </contour>
    </TTGlyph>
    <TTGlyph name="b" xMin="92" yMin="-12" xMax="488" yMax="700">
      <contour>
        <pt x="116" y="700" on="1"/>
        <pt x="116" y="483" on="1"/>
        <pt x="116" y="413" on="0"/>
        <pt x="113" y="390" on="1"/>
        <pt x="228" y="492" on="0"/>
        <pt x="314" y="492" on="1"/>
        <pt x="408" y="492" on="0"/>
        <pt x="488" y="377" on="0"/>
        <pt x="488" y="240" on="1"/>
        <pt x="488" y="104" on="0"/>
        <pt x="399" y="-12" on="0"/>
        <pt x="294" y="-12" on="1"/>
        <pt x="208" y="-12" on="0"/>
        <pt x="92" y="19" on="1"/>
        <pt x="92" y="700" on="1"/>
      </contour>
      <contour>
        <pt x="116" y="369" on="1"/>
        <pt x="116" y="36" on="1"/>
        <pt x="207" y="11" on="0"/>
        <pt x="294" y="11" on="1"/>
        <pt x="385" y="11" on="0"/>
        <pt x="463" y="115" on="0"/>
        <pt x="463" y="365" on="0"/>
        <pt x="395" y="469" on="0"/>
        <pt x="314" y="469" on="1"/>
        <pt x="269" y="469" on="0"/>
        <pt x="180" y="422" on="0"/>
      </contour>
    </TTGlyph>
    <TTGlyph name="backslash" xMin="38" yMin="-59" xMax="456" yMax="690">
      <contour>
        <pt x="456" y="-59" on="1"/>
        <pt x="431" y="-59" on="1"/>
        <pt x="38" y="690" on="1"/>
        <pt x="63" y="690" on="1"/>
      </contour>
    </TTGlyph>
    <TTGlyph name="bar" xMin="106" yMin="-169" xMax="128" yMax="781">
      <contour>
        <pt x="128" y="-169" on="1"/>
        <pt x="106" y="-169" on="1"/>
        <pt x="106" y="781" on="1"/>
        <pt x="128" y="781" on="1"/>
      </contour>
    </TTGlyph>
    <TTGlyph name="braceleft" xMin="56" yMin="-165" xMax="252" yMax="768">
      <contour>
        <pt x="248" y="768" on="1"/>
        <pt x="248" y="750" on="1"/>
        <pt x="190" y="750" on="0"/>
        <pt x="145" y="698" on="0"/>
        <pt x="145" y="642" on="1"/>
        <pt x="145" y="437" on="1"/>
        <pt x="145" y="378" on="0"/>
        <pt x="116" y="339" on="0"/>
        <pt x="69" y="328" on="1"/>
        <pt x="118" y="311" on="0"/>
        <pt x="149" y="274" on="0"/>
        <pt x="149" y="223" on="1"/>
        <pt x="149" y="-39" on="1"/>
        <pt x="149" y="-94" on="0"/>
        <pt x="194" y="-147" on="0"/>
        <pt x="252" y="-147" on="1"/>
        <pt x="252" y="-165" on="1"/>
        <pt x="183" y="-165" on="0"/>
        <pt x="125" y="-106" on="0"/>
        <pt x="125" y="-39" on="1"/>
        <pt x="125" y="233" on="1"/>
        <pt x="125" y="254" on="0"/>
        <pt x="119" y="279" on="0"/>
        <pt x="96" y="297" on="0"/>
        <pt x="81" y="304" on="0"/>
        <pt x="56" y="313" on="1"/>
        <pt x="56" y="343" on="1"/>
        <pt x="79" y="350" on="0"/>
        <pt x="89" y="353" on="0"/>
        <pt x="113" y="366" on="0"/>
        <pt x="116" y="381" on="0"/>
        <pt x="121" y="406" on="0"/>
        <pt x="121" y="427" on="1"/>
        <pt x="121" y="642" on="1"/>
        <pt x="121" y="709" on="0"/>
        <pt x="179" y="768" on="0"/>
      </contour>
    </TTGlyph>
    <TTGlyph name="braceright" xMin="46" yMin="-165" xMax="242" yMax="768">
      <contour>
        <pt x="50" y="750" on="1"/>
        <pt x="50" y="768" on="1"/>
        <pt x="119" y="768" on="0"/>
        <pt x="177" y="709" on="0"/>
        <pt x="177" y="642" on="1"/>
        <pt x="177" y="427" on="1"/>
        <pt x="177" y="379" on="0"/>
        <pt x="198" y="356" on="0"/>
        <pt x="242" y="343" on="1"/>
        <pt x="242" y="313" on="1"/>
        <pt x="217" y="304" on="0"/>
        <pt x="202" y="297" on="0"/>
        <pt x="179" y="279" on="0"/>
        <pt x="173" y="254" on="0"/>
        <pt x="173" y="233" on="1"/>
        <pt x="173" y="-39" on="1"/>
        <pt x="173" y="-106" on="0"/>
        <pt x="115" y="-165" on="0"/>
        <pt x="46" y="-165" on="1"/>
        <pt x="46" y="-147" on="1"/>
        <pt x="104" y="-147" on="0"/>
        <pt x="149" y="-94" on="0"/>
        <pt x="149" y="-39" on="1"/>
        <pt x="149" y="223" on="1"/>
        <pt x="149" y="274" on="0"/>
        <pt x="180" y="311" on="0"/>
        <pt x="229" y="328" on="1"/>
        <pt x="182" y="339" on="0"/>
        <pt x="153" y="378" on="0"/>
        <pt x="153" y="437" on="1"/>
        <pt x="153" y="642" on="1"/>
        <pt x="153" y="698" on="0"/>
        <pt x="108" y="750" on="0"/>
      </contour>
    </TTGlyph>
    <TTGlyph name="bracketleft" xMin="106" yMin="-165" xMax="262" yMax="768">
      <contour>
        <pt x="262" y="746" on="1"/>
        <pt x="142" y="746" on="1"/>
        <pt x="130" y="746" on="0"/>
        <pt x="130" y="734" on="1"/>
        <pt x="130" y="-131" on="1"/>
        <pt x="130" y="-143" on="0"/>
        <pt x="142" y="-143" on="1"/>
        <pt x="262" y="-143" on="1"/>
        <pt x="262" y="-165" on="1"/>
        <pt x="137" y="-165" on="1"/>
        <pt x="124" y="-165" on="0"/>
        <pt x="106" y="-148" on="0"/>
        <pt x="106" y="-134" on="1"/>
        <pt x="106" y="737" on="1"/>
        <pt x="106" y="750" on="0"/>
        <pt x="124" y="768" on="0"/>
        <pt x="137" y="768" on="1"/>
        <pt x="262" y="768" on="1"/>
      </contour>
    </TTGlyph>
    <TTGlyph name="bracketright" xMin="50" yMin="-165" xMax="206" yMax="768">
      <contour>
        <pt x="50" y="768" on="1"/>
        <pt x="175" y="768" on="1"/>
        <pt x="188" y="768" on="0"/>
        <pt x="206" y="750" on="0"/>
        <pt x="206" y="737" on="1"/>
        <pt x="206" y="-134" on="1"/>
        <pt x="206" y="-148" on="0"/>
        <pt x="188" y="-165" on="0"/>
        <pt x="175" y="-165" on="1"/>
        <pt x="50" y="-165" on="1"/>
        <pt x="50" y="-143" on="1"/>
        <pt x="170" y="-143" on="1"/>
        <pt x="182" y="-143" on="0"/>
        <pt x="182" y="-131" on="1"/>
        <pt x="182" y="734" on="1"/>
        <pt x="182" y="746" on="0"/>
        <pt x="170" y="746" on="1"/>
        <pt x="50" y="746" on="1"/>
      </contour>
    </TTGlyph>
    <TTGlyph name="breve" xMin="43" yMin="569" xMax="315" yMax="687">
      <contour>
        <pt x="297" y="687" on="1"/>
        <pt x="315" y="683" on="1"/>
        <pt x="315" y="630" on="0"/>
        <pt x="242" y="569" on="0"/>
        <pt x="180" y="569" on="1"/>
        <pt x="117" y="569" on="0"/>
        <pt x="43" y="630" on="0"/>
        <pt x="43" y="683" on="1"/>
        <pt x="61" y="687" on="1"/>
        <pt x="61" y="642" on="0"/>
        <pt x="125" y="593" on="0"/>
        <pt x="180" y="593" on="1"/>
        <pt x="234" y="593" on="0"/>
        <pt x="297" y="643" on="0"/>
      </contour>
    </TTGlyph>
    <TTGlyph name="brevecy" xMin="43" yMin="569" xMax="315" yMax="691">
      <contour>
        <pt x="291" y="691" on="1"/>
        <pt x="315" y="691" on="1"/>
        <pt x="315" y="637" on="0"/>
        <pt x="241" y="569" on="0"/>
        <pt x="180" y="569" on="1"/>
        <pt x="118" y="569" on="0"/>
        <pt x="43" y="637" on="0"/>
        <pt x="43" y="691" on="1"/>
        <pt x="67" y="691" on="1"/>
        <pt x="67" y="642" on="0"/>
        <pt x="129" y="587" on="0"/>
        <pt x="180" y="587" on="1"/>
        <pt x="230" y="587" on="0"/>
        <pt x="291" y="642" on="0"/>
      </contour>
    </TTGlyph>
    <TTGlyph name="brokenbar" xMin="107" yMin="-169" xMax="129" yMax="781">
      <contour>
        <pt x="129" y="381" on="1"/>
        <pt x="107" y="381" on="1"/>
        <pt x="107" y="781" on="1"/>
        <pt x="129" y="781" on="1"/>
      </contour>
      <contour>
        <pt x="129" y="-169" on="1"/>
        <pt x="107" y="-169" on="1"/>
        <pt x="107" y="231" on="1"/>
        <pt x="129" y="231" on="1"/>
      </contour>
    </TTGlyph>
    <TTGlyph name="bullet" xMin="106" yMin="198" xMax="245" yMax="337">
      <contour>
        <pt x="171" y="337" on="1"/>
        <pt x="181" y="337" on="1"/>
        <pt x="217" y="337" on="0"/>
        <pt x="245" y="309" on="0"/>
        <pt x="245" y="273" on="1"/>
        <pt x="245" y="263" on="1"/>
        <pt x="245" y="226" on="0"/>
        <pt x="217" y="198" on="0"/>
        <pt x="181" y="198" on="1"/>
        <pt x="171" y="198" on="1"/>
        <pt x="134" y="198" on="0"/>
        <pt x="106" y="226" on="0"/>
        <pt x="106" y="263" on="1"/>
        <pt x="106" y="273" on="1"/>
        <pt x="106" y="309" on="0"/>
        <pt x="134" y="337" on="0"/>
      </contour>
    </TTGlyph>
    <TTGlyph name="c" xMin="69" yMin="-12" xMax="434" yMax="492">
      <contour>
        <pt x="430" y="23" on="1"/>
        <pt x="434" y="5" on="1"/>
        <pt x="359" y="-12" on="0"/>
        <pt x="289" y="-12" on="1"/>
        <pt x="169" y="-12" on="0"/>
        <pt x="69" y="102" on="0"/>
        <pt x="69" y="378" on="0"/>
        <pt x="168" y="492" on="0"/>
        <pt x="288" y="492" on="1"/>
        <pt x="368" y="492" on="0"/>
        <pt x="423" y="475" on="1"/>
        <pt x="417" y="457" on="1"/>
        <pt x="370" y="469" on="0"/>
        <pt x="292" y="469" on="1"/>
        <pt x="182" y="469" on="0"/>
        <pt x="94" y="371" on="0"/>
        <pt x="94" y="109" on="0"/>
        <pt x="182" y="11" on="0"/>
        <pt x="292" y="11" on="1"/>
        <pt x="371" y="11" on="0"/>
      </contour>
    </TTGlyph>
    <TTGlyph name="cacute" xMin="69" yMin="-12" xMax="434" yMax="712">
      <contour>
        <pt x="392" y="695" on="1"/>
        <pt x="239" y="554" on="1"/>
        <pt x="225" y="567" on="1"/>
        <pt x="374" y="712" on="1"/>
      </contour>
      <contour>
        <pt x="430" y="23" on="1"/>
        <pt x="434" y="5" on="1"/>
        <pt x="359" y="-12" on="0"/>
        <pt x="289" y="-12" on="1"/>
        <pt x="169" y="-12" on="0"/>
        <pt x="69" y="102" on="0"/>
        <pt x="69" y="378" on="0"/>
        <pt x="168" y="492" on="0"/>
        <pt x="288" y="492" on="1"/>
        <pt x="368" y="492" on="0"/>
        <pt x="423" y="475" on="1"/>
        <pt x="417" y="457" on="1"/>
        <pt x="370" y="469" on="0"/>
        <pt x="292" y="469" on="1"/>
        <pt x="182" y="469" on="0"/>
        <pt x="94" y="371" on="0"/>
        <pt x="94" y="109" on="0"/>
        <pt x="182" y="11" on="0"/>
        <pt x="292" y="11" on="1"/>
        <pt x="371" y="11" on="0"/>
      </contour>
    </TTGlyph>
    <TTGlyph name="caron" xMin="50" yMin="575" xMax="342" yMax="704">
      <contour>
        <pt x="342" y="692" on="1"/>
        <pt x="205" y="575" on="1"/>
        <pt x="187" y="575" on="1"/>
        <pt x="50" y="692" on="1"/>
        <pt x="63" y="704" on="1"/>
        <pt x="192" y="602" on="1"/>
        <pt x="200" y="602" on="1"/>
        <pt x="330" y="704" on="1"/>
      </contour>
    </TTGlyph>
    <TTGlyph name="ccaron" xMin="69" yMin="-12" xMax="434" yMax="698">
      <contour>
        <pt x="420" y="686" on="1"/>
        <pt x="283" y="569" on="1"/>
        <pt x="265" y="569" on="1"/>
        <pt x="128" y="686" on="1"/>
        <pt x="141" y="698" on="1"/>
        <pt x="270" y="596" on="1"/>
        <pt x="278" y="596" on="1"/>
        <pt x="408" y="698" on="1"/>
      </contour>
      <contour>
        <pt x="430" y="23" on="1"/>
        <pt x="434" y="5" on="1"/>
        <pt x="359" y="-12" on="0"/>
        <pt x="289" y="-12" on="1"/>
        <pt x="169" y="-12" on="0"/>
        <pt x="69" y="102" on="0"/>
        <pt x="69" y="378" on="0"/>
        <pt x="168" y="492" on="0"/>
        <pt x="288" y="492" on="1"/>
        <pt x="368" y="492" on="0"/>
        <pt x="423" y="475" on="1"/>
        <pt x="417" y="457" on="1"/>
        <pt x="370" y="469" on="0"/>
        <pt x="292" y="469" on="1"/>
        <pt x="182" y="469" on="0"/>
        <pt x="94" y="371" on="0"/>
        <pt x="94" y="109" on="0"/>
        <pt x="182" y="11" on="0"/>
        <pt x="292" y="11" on="1"/>
        <pt x="371" y="11" on="0"/>
      </contour>
    </TTGlyph>
    <TTGlyph name="ccedilla" xMin="69" yMin="-231" xMax="434" yMax="492">
      <contour>
        <pt x="430" y="23" on="1"/>
        <pt x="434" y="5" on="1"/>
        <pt x="359" y="-12" on="0"/>
        <pt x="289" y="-12" on="1"/>
        <pt x="169" y="-12" on="0"/>
        <pt x="69" y="102" on="0"/>
        <pt x="69" y="378" on="0"/>
        <pt x="168" y="492" on="0"/>
        <pt x="288" y="492" on="1"/>
        <pt x="368" y="492" on="0"/>
        <pt x="423" y="475" on="1"/>
        <pt x="417" y="457" on="1"/>
        <pt x="370" y="469" on="0"/>
        <pt x="292" y="469" on="1"/>
        <pt x="182" y="469" on="0"/>
        <pt x="94" y="371" on="0"/>
        <pt x="94" y="109" on="0"/>
        <pt x="182" y="11" on="0"/>
        <pt x="292" y="11" on="1"/>
        <pt x="371" y="11" on="0"/>
      </contour>
      <contour>
        <pt x="254" y="-75" on="1"/>
        <pt x="257" y="-61" on="1"/>
        <pt x="296" y="-59" on="0"/>
        <pt x="336" y="-91" on="0"/>
        <pt x="335" y="-126" on="1"/>
        <pt x="334" y="-178" on="0"/>
        <pt x="258" y="-239" on="0"/>
        <pt x="196" y="-231" on="1"/>
        <pt x="200" y="-216" on="1"/>
        <pt x="251" y="-218" on="0"/>
        <pt x="313" y="-165" on="0"/>
        <pt x="313" y="-126" on="1"/>
        <pt x="313" y="-98" on="0"/>
        <pt x="287" y="-76" on="0"/>
      </contour>
    </TTGlyph>
    <TTGlyph name="cdotaccent" xMin="69" yMin="-12" xMax="434" yMax="678">
      <contour>
        <pt x="268" y="678" on="1"/>
        <pt x="278" y="678" on="1"/>
        <pt x="290" y="678" on="0"/>
        <pt x="290" y="666" on="1"/>
        <pt x="290" y="604" on="1"/>
        <pt x="290" y="592" on="0"/>
        <pt x="278" y="592" on="1"/>
        <pt x="268" y="592" on="1"/>
        <pt x="256" y="592" on="0"/>
        <pt x="256" y="604" on="1"/>
        <pt x="256" y="666" on="1"/>
        <pt x="256" y="678" on="0"/>
      </contour>
      <contour>
        <pt x="430" y="23" on="1"/>
        <pt x="434" y="5" on="1"/>
        <pt x="359" y="-12" on="0"/>
        <pt x="289" y="-12" on="1"/>
        <pt x="169" y="-12" on="0"/>
        <pt x="69" y="102" on="0"/>
        <pt x="69" y="378" on="0"/>
        <pt x="168" y="492" on="0"/>
        <pt x="288" y="492" on="1"/>
        <pt x="368" y="492" on="0"/>
        <pt x="423" y="475" on="1"/>
        <pt x="417" y="457" on="1"/>
        <pt x="370" y="469" on="0"/>
        <pt x="292" y="469" on="1"/>
        <pt x="182" y="469" on="0"/>
        <pt x="94" y="371" on="0"/>
        <pt x="94" y="109" on="0"/>
        <pt x="182" y="11" on="0"/>
        <pt x="292" y="11" on="1"/>
        <pt x="371" y="11" on="0"/>
      </contour>
    </TTGlyph>
    <TTGlyph name="cedilla" xMin="42" yMin="-219" xMax="181" yMax="-49">
      <contour>
        <pt x="100" y="-63" on="1"/>
        <pt x="103" y="-49" on="1"/>
        <pt x="142" y="-47" on="0"/>
        <pt x="182" y="-79" on="0"/>
        <pt x="181" y="-114" on="1"/>
        <pt x="180" y="-166" on="0"/>
        <pt x="104" y="-227" on="0"/>
        <pt x="42" y="-219" on="1"/>
        <pt x="46" y="-204" on="1"/>
        <pt x="97" y="-206" on="0"/>
        <pt x="159" y="-153" on="0"/>
        <pt x="159" y="-114" on="1"/>
        <pt x="159" y="-86" on="0"/>
        <pt x="133" y="-64" on="0"/>
      </contour>
    </TTGlyph>
    <TTGlyph name="cent" xMin="69" yMin="0" xMax="434" yMax="690">
      <contour>
        <pt x="430" y="133" on="1"/>
        <pt x="434" y="115" on="1"/>
        <pt x="359" y="98" on="0"/>
        <pt x="289" y="98" on="1"/>
        <pt x="270" y="98" on="1"/>
        <pt x="263" y="0" on="1"/>
        <pt x="242" y="0" on="1"/>
        <pt x="249" y="100" on="1"/>
        <pt x="152" y="108" on="0"/>
        <pt x="69" y="223" on="0"/>
        <pt x="69" y="350" on="1"/>
        <pt x="69" y="487" on="0"/>
        <pt x="167" y="601" on="0"/>
        <pt x="284" y="602" on="1"/>
        <pt x="290" y="690" on="1"/>
        <pt x="311" y="690" on="1"/>
        <pt x="305" y="602" on="1"/>
        <pt x="374" y="600" on="0"/>
        <pt x="423" y="585" on="1"/>
        <pt x="417" y="567" on="1"/>
        <pt x="379" y="577" on="0"/>
        <pt x="303" y="579" on="1"/>
        <pt x="272" y="121" on="1"/>
        <pt x="292" y="121" on="1"/>
        <pt x="371" y="121" on="0"/>
      </contour>
      <contour>
        <pt x="251" y="123" on="1"/>
        <pt x="282" y="579" on="1"/>
        <pt x="178" y="577" on="0"/>
        <pt x="94" y="478" on="0"/>
        <pt x="94" y="350" on="1"/>
        <pt x="94" y="232" on="0"/>
        <pt x="165" y="131" on="0"/>
      </contour>
    </TTGlyph>
    <TTGlyph name="circumflex" xMin="51" yMin="575" xMax="341" yMax="704">
      <contour>
        <pt x="341" y="587" on="1"/>
        <pt x="330" y="575" on="1"/>
        <pt x="200" y="677" on="1"/>
        <pt x="192" y="677" on="1"/>
        <pt x="63" y="575" on="1"/>
        <pt x="51" y="587" on="1"/>
        <pt x="187" y="704" on="1"/>
        <pt x="205" y="704" on="1"/>
      </contour>
    </TTGlyph>
    <TTGlyph name="colon" xMin="86" yMin="0" xMax="120" yMax="430">
      <contour>
        <pt x="98" y="430" on="1"/>
        <pt x="108" y="430" on="1"/>
        <pt x="120" y="430" on="0"/>
        <pt x="120" y="418" on="1"/>
        <pt x="120" y="356" on="1"/>
        <pt x="120" y="344" on="0"/>
        <pt x="108" y="344" on="1"/>
        <pt x="98" y="344" on="1"/>
        <pt x="86" y="344" on="0"/>
        <pt x="86" y="356" on="1"/>
        <pt x="86" y="418" on="1"/>
        <pt x="86" y="430" on="0"/>
      </contour>
      <contour>
        <pt x="98" y="86" on="1"/>
        <pt x="108" y="86" on="1"/>
        <pt x="120" y="86" on="0"/>
        <pt x="120" y="74" on="1"/>
        <pt x="120" y="12" on="1"/>
        <pt x="120" y="0" on="0"/>
        <pt x="108" y="0" on="1"/>
        <pt x="98" y="0" on="1"/>
        <pt x="86" y="0" on="0"/>
        <pt x="86" y="12" on="1"/>
        <pt x="86" y="74" on="1"/>
        <pt x="86" y="86" on="0"/>
      </contour>
    </TTGlyph>
    <TTGlyph name="comma" xMin="89" yMin="-117" xMax="121" yMax="86">
      <contour>
        <pt x="100" y="86" on="1"/>
        <pt x="109" y="86" on="1"/>
        <pt x="121" y="86" on="0"/>
        <pt x="121" y="74" on="1"/>
        <pt x="121" y="10" on="1"/>
        <pt x="119" y="-60" on="0"/>
        <pt x="103" y="-117" on="1"/>
        <pt x="91" y="-112" on="1"/>
        <pt x="95" y="-59" on="0"/>
        <pt x="95" y="0" on="1"/>
        <pt x="86" y="0" on="0"/>
        <pt x="89" y="10" on="1"/>
        <pt x="89" y="74" on="1"/>
        <pt x="88" y="86" on="0"/>
      </contour>
    </TTGlyph>
    <TTGlyph name="copyright" xMin="72" yMin="-12" xMax="786" yMax="702">
      <contour>
        <pt x="279" y="702" on="0"/>
        <pt x="579" y="702" on="0"/>
        <pt x="786" y="499" on="0"/>
        <pt x="786" y="191" on="0"/>
        <pt x="579" y="-12" on="0"/>
        <pt x="279" y="-12" on="0"/>
        <pt x="72" y="191" on="0"/>
        <pt x="72" y="499" on="0"/>
      </contour>
      <contour>
        <pt x="569" y="681" on="0"/>
        <pt x="289" y="681" on="0"/>
        <pt x="93" y="489" on="0"/>
        <pt x="93" y="201" on="0"/>
        <pt x="289" y="9" on="0"/>
        <pt x="569" y="9" on="0"/>
        <pt x="765" y="201" on="0"/>
        <pt x="765" y="489" on="0"/>
      </contour>
      <contour>
        <pt x="574" y="144" on="1"/>
        <pt x="578" y="128" on="1"/>
        <pt x="518" y="116" on="0"/>
        <pt x="434" y="116" on="1"/>
        <pt x="326" y="116" on="0"/>
        <pt x="239" y="220" on="0"/>
        <pt x="239" y="476" on="0"/>
        <pt x="326" y="580" on="0"/>
        <pt x="434" y="580" on="1"/>
        <pt x="515" y="580" on="0"/>
        <pt x="567" y="568" on="1"/>
        <pt x="562" y="553" on="1"/>
        <pt x="510" y="559" on="0"/>
        <pt x="434" y="559" on="1"/>
        <pt x="338" y="559" on="0"/>
        <pt x="261" y="466" on="0"/>
        <pt x="261" y="230" on="0"/>
        <pt x="338" y="136" on="0"/>
        <pt x="434" y="136" on="1"/>
        <pt x="521" y="136" on="0"/>
      </contour>
    </TTGlyph>
    <TTGlyph name="currency" xMin="83" yMin="135" xMax="518" yMax="569">
      <contour>
        <pt x="503" y="135" on="1"/>
        <pt x="427" y="211" on="1"/>
        <pt x="375" y="162" on="0"/>
        <pt x="300" y="162" on="1"/>
        <pt x="226" y="162" on="0"/>
        <pt x="172" y="210" on="1"/>
        <pt x="98" y="135" on="1"/>
        <pt x="83" y="149" on="1"/>
        <pt x="158" y="224" on="1"/>
        <pt x="109" y="280" on="0"/>
        <pt x="109" y="352" on="1"/>
        <pt x="109" y="426" on="0"/>
        <pt x="158" y="480" on="1"/>
        <pt x="84" y="554" on="1"/>
        <pt x="98" y="569" on="1"/>
        <pt x="172" y="495" on="1"/>
        <pt x="226" y="543" on="0"/>
        <pt x="300" y="543" on="1"/>
        <pt x="372" y="543" on="0"/>
        <pt x="428" y="494" on="1"/>
        <pt x="503" y="569" on="1"/>
        <pt x="517" y="554" on="1"/>
        <pt x="442" y="480" on="1"/>
        <pt x="490" y="426" on="0"/>
        <pt x="490" y="352" on="1"/>
        <pt x="490" y="279" on="0"/>
        <pt x="441" y="225" on="1"/>
        <pt x="518" y="149" on="1"/>
      </contour>
      <contour>
        <pt x="300" y="182" on="1"/>
        <pt x="370" y="181" on="0"/>
        <pt x="469" y="281" on="0"/>
        <pt x="469" y="423" on="0"/>
        <pt x="370" y="523" on="0"/>
        <pt x="230" y="523" on="0"/>
        <pt x="130" y="423" on="0"/>
        <pt x="130" y="281" on="0"/>
        <pt x="230" y="181" on="0"/>
      </contour>
    </TTGlyph>
    <TTGlyph name="d" xMin="71" yMin="-12" xMax="466" yMax="700">
      <contour>
        <pt x="466" y="700" on="1"/>
        <pt x="466" y="0" on="1"/>
        <pt x="448" y="0" on="1"/>
        <pt x="444" y="84" on="1"/>
        <pt x="336" y="-12" on="0"/>
        <pt x="245" y="-12" on="1"/>
        <pt x="151" y="-12" on="0"/>
        <pt x="71" y="103" on="0"/>
        <pt x="71" y="377" on="0"/>
        <pt x="151" y="492" on="0"/>
        <pt x="245" y="492" on="1"/>
        <pt x="330" y="492" on="0"/>
        <pt x="445" y="442" on="1"/>
        <pt x="442" y="468" on="0"/>
        <pt x="442" y="535" on="1"/>
        <pt x="442" y="700" on="1"/>
      </contour>
      <contour>
        <pt x="442" y="107" on="1"/>
        <pt x="442" y="421" on="1"/>
        <pt x="322" y="469" on="0"/>
        <pt x="245" y="469" on="1"/>
        <pt x="164" y="469" on="0"/>
        <pt x="96" y="365" on="0"/>
        <pt x="96" y="115" on="0"/>
        <pt x="164" y="11" on="0"/>
        <pt x="245" y="11" on="1"/>
        <pt x="291" y="11" on="0"/>
        <pt x="380" y="55" on="0"/>
      </contour>
    </TTGlyph>
    <TTGlyph name="dagger" xMin="55" yMin="-110" xMax="377" yMax="691">
      <contour>
        <pt x="228" y="-110" on="1"/>
        <pt x="204" y="-110" on="1"/>
        <pt x="204" y="464" on="1"/>
        <pt x="203" y="475" on="1"/>
        <pt x="203" y="691" on="1"/>
        <pt x="228" y="691" on="1"/>
      </contour>
      <contour>
        <pt x="55" y="454" on="1"/>
        <pt x="55" y="480" on="1"/>
        <pt x="189" y="480" on="1"/>
        <pt x="189" y="459" on="1"/>
      </contour>
      <contour>
        <pt x="377" y="480" on="1"/>
        <pt x="377" y="454" on="1"/>
        <pt x="243" y="459" on="1"/>
        <pt x="243" y="480" on="1"/>
      </contour>
    </TTGlyph>
    <TTGlyph name="daggerdbl" xMin="73" yMin="-110" xMax="395" yMax="691">
      <contour>
        <pt x="247" y="-110" on="1"/>
        <pt x="221" y="-110" on="1"/>
        <pt x="221" y="691" on="1"/>
        <pt x="247" y="691" on="1"/>
      </contour>
      <contour>
        <pt x="207" y="459" on="1"/>
        <pt x="73" y="454" on="1"/>
        <pt x="73" y="480" on="1"/>
        <pt x="207" y="480" on="1"/>
      </contour>
      <contour>
        <pt x="395" y="454" on="1"/>
        <pt x="261" y="459" on="1"/>
        <pt x="261" y="480" on="1"/>
        <pt x="395" y="480" on="1"/>
      </contour>
      <contour>
        <pt x="207" y="122" on="1"/>
        <pt x="207" y="101" on="1"/>
        <pt x="73" y="101" on="1"/>
        <pt x="73" y="127" on="1"/>
      </contour>
      <contour>
        <pt x="395" y="101" on="1"/>
        <pt x="261" y="101" on="1"/>
        <pt x="261" y="122" on="1"/>
        <pt x="395" y="127" on="1"/>
      </contour>
    </TTGlyph>
    <TTGlyph name="dcaron" xMin="71" yMin="-12" xMax="587" yMax="701">
      <contour>
        <pt x="569" y="701" on="1"/>
        <pt x="576" y="701" on="1"/>
        <pt x="587" y="701" on="0"/>
        <pt x="587" y="691" on="1"/>
        <pt x="587" y="632" on="1"/>
        <pt x="585" y="566" on="0"/>
        <pt x="571" y="517" on="1"/>
        <pt x="561" y="521" on="1"/>
        <pt x="564" y="577" on="0"/>
        <pt x="564" y="623" on="1"/>
        <pt x="561" y="623" on="0"/>
        <pt x="558" y="629" on="0"/>
        <pt x="559" y="632" on="1"/>
        <pt x="559" y="691" on="1"/>
        <pt x="558" y="701" on="0"/>
      </contour>
      <contour>
        <pt x="442" y="700" on="1"/>
        <pt x="466" y="700" on="1"/>
        <pt x="466" y="0" on="1"/>
        <pt x="448" y="0" on="1"/>
        <pt x="444" y="84" on="1"/>
        <pt x="336" y="-12" on="0"/>
        <pt x="245" y="-12" on="1"/>
        <pt x="151" y="-12" on="0"/>
        <pt x="71" y="103" on="0"/>
        <pt x="71" y="377" on="0"/>
        <pt x="151" y="492" on="0"/>
        <pt x="245" y="492" on="1"/>
        <pt x="330" y="492" on="0"/>
        <pt x="445" y="442" on="1"/>
        <pt x="442" y="468" on="0"/>
        <pt x="442" y="535" on="1"/>
      </contour>
      <contour>
        <pt x="442" y="107" on="1"/>
        <pt x="442" y="421" on="1"/>
        <pt x="322" y="469" on="0"/>
        <pt x="245" y="469" on="1"/>
        <pt x="164" y="469" on="0"/>
        <pt x="96" y="365" on="0"/>
        <pt x="96" y="115" on="0"/>
        <pt x="164" y="11" on="0"/>
        <pt x="245" y="11" on="1"/>
        <pt x="291" y="11" on="0"/>
        <pt x="380" y="55" on="0"/>
      </contour>
    </TTGlyph>
    <TTGlyph name="dcroat" xMin="71" yMin="-12" xMax="540" yMax="700">
      <contour>
        <pt x="540" y="590" on="1"/>
        <pt x="466" y="590" on="1"/>
        <pt x="466" y="0" on="1"/>
        <pt x="448" y="0" on="1"/>
        <pt x="444" y="84" on="1"/>
        <pt x="336" y="-12" on="0"/>
        <pt x="245" y="-12" on="1"/>
        <pt x="151" y="-12" on="0"/>
        <pt x="71" y="103" on="0"/>
        <pt x="71" y="377" on="0"/>
        <pt x="151" y="492" on="0"/>
        <pt x="245" y="492" on="1"/>
        <pt x="330" y="492" on="0"/>
        <pt x="445" y="442" on="1"/>
        <pt x="442" y="468" on="0"/>
        <pt x="442" y="535" on="1"/>
        <pt x="442" y="590" on="1"/>
        <pt x="265" y="590" on="1"/>
        <pt x="265" y="610" on="1"/>
        <pt x="442" y="610" on="1"/>
        <pt x="442" y="700" on="1"/>
        <pt x="466" y="700" on="1"/>
        <pt x="466" y="610" on="1"/>
        <pt x="540" y="610" on="1"/>
      </contour>
      <contour>
        <pt x="442" y="107" on="1"/>
        <pt x="442" y="421" on="1"/>
        <pt x="322" y="469" on="0"/>
        <pt x="245" y="469" on="1"/>
        <pt x="164" y="469" on="0"/>
        <pt x="96" y="365" on="0"/>
        <pt x="96" y="115" on="0"/>
        <pt x="164" y="11" on="0"/>
        <pt x="245" y="11" on="1"/>
        <pt x="291" y="11" on="0"/>
        <pt x="380" y="55" on="0"/>
      </contour>
    </TTGlyph>
    <TTGlyph name="degree" xMin="68" yMin="455" xMax="315" yMax="702">
      <contour>
        <pt x="192" y="702" on="1"/>
        <pt x="242" y="702" on="0"/>
        <pt x="315" y="629" on="0"/>
        <pt x="315" y="579" on="1"/>
        <pt x="315" y="528" on="0"/>
        <pt x="242" y="455" on="0"/>
        <pt x="192" y="455" on="1"/>
        <pt x="141" y="455" on="0"/>
        <pt x="68" y="528" on="0"/>
        <pt x="68" y="579" on="1"/>
        <pt x="68" y="629" on="0"/>
        <pt x="141" y="702" on="0"/>
      </contour>
      <contour>
        <pt x="235" y="682" on="0"/>
        <pt x="149" y="682" on="0"/>
        <pt x="88" y="622" on="0"/>
        <pt x="88" y="579" on="1"/>
        <pt x="88" y="537" on="0"/>
        <pt x="149" y="475" on="0"/>
        <pt x="192" y="475" on="1"/>
        <pt x="234" y="475" on="0"/>
        <pt x="295" y="537" on="0"/>
        <pt x="295" y="579" on="1"/>
        <pt x="295" y="622" on="0"/>
      </contour>
    </TTGlyph>
    <TTGlyph name="dieresis" xMin="96" yMin="595" xMax="303" yMax="673">
      <contour>
        <pt x="106" y="673" on="1"/>
        <pt x="116" y="673" on="1"/>
        <pt x="126" y="673" on="0"/>
        <pt x="126" y="662" on="1"/>
        <pt x="126" y="606" on="1"/>
        <pt x="126" y="595" on="0"/>
        <pt x="116" y="595" on="1"/>
        <pt x="106" y="595" on="1"/>
        <pt x="96" y="595" on="0"/>
        <pt x="96" y="606" on="1"/>
        <pt x="96" y="662" on="1"/>
        <pt x="96" y="673" on="0"/>
      </contour>
      <contour>
        <pt x="283" y="673" on="1"/>
        <pt x="293" y="673" on="1"/>
        <pt x="303" y="673" on="0"/>
        <pt x="303" y="662" on="1"/>
        <pt x="303" y="606" on="1"/>
        <pt x="303" y="595" on="0"/>
        <pt x="293" y="595" on="1"/>
        <pt x="283" y="595" on="1"/>
        <pt x="273" y="595" on="0"/>
        <pt x="273" y="606" on="1"/>
        <pt x="273" y="662" on="1"/>
        <pt x="273" y="673" on="0"/>
      </contour>
    </TTGlyph>
    <TTGlyph name="divide" xMin="86" yMin="90" xMax="503" yMax="502">
      <contour>
        <pt x="288" y="502" on="1"/>
        <pt x="298" y="502" on="1"/>
        <pt x="310" y="502" on="0"/>
        <pt x="310" y="490" on="1"/>
        <pt x="310" y="428" on="1"/>
        <pt x="310" y="416" on="0"/>
        <pt x="298" y="416" on="1"/>
        <pt x="288" y="416" on="1"/>
        <pt x="276" y="416" on="0"/>
        <pt x="276" y="428" on="1"/>
        <pt x="276" y="490" on="1"/>
        <pt x="276" y="502" on="0"/>
      </contour>
      <contour>
        <pt x="503" y="285" on="1"/>
        <pt x="86" y="285" on="1"/>
        <pt x="86" y="307" on="1"/>
        <pt x="503" y="307" on="1"/>
      </contour>
      <contour>
        <pt x="288" y="176" on="1"/>
        <pt x="298" y="176" on="1"/>
        <pt x="310" y="176" on="0"/>
        <pt x="310" y="164" on="1"/>
        <pt x="310" y="102" on="1"/>
        <pt x="310" y="90" on="0"/>
        <pt x="298" y="90" on="1"/>
        <pt x="288" y="90" on="1"/>
        <pt x="276" y="90" on="0"/>
        <pt x="276" y="102" on="1"/>
        <pt x="276" y="164" on="1"/>
        <pt x="276" y="176" on="0"/>
      </contour>
    </TTGlyph>
</ttFont>
